%TF.GenerationSoftware,KiCad,Pcbnew,7.0.9*%
%TF.CreationDate,2024-03-31T00:52:56+01:00*%
%TF.ProjectId,Controller,436f6e74-726f-46c6-9c65-722e6b696361,rev?*%
%TF.SameCoordinates,Original*%
%TF.FileFunction,Profile,NP*%
%FSLAX46Y46*%
G04 Gerber Fmt 4.6, Leading zero omitted, Abs format (unit mm)*
G04 Created by KiCad (PCBNEW 7.0.9) date 2024-03-31 00:52:56*
%MOMM*%
%LPD*%
G01*
G04 APERTURE LIST*
%TA.AperFunction,Profile*%
%ADD10C,0.100000*%
%TD*%
G04 APERTURE END LIST*
D10*
X226000000Y-153950000D02*
X226000000Y-73000000D01*
X226000000Y-73000000D02*
X226000000Y-58750000D01*
X226000000Y-58750000D02*
G75*
G03*
X223750000Y-56500000I-2250000J0D01*
G01*
X181999999Y-103800001D02*
G75*
G03*
X180200000Y-102000001I-1799999J1D01*
G01*
X187500000Y-56500000D02*
X129300000Y-56500000D01*
X204000000Y-121200000D02*
X223800000Y-121200000D01*
X167200000Y-102000000D02*
G75*
G03*
X167200000Y-103200000I0J-600000D01*
G01*
X204000000Y-120000000D02*
G75*
G03*
X204000000Y-121200000I0J-600000D01*
G01*
X129300000Y-56500000D02*
G75*
G03*
X127050000Y-58750000I0J-2250000D01*
G01*
X129300000Y-156200000D02*
X223750000Y-156200000D01*
X211700000Y-120000000D02*
X204000000Y-120000000D01*
X180800000Y-103800000D02*
X180800000Y-118800000D01*
X127050000Y-153950000D02*
G75*
G03*
X129300000Y-156200000I2250000J0D01*
G01*
X180800000Y-118800000D02*
G75*
G03*
X182000000Y-118800000I600000J0D01*
G01*
X182000000Y-118800001D02*
X182000000Y-103800001D01*
X170000000Y-103200000D02*
X167200000Y-103200000D01*
X170000000Y-103200000D02*
X180200000Y-103200000D01*
X223750000Y-156200000D02*
G75*
G03*
X226000000Y-153950000I0J2250000D01*
G01*
X187500000Y-56500000D02*
X223750000Y-56500000D01*
X127050000Y-58750000D02*
X127050000Y-153950000D01*
X223800000Y-121200000D02*
G75*
G03*
X223800000Y-120000000I0J600000D01*
G01*
X180200000Y-102000001D02*
X167200000Y-102000000D01*
X180800000Y-103800000D02*
G75*
G03*
X180200000Y-103200000I-600000J0D01*
G01*
X223800000Y-120000000D02*
X211700000Y-120000000D01*
M02*
