%TF.GenerationSoftware,KiCad,Pcbnew,7.0.9*%
%TF.CreationDate,2024-03-31T00:52:50+01:00*%
%TF.ProjectId,Controller,436f6e74-726f-46c6-9c65-722e6b696361,rev?*%
%TF.SameCoordinates,Original*%
%TF.FileFunction,Drillmap*%
%TF.FilePolarity,Positive*%
%FSLAX45Y45*%
G04 Gerber Fmt 4.5, Leading zero omitted, Abs format (unit mm)*
G04 Created by KiCad (PCBNEW 7.0.9) date 2024-03-31 00:52:50*
%MOMM*%
%LPD*%
G01*
G04 APERTURE LIST*
%ADD10C,0.100000*%
%ADD11C,0.200000*%
G04 APERTURE END LIST*
D10*
X22600000Y-15395000D02*
X22600000Y-7300000D01*
X22600000Y-7300000D02*
X22600000Y-5875000D01*
X22600000Y-5875000D02*
G75*
G03*
X22375000Y-5650000I-225000J0D01*
G01*
X18200000Y-10380000D02*
G75*
G03*
X18020000Y-10200000I-180000J0D01*
G01*
X18750000Y-5650000D02*
X12930000Y-5650000D01*
X20400000Y-12120000D02*
X22380000Y-12120000D01*
X16720000Y-10200000D02*
G75*
G03*
X16720000Y-10320000I0J-60000D01*
G01*
X20400000Y-12000000D02*
G75*
G03*
X20400000Y-12120000I0J-60000D01*
G01*
X12930000Y-5650000D02*
G75*
G03*
X12705000Y-5875000I0J-225000D01*
G01*
X12930000Y-15620000D02*
X22375000Y-15620000D01*
X21170000Y-12000000D02*
X20400000Y-12000000D01*
X18080000Y-10380000D02*
X18080000Y-11880000D01*
X12705000Y-15395000D02*
G75*
G03*
X12930000Y-15620000I225000J0D01*
G01*
X18080000Y-11880000D02*
G75*
G03*
X18200000Y-11880000I60000J0D01*
G01*
X18200000Y-11880000D02*
X18200000Y-10380000D01*
X17000000Y-10320000D02*
X16720000Y-10320000D01*
X17000000Y-10320000D02*
X18020000Y-10320000D01*
X22375000Y-15620000D02*
G75*
G03*
X22600000Y-15395000I0J225000D01*
G01*
X18750000Y-5650000D02*
X22375000Y-5650000D01*
X12705000Y-5875000D02*
X12705000Y-15395000D01*
X22380000Y-12120000D02*
G75*
G03*
X22380000Y-12000000I0J60000D01*
G01*
X18020000Y-10200000D02*
X16720000Y-10200000D01*
X18080000Y-10380000D02*
G75*
G03*
X18020000Y-10320000I-60000J0D01*
G01*
X22380000Y-12000000D02*
X21170000Y-12000000D01*
D11*
X12960777Y-15936484D02*
X12960777Y-15736484D01*
X12960777Y-15736484D02*
X13008396Y-15736484D01*
X13008396Y-15736484D02*
X13036967Y-15746008D01*
X13036967Y-15746008D02*
X13056015Y-15765055D01*
X13056015Y-15765055D02*
X13065539Y-15784103D01*
X13065539Y-15784103D02*
X13075062Y-15822198D01*
X13075062Y-15822198D02*
X13075062Y-15850769D01*
X13075062Y-15850769D02*
X13065539Y-15888865D01*
X13065539Y-15888865D02*
X13056015Y-15907912D01*
X13056015Y-15907912D02*
X13036967Y-15926960D01*
X13036967Y-15926960D02*
X13008396Y-15936484D01*
X13008396Y-15936484D02*
X12960777Y-15936484D01*
X13160777Y-15936484D02*
X13160777Y-15803150D01*
X13160777Y-15841246D02*
X13170301Y-15822198D01*
X13170301Y-15822198D02*
X13179824Y-15812674D01*
X13179824Y-15812674D02*
X13198872Y-15803150D01*
X13198872Y-15803150D02*
X13217920Y-15803150D01*
X13284586Y-15936484D02*
X13284586Y-15803150D01*
X13284586Y-15736484D02*
X13275062Y-15746008D01*
X13275062Y-15746008D02*
X13284586Y-15755531D01*
X13284586Y-15755531D02*
X13294110Y-15746008D01*
X13294110Y-15746008D02*
X13284586Y-15736484D01*
X13284586Y-15736484D02*
X13284586Y-15755531D01*
X13408396Y-15936484D02*
X13389348Y-15926960D01*
X13389348Y-15926960D02*
X13379824Y-15907912D01*
X13379824Y-15907912D02*
X13379824Y-15736484D01*
X13513158Y-15936484D02*
X13494110Y-15926960D01*
X13494110Y-15926960D02*
X13484586Y-15907912D01*
X13484586Y-15907912D02*
X13484586Y-15736484D01*
X13741729Y-15936484D02*
X13741729Y-15736484D01*
X13741729Y-15736484D02*
X13808396Y-15879341D01*
X13808396Y-15879341D02*
X13875062Y-15736484D01*
X13875062Y-15736484D02*
X13875062Y-15936484D01*
X14056015Y-15936484D02*
X14056015Y-15831722D01*
X14056015Y-15831722D02*
X14046491Y-15812674D01*
X14046491Y-15812674D02*
X14027443Y-15803150D01*
X14027443Y-15803150D02*
X13989348Y-15803150D01*
X13989348Y-15803150D02*
X13970301Y-15812674D01*
X14056015Y-15926960D02*
X14036967Y-15936484D01*
X14036967Y-15936484D02*
X13989348Y-15936484D01*
X13989348Y-15936484D02*
X13970301Y-15926960D01*
X13970301Y-15926960D02*
X13960777Y-15907912D01*
X13960777Y-15907912D02*
X13960777Y-15888865D01*
X13960777Y-15888865D02*
X13970301Y-15869817D01*
X13970301Y-15869817D02*
X13989348Y-15860293D01*
X13989348Y-15860293D02*
X14036967Y-15860293D01*
X14036967Y-15860293D02*
X14056015Y-15850769D01*
X14151253Y-15803150D02*
X14151253Y-16003150D01*
X14151253Y-15812674D02*
X14170301Y-15803150D01*
X14170301Y-15803150D02*
X14208396Y-15803150D01*
X14208396Y-15803150D02*
X14227443Y-15812674D01*
X14227443Y-15812674D02*
X14236967Y-15822198D01*
X14236967Y-15822198D02*
X14246491Y-15841246D01*
X14246491Y-15841246D02*
X14246491Y-15898388D01*
X14246491Y-15898388D02*
X14236967Y-15917436D01*
X14236967Y-15917436D02*
X14227443Y-15926960D01*
X14227443Y-15926960D02*
X14208396Y-15936484D01*
X14208396Y-15936484D02*
X14170301Y-15936484D01*
X14170301Y-15936484D02*
X14151253Y-15926960D01*
X14332205Y-15917436D02*
X14341729Y-15926960D01*
X14341729Y-15926960D02*
X14332205Y-15936484D01*
X14332205Y-15936484D02*
X14322682Y-15926960D01*
X14322682Y-15926960D02*
X14332205Y-15917436D01*
X14332205Y-15917436D02*
X14332205Y-15936484D01*
X14332205Y-15812674D02*
X14341729Y-15822198D01*
X14341729Y-15822198D02*
X14332205Y-15831722D01*
X14332205Y-15831722D02*
X14322682Y-15822198D01*
X14322682Y-15822198D02*
X14332205Y-15812674D01*
X14332205Y-15812674D02*
X14332205Y-15831722D01*
M02*
