M48
; DRILL file {KiCad 7.0.9} date Sun Mar 31 00:52:51 2024
; FORMAT={-:-/ absolute / inch / decimal}
; #@! TF.CreationDate,2024-03-31T00:52:51+01:00
; #@! TF.GenerationSoftware,Kicad,Pcbnew,7.0.9
; #@! TF.FileFunction,Plated,1,2,PTH
FMAT,2
INCH
; #@! TA.AperFunction,Plated,PTH,ViaDrill
T1C0.0118
; #@! TA.AperFunction,Plated,PTH,ComponentDrill
T2C0.0138
; #@! TA.AperFunction,Plated,PTH,ViaDrill
T3C0.0157
; #@! TA.AperFunction,Plated,PTH,ViaDrill
T4C0.0177
; #@! TA.AperFunction,Plated,PTH,ViaDrill
T5C0.0213
; #@! TA.AperFunction,Plated,PTH,ComponentDrill
T6C0.0236
; #@! TA.AperFunction,Plated,PTH,ComponentDrill
T7C0.0374
; #@! TA.AperFunction,Plated,PTH,ComponentDrill
T8C0.0394
; #@! TA.AperFunction,Plated,PTH,ComponentDrill
T9C0.0433
; #@! TA.AperFunction,Plated,PTH,ComponentDrill
T10C0.0469
; #@! TA.AperFunction,Plated,PTH,ComponentDrill
T11C0.0472
; #@! TA.AperFunction,Plated,PTH,ViaDrill
T12C0.0787
; #@! TA.AperFunction,Plated,PTH,ComponentDrill
T13C0.0984
; #@! TA.AperFunction,Plated,PTH,ComponentDrill
T14C0.1063
; #@! TA.AperFunction,Plated,PTH,ComponentDrill
T15C0.1236
%
G90
G05
T1
X5.1181Y-4.8307
X5.1181Y-4.9724
X5.126Y-5.2008
X5.248Y-4.9724
X5.252Y-4.8307
X5.3661Y-4.7874
X5.4055Y-4.9724
X5.5079Y-5.874
X5.5394Y-2.7323
X6.6535Y-5.2795
X6.6575Y-5.7598
X6.6575Y-5.8307
X6.6614Y-4.8819
X6.6614Y-5.3307
X6.7795Y-5.2677
X6.7795Y-5.1063
X6.7874Y-5.3543
X6.811Y-4.6693
X6.811Y-4.8031
X6.9646Y-4.8976
X7.4528Y-5.437
X7.6142Y-5.437
X7.6796Y-5.2613
T2
X5.9748Y-4.6796
X5.9748Y-4.7298
X5.9748Y-4.78
X6.025Y-4.6796
X6.025Y-4.7298
X6.025Y-4.78
X6.0752Y-4.6796
X6.0752Y-4.7298
X6.0752Y-4.78
T3
X5.1339Y-3.6024
X5.4331Y-5.1378
X5.7457Y-4.417
X5.7535Y-4.6958
X5.7575Y-4.7358
X5.758Y-4.6298
X5.762Y-5.1598
X5.764Y-5.3718
X5.7735Y-4.9298
X5.774Y-6.0938
X5.776Y-4.1758
X5.78Y-4.7885
X5.795Y-5.4518
X5.7963Y-4.4638
X5.7975Y-4.5184
X5.8103Y-4.7177
X5.82Y-4.7728
X5.8281Y-4.2418
X5.8368Y-4.516
X5.8598Y-5.0169
X5.8607Y-5.515
X5.8648Y-5.1669
X5.9034Y-5.5603
X5.9037Y-5.107
X5.904Y-4.5362
X5.908Y-4.8658
X5.9086Y-5.1658
X5.9086Y-5.2668
X5.9197Y-5.9621
X5.9455Y-4.9298
X5.9677Y-5.81
X5.992Y-5.9418
X6.0055Y-4.5068
X6.021Y-4.6398
X6.0213Y-4.9473
X6.026Y-4.3558
X6.038Y-5.3778
X6.04Y-5.2418
X6.0487Y-4.8238
X6.054Y-4.2898
X6.0611Y-5.0618
X6.064Y-5.9418
X6.066Y-4.3958
X6.0697Y-5.575
X6.117Y-4.6918
X6.1175Y-4.462
X6.155Y-5.3738
X6.156Y-5.6538
X6.174Y-4.454
X6.18Y-4.3538
X6.19Y-4.8678
X6.19Y-5.2578
X6.19Y-5.4158
X6.1987Y-5.757
X6.2158Y-4.898
X6.2368Y-4.9312
X6.2394Y-4.4752
X6.2415Y-5.0738
X6.2506Y-4.6355
X6.256Y-4.2578
X6.27Y-4.4478
X6.2905Y-4.6272
X6.2949Y-4.7068
T4
X6.6181Y-3.8937
X6.7008Y-3.7283
X6.7677Y-3.2835
X6.799Y-3.76
X6.7992Y-4.2835
X6.9488Y-3.9409
X6.999Y-3.761
X7.0Y-4.1102
X7.2346Y-4.3307
X7.439Y-4.2776
X7.6575Y-4.1929
X7.7598Y-4.4724
X7.9094Y-4.0472
T5
X5.6142Y-3.9449
X5.7579Y-4.0157
X5.7835Y-3.689
X6.2244Y-3.7756
X6.3819Y-3.2362
X6.3819Y-3.5472
X6.4803Y-3.1772
X6.4803Y-3.4882
X6.6299Y-3.126
X6.6299Y-3.4449
X7.2835Y-4.8346
X7.3819Y-4.9134
X7.3898Y-4.9961
X8.1496Y-4.5453
X8.1504Y-3.9417
T7
X5.3228Y-5.5236
X5.3228Y-5.622
X5.3228Y-5.7205
X8.5768Y-5.5236
X8.5768Y-5.622
X8.5768Y-5.7205
T8
X5.614Y-4.1748
X5.614Y-4.2748
X5.614Y-4.3748
X5.614Y-4.4748
X5.614Y-4.5748
X5.614Y-4.6748
X5.614Y-4.7748
X5.614Y-4.8748
X5.614Y-4.9748
X5.614Y-5.0748
X5.614Y-5.1748
X5.614Y-5.2748
X5.614Y-5.3748
X5.614Y-5.4748
X5.614Y-5.5748
X5.614Y-5.6748
X5.614Y-5.7748
X5.614Y-5.8748
X5.614Y-5.9748
X5.614Y-6.0748
X5.679Y-4.1748
X5.679Y-4.2748
X5.679Y-4.3748
X5.679Y-4.4748
X5.679Y-4.5748
X5.679Y-4.6748
X5.679Y-4.7748
X5.679Y-4.8748
X5.679Y-4.9748
X5.679Y-5.0748
X5.679Y-5.1748
X5.679Y-5.2748
X5.679Y-5.3748
X5.679Y-5.4748
X5.679Y-5.5748
X5.679Y-5.6748
X5.679Y-5.7748
X5.679Y-5.8748
X5.679Y-5.9748
X5.679Y-6.0748
X5.9284Y-4.1195
X5.9284Y-4.1844
X6.0284Y-4.1195
X6.0284Y-4.1844
X6.1284Y-4.1195
X6.1284Y-4.1844
X6.379Y-4.1748
X6.379Y-4.2748
X6.379Y-4.3748
X6.379Y-4.4748
X6.379Y-4.5748
X6.379Y-4.6748
X6.379Y-4.7748
X6.379Y-4.8748
X6.379Y-4.9748
X6.379Y-5.0748
X6.379Y-5.1748
X6.379Y-5.2748
X6.379Y-5.3748
X6.379Y-5.4748
X6.379Y-5.5748
X6.379Y-5.6748
X6.379Y-5.7748
X6.379Y-5.8748
X6.379Y-5.9748
X6.379Y-6.0748
X6.4439Y-4.1748
X6.4439Y-4.2748
X6.4439Y-4.3748
X6.4439Y-4.4748
X6.4439Y-4.5748
X6.4439Y-4.6748
X6.4439Y-4.7748
X6.4439Y-4.8748
X6.4439Y-4.9748
X6.4439Y-5.0748
X6.4439Y-5.1748
X6.4439Y-5.2748
X6.4439Y-5.3748
X6.4439Y-5.4748
X6.4439Y-5.5748
X6.4439Y-5.6748
X6.4439Y-5.7748
X6.4439Y-5.8748
X6.4439Y-5.9748
X6.4439Y-6.0748
T9
X5.2283Y-4.3346
X5.2283Y-4.4346
X5.2283Y-4.5346
X5.3268Y-4.3346
X5.3268Y-4.5346
T10
X5.4409Y-2.3583
X5.5409Y-2.3583
T11
X7.1709Y-2.4781
X7.1709Y-2.7734
X7.1709Y-3.2085
X7.1709Y-3.5038
T12
X6.1339Y-3.0394
T13
X6.189Y-2.3354
X6.5827Y-2.3354
X8.7906Y-4.0315
X8.7906Y-4.4252
T14
X5.1732Y-5.9961
X5.187Y-2.4213
X8.7087Y-5.9921
X8.7126Y-2.4173
T15
X5.2776Y-4.2043
X5.2776Y-4.665
T6
G00X5.8579Y-5.8925
M15
G01X5.8579Y-5.9162
M16
G05
G00X5.8579Y-6.0421
M15
G01X5.8579Y-6.0658
M16
G05
G00X6.1981Y-5.8925
M15
G01X6.1981Y-5.9162
M16
G05
G00X6.1981Y-6.0421
M15
G01X6.1981Y-6.0658
M16
G05
T0
M30
