%TF.GenerationSoftware,KiCad,Pcbnew,7.0.9*%
%TF.CreationDate,2024-03-31T00:52:56+01:00*%
%TF.ProjectId,Controller,436f6e74-726f-46c6-9c65-722e6b696361,rev?*%
%TF.SameCoordinates,Original*%
%TF.FileFunction,Legend,Bot*%
%TF.FilePolarity,Positive*%
%FSLAX46Y46*%
G04 Gerber Fmt 4.6, Leading zero omitted, Abs format (unit mm)*
G04 Created by KiCad (PCBNEW 7.0.9) date 2024-03-31 00:52:56*
%MOMM*%
%LPD*%
G01*
G04 APERTURE LIST*
%ADD10C,0.150000*%
%ADD11C,0.100000*%
%ADD12C,0.120000*%
G04 APERTURE END LIST*
D10*
X158039924Y-126682973D02*
X157968495Y-126721068D01*
X157968495Y-126721068D02*
X157854209Y-126721068D01*
X157854209Y-126721068D02*
X157735162Y-126682973D01*
X157735162Y-126682973D02*
X157649447Y-126606783D01*
X157649447Y-126606783D02*
X157601828Y-126530592D01*
X157601828Y-126530592D02*
X157544685Y-126378211D01*
X157544685Y-126378211D02*
X157530400Y-126263925D01*
X157530400Y-126263925D02*
X157549447Y-126111544D01*
X157549447Y-126111544D02*
X157578019Y-126035354D01*
X157578019Y-126035354D02*
X157644685Y-125959164D01*
X157644685Y-125959164D02*
X157754209Y-125921068D01*
X157754209Y-125921068D02*
X157830400Y-125921068D01*
X157830400Y-125921068D02*
X157949447Y-125959164D01*
X157949447Y-125959164D02*
X157992304Y-125997259D01*
X157992304Y-125997259D02*
X158025638Y-126263925D01*
X158025638Y-126263925D02*
X157873257Y-126263925D01*
X158325638Y-125921068D02*
X158425638Y-126721068D01*
X158425638Y-126721068D02*
X158730400Y-126721068D01*
X158730400Y-126721068D02*
X158801828Y-126682973D01*
X158801828Y-126682973D02*
X158835162Y-126644878D01*
X158835162Y-126644878D02*
X158863733Y-126568687D01*
X158863733Y-126568687D02*
X158849447Y-126454402D01*
X158849447Y-126454402D02*
X158801828Y-126378211D01*
X158801828Y-126378211D02*
X158758971Y-126340116D01*
X158758971Y-126340116D02*
X158678019Y-126302021D01*
X158678019Y-126302021D02*
X158373257Y-126302021D01*
X159125638Y-125921068D02*
X159225638Y-126721068D01*
X159758971Y-126721068D02*
X159911352Y-126721068D01*
X159911352Y-126721068D02*
X159982780Y-126682973D01*
X159982780Y-126682973D02*
X160049447Y-126606783D01*
X160049447Y-126606783D02*
X160068495Y-126454402D01*
X160068495Y-126454402D02*
X160035161Y-126187735D01*
X160035161Y-126187735D02*
X159978018Y-126035354D01*
X159978018Y-126035354D02*
X159892304Y-125959164D01*
X159892304Y-125959164D02*
X159811352Y-125921068D01*
X159811352Y-125921068D02*
X159658971Y-125921068D01*
X159658971Y-125921068D02*
X159587542Y-125959164D01*
X159587542Y-125959164D02*
X159520876Y-126035354D01*
X159520876Y-126035354D02*
X159501828Y-126187735D01*
X159501828Y-126187735D02*
X159535161Y-126454402D01*
X159535161Y-126454402D02*
X159592304Y-126606783D01*
X159592304Y-126606783D02*
X159678018Y-126682973D01*
X159678018Y-126682973D02*
X159758971Y-126721068D01*
X160382780Y-125921068D02*
X160535161Y-125921068D01*
X160535161Y-125921068D02*
X160616113Y-125959164D01*
X160616113Y-125959164D02*
X160658971Y-125997259D01*
X160658971Y-125997259D02*
X160749447Y-126111544D01*
X160749447Y-126111544D02*
X160806590Y-126263925D01*
X160806590Y-126263925D02*
X160844685Y-126568687D01*
X160844685Y-126568687D02*
X160816113Y-126644878D01*
X160816113Y-126644878D02*
X160782780Y-126682973D01*
X160782780Y-126682973D02*
X160711351Y-126721068D01*
X160711351Y-126721068D02*
X160558971Y-126721068D01*
X160558971Y-126721068D02*
X160478018Y-126682973D01*
X160478018Y-126682973D02*
X160435161Y-126644878D01*
X160435161Y-126644878D02*
X160387542Y-126568687D01*
X160387542Y-126568687D02*
X160363732Y-126378211D01*
X160363732Y-126378211D02*
X160392304Y-126302021D01*
X160392304Y-126302021D02*
X160425637Y-126263925D01*
X160425637Y-126263925D02*
X160497066Y-126225830D01*
X160497066Y-126225830D02*
X160649447Y-126225830D01*
X160649447Y-126225830D02*
X160730399Y-126263925D01*
X160730399Y-126263925D02*
X160773256Y-126302021D01*
X160773256Y-126302021D02*
X160820875Y-126378211D01*
X159246353Y-124142973D02*
X159174924Y-124181068D01*
X159174924Y-124181068D02*
X159060638Y-124181068D01*
X159060638Y-124181068D02*
X158941591Y-124142973D01*
X158941591Y-124142973D02*
X158855876Y-124066783D01*
X158855876Y-124066783D02*
X158808257Y-123990592D01*
X158808257Y-123990592D02*
X158751114Y-123838211D01*
X158751114Y-123838211D02*
X158736829Y-123723925D01*
X158736829Y-123723925D02*
X158755876Y-123571544D01*
X158755876Y-123571544D02*
X158784448Y-123495354D01*
X158784448Y-123495354D02*
X158851114Y-123419164D01*
X158851114Y-123419164D02*
X158960638Y-123381068D01*
X158960638Y-123381068D02*
X159036829Y-123381068D01*
X159036829Y-123381068D02*
X159155876Y-123419164D01*
X159155876Y-123419164D02*
X159198733Y-123457259D01*
X159198733Y-123457259D02*
X159232067Y-123723925D01*
X159232067Y-123723925D02*
X159079686Y-123723925D01*
X159532067Y-123381068D02*
X159632067Y-124181068D01*
X159632067Y-124181068D02*
X159989210Y-123381068D01*
X159989210Y-123381068D02*
X160089210Y-124181068D01*
X160370162Y-123381068D02*
X160470162Y-124181068D01*
X160470162Y-124181068D02*
X160660638Y-124181068D01*
X160660638Y-124181068D02*
X160770162Y-124142973D01*
X160770162Y-124142973D02*
X160836828Y-124066783D01*
X160836828Y-124066783D02*
X160865400Y-123990592D01*
X160865400Y-123990592D02*
X160884448Y-123838211D01*
X160884448Y-123838211D02*
X160870162Y-123723925D01*
X160870162Y-123723925D02*
X160813019Y-123571544D01*
X160813019Y-123571544D02*
X160765400Y-123495354D01*
X160765400Y-123495354D02*
X160679686Y-123419164D01*
X160679686Y-123419164D02*
X160560638Y-123381068D01*
X160560638Y-123381068D02*
X160370162Y-123381068D01*
X158039924Y-131762973D02*
X157968495Y-131801068D01*
X157968495Y-131801068D02*
X157854209Y-131801068D01*
X157854209Y-131801068D02*
X157735162Y-131762973D01*
X157735162Y-131762973D02*
X157649447Y-131686783D01*
X157649447Y-131686783D02*
X157601828Y-131610592D01*
X157601828Y-131610592D02*
X157544685Y-131458211D01*
X157544685Y-131458211D02*
X157530400Y-131343925D01*
X157530400Y-131343925D02*
X157549447Y-131191544D01*
X157549447Y-131191544D02*
X157578019Y-131115354D01*
X157578019Y-131115354D02*
X157644685Y-131039164D01*
X157644685Y-131039164D02*
X157754209Y-131001068D01*
X157754209Y-131001068D02*
X157830400Y-131001068D01*
X157830400Y-131001068D02*
X157949447Y-131039164D01*
X157949447Y-131039164D02*
X157992304Y-131077259D01*
X157992304Y-131077259D02*
X158025638Y-131343925D01*
X158025638Y-131343925D02*
X157873257Y-131343925D01*
X158325638Y-131001068D02*
X158425638Y-131801068D01*
X158425638Y-131801068D02*
X158730400Y-131801068D01*
X158730400Y-131801068D02*
X158801828Y-131762973D01*
X158801828Y-131762973D02*
X158835162Y-131724878D01*
X158835162Y-131724878D02*
X158863733Y-131648687D01*
X158863733Y-131648687D02*
X158849447Y-131534402D01*
X158849447Y-131534402D02*
X158801828Y-131458211D01*
X158801828Y-131458211D02*
X158758971Y-131420116D01*
X158758971Y-131420116D02*
X158678019Y-131382021D01*
X158678019Y-131382021D02*
X158373257Y-131382021D01*
X159125638Y-131001068D02*
X159225638Y-131801068D01*
X159758971Y-131801068D02*
X159911352Y-131801068D01*
X159911352Y-131801068D02*
X159982780Y-131762973D01*
X159982780Y-131762973D02*
X160049447Y-131686783D01*
X160049447Y-131686783D02*
X160068495Y-131534402D01*
X160068495Y-131534402D02*
X160035161Y-131267735D01*
X160035161Y-131267735D02*
X159978018Y-131115354D01*
X159978018Y-131115354D02*
X159892304Y-131039164D01*
X159892304Y-131039164D02*
X159811352Y-131001068D01*
X159811352Y-131001068D02*
X159658971Y-131001068D01*
X159658971Y-131001068D02*
X159587542Y-131039164D01*
X159587542Y-131039164D02*
X159520876Y-131115354D01*
X159520876Y-131115354D02*
X159501828Y-131267735D01*
X159501828Y-131267735D02*
X159535161Y-131534402D01*
X159535161Y-131534402D02*
X159592304Y-131686783D01*
X159592304Y-131686783D02*
X159678018Y-131762973D01*
X159678018Y-131762973D02*
X159758971Y-131801068D01*
X160368494Y-131801068D02*
X160901828Y-131801068D01*
X160901828Y-131801068D02*
X160458971Y-131001068D01*
X146089162Y-128588068D02*
X145870114Y-128969021D01*
X145632019Y-128588068D02*
X145732019Y-129388068D01*
X145732019Y-129388068D02*
X146036781Y-129388068D01*
X146036781Y-129388068D02*
X146108209Y-129349973D01*
X146108209Y-129349973D02*
X146141543Y-129311878D01*
X146141543Y-129311878D02*
X146170114Y-129235687D01*
X146170114Y-129235687D02*
X146155828Y-129121402D01*
X146155828Y-129121402D02*
X146108209Y-129045211D01*
X146108209Y-129045211D02*
X146065352Y-129007116D01*
X146065352Y-129007116D02*
X145984400Y-128969021D01*
X145984400Y-128969021D02*
X145679638Y-128969021D01*
X146532019Y-129388068D02*
X146451066Y-128740449D01*
X146451066Y-128740449D02*
X146479638Y-128664259D01*
X146479638Y-128664259D02*
X146512971Y-128626164D01*
X146512971Y-128626164D02*
X146584400Y-128588068D01*
X146584400Y-128588068D02*
X146736781Y-128588068D01*
X146736781Y-128588068D02*
X146817733Y-128626164D01*
X146817733Y-128626164D02*
X146860590Y-128664259D01*
X146860590Y-128664259D02*
X146908209Y-128740449D01*
X146908209Y-128740449D02*
X146989162Y-129388068D01*
X147270114Y-128588068D02*
X147370114Y-129388068D01*
X147370114Y-129388068D02*
X147727257Y-128588068D01*
X147727257Y-128588068D02*
X147827257Y-129388068D01*
X146101972Y-109029973D02*
X146030543Y-109068068D01*
X146030543Y-109068068D02*
X145916257Y-109068068D01*
X145916257Y-109068068D02*
X145797210Y-109029973D01*
X145797210Y-109029973D02*
X145711495Y-108953783D01*
X145711495Y-108953783D02*
X145663876Y-108877592D01*
X145663876Y-108877592D02*
X145606733Y-108725211D01*
X145606733Y-108725211D02*
X145592448Y-108610925D01*
X145592448Y-108610925D02*
X145611495Y-108458544D01*
X145611495Y-108458544D02*
X145640067Y-108382354D01*
X145640067Y-108382354D02*
X145706733Y-108306164D01*
X145706733Y-108306164D02*
X145816257Y-108268068D01*
X145816257Y-108268068D02*
X145892448Y-108268068D01*
X145892448Y-108268068D02*
X146011495Y-108306164D01*
X146011495Y-108306164D02*
X146054352Y-108344259D01*
X146054352Y-108344259D02*
X146087686Y-108610925D01*
X146087686Y-108610925D02*
X145935305Y-108610925D01*
X146387686Y-108268068D02*
X146487686Y-109068068D01*
X146487686Y-109068068D02*
X146792448Y-109068068D01*
X146792448Y-109068068D02*
X146863876Y-109029973D01*
X146863876Y-109029973D02*
X146897210Y-108991878D01*
X146897210Y-108991878D02*
X146925781Y-108915687D01*
X146925781Y-108915687D02*
X146911495Y-108801402D01*
X146911495Y-108801402D02*
X146863876Y-108725211D01*
X146863876Y-108725211D02*
X146821019Y-108687116D01*
X146821019Y-108687116D02*
X146740067Y-108649021D01*
X146740067Y-108649021D02*
X146435305Y-108649021D01*
X147187686Y-108268068D02*
X147287686Y-109068068D01*
X147821019Y-109068068D02*
X147973400Y-109068068D01*
X147973400Y-109068068D02*
X148044828Y-109029973D01*
X148044828Y-109029973D02*
X148111495Y-108953783D01*
X148111495Y-108953783D02*
X148130543Y-108801402D01*
X148130543Y-108801402D02*
X148097209Y-108534735D01*
X148097209Y-108534735D02*
X148040066Y-108382354D01*
X148040066Y-108382354D02*
X147954352Y-108306164D01*
X147954352Y-108306164D02*
X147873400Y-108268068D01*
X147873400Y-108268068D02*
X147721019Y-108268068D01*
X147721019Y-108268068D02*
X147649590Y-108306164D01*
X147649590Y-108306164D02*
X147582924Y-108382354D01*
X147582924Y-108382354D02*
X147563876Y-108534735D01*
X147563876Y-108534735D02*
X147597209Y-108801402D01*
X147597209Y-108801402D02*
X147654352Y-108953783D01*
X147654352Y-108953783D02*
X147740066Y-109029973D01*
X147740066Y-109029973D02*
X147821019Y-109068068D01*
X148825780Y-108268068D02*
X148368638Y-108268068D01*
X148597209Y-108268068D02*
X148697209Y-109068068D01*
X148697209Y-109068068D02*
X148606733Y-108953783D01*
X148606733Y-108953783D02*
X148521019Y-108877592D01*
X148521019Y-108877592D02*
X148440066Y-108839497D01*
X149192447Y-109068068D02*
X149725781Y-109068068D01*
X149725781Y-109068068D02*
X149282924Y-108268068D01*
X158039924Y-139382973D02*
X157968495Y-139421068D01*
X157968495Y-139421068D02*
X157854209Y-139421068D01*
X157854209Y-139421068D02*
X157735162Y-139382973D01*
X157735162Y-139382973D02*
X157649447Y-139306783D01*
X157649447Y-139306783D02*
X157601828Y-139230592D01*
X157601828Y-139230592D02*
X157544685Y-139078211D01*
X157544685Y-139078211D02*
X157530400Y-138963925D01*
X157530400Y-138963925D02*
X157549447Y-138811544D01*
X157549447Y-138811544D02*
X157578019Y-138735354D01*
X157578019Y-138735354D02*
X157644685Y-138659164D01*
X157644685Y-138659164D02*
X157754209Y-138621068D01*
X157754209Y-138621068D02*
X157830400Y-138621068D01*
X157830400Y-138621068D02*
X157949447Y-138659164D01*
X157949447Y-138659164D02*
X157992304Y-138697259D01*
X157992304Y-138697259D02*
X158025638Y-138963925D01*
X158025638Y-138963925D02*
X157873257Y-138963925D01*
X158325638Y-138621068D02*
X158425638Y-139421068D01*
X158425638Y-139421068D02*
X158730400Y-139421068D01*
X158730400Y-139421068D02*
X158801828Y-139382973D01*
X158801828Y-139382973D02*
X158835162Y-139344878D01*
X158835162Y-139344878D02*
X158863733Y-139268687D01*
X158863733Y-139268687D02*
X158849447Y-139154402D01*
X158849447Y-139154402D02*
X158801828Y-139078211D01*
X158801828Y-139078211D02*
X158758971Y-139040116D01*
X158758971Y-139040116D02*
X158678019Y-139002021D01*
X158678019Y-139002021D02*
X158373257Y-139002021D01*
X159125638Y-138621068D02*
X159225638Y-139421068D01*
X159758971Y-139421068D02*
X159911352Y-139421068D01*
X159911352Y-139421068D02*
X159982780Y-139382973D01*
X159982780Y-139382973D02*
X160049447Y-139306783D01*
X160049447Y-139306783D02*
X160068495Y-139154402D01*
X160068495Y-139154402D02*
X160035161Y-138887735D01*
X160035161Y-138887735D02*
X159978018Y-138735354D01*
X159978018Y-138735354D02*
X159892304Y-138659164D01*
X159892304Y-138659164D02*
X159811352Y-138621068D01*
X159811352Y-138621068D02*
X159658971Y-138621068D01*
X159658971Y-138621068D02*
X159587542Y-138659164D01*
X159587542Y-138659164D02*
X159520876Y-138735354D01*
X159520876Y-138735354D02*
X159501828Y-138887735D01*
X159501828Y-138887735D02*
X159535161Y-139154402D01*
X159535161Y-139154402D02*
X159592304Y-139306783D01*
X159592304Y-139306783D02*
X159678018Y-139382973D01*
X159678018Y-139382973D02*
X159758971Y-139421068D01*
X160825637Y-139421068D02*
X160444685Y-139421068D01*
X160444685Y-139421068D02*
X160358971Y-139040116D01*
X160358971Y-139040116D02*
X160401828Y-139078211D01*
X160401828Y-139078211D02*
X160482780Y-139116306D01*
X160482780Y-139116306D02*
X160673256Y-139116306D01*
X160673256Y-139116306D02*
X160744685Y-139078211D01*
X160744685Y-139078211D02*
X160778018Y-139040116D01*
X160778018Y-139040116D02*
X160806590Y-138963925D01*
X160806590Y-138963925D02*
X160782780Y-138773449D01*
X160782780Y-138773449D02*
X160735161Y-138697259D01*
X160735161Y-138697259D02*
X160692304Y-138659164D01*
X160692304Y-138659164D02*
X160611351Y-138621068D01*
X160611351Y-138621068D02*
X160420875Y-138621068D01*
X160420875Y-138621068D02*
X160349447Y-138659164D01*
X160349447Y-138659164D02*
X160316113Y-138697259D01*
X157277972Y-116522973D02*
X157206543Y-116561068D01*
X157206543Y-116561068D02*
X157092257Y-116561068D01*
X157092257Y-116561068D02*
X156973210Y-116522973D01*
X156973210Y-116522973D02*
X156887495Y-116446783D01*
X156887495Y-116446783D02*
X156839876Y-116370592D01*
X156839876Y-116370592D02*
X156782733Y-116218211D01*
X156782733Y-116218211D02*
X156768448Y-116103925D01*
X156768448Y-116103925D02*
X156787495Y-115951544D01*
X156787495Y-115951544D02*
X156816067Y-115875354D01*
X156816067Y-115875354D02*
X156882733Y-115799164D01*
X156882733Y-115799164D02*
X156992257Y-115761068D01*
X156992257Y-115761068D02*
X157068448Y-115761068D01*
X157068448Y-115761068D02*
X157187495Y-115799164D01*
X157187495Y-115799164D02*
X157230352Y-115837259D01*
X157230352Y-115837259D02*
X157263686Y-116103925D01*
X157263686Y-116103925D02*
X157111305Y-116103925D01*
X157563686Y-115761068D02*
X157663686Y-116561068D01*
X157663686Y-116561068D02*
X157968448Y-116561068D01*
X157968448Y-116561068D02*
X158039876Y-116522973D01*
X158039876Y-116522973D02*
X158073210Y-116484878D01*
X158073210Y-116484878D02*
X158101781Y-116408687D01*
X158101781Y-116408687D02*
X158087495Y-116294402D01*
X158087495Y-116294402D02*
X158039876Y-116218211D01*
X158039876Y-116218211D02*
X157997019Y-116180116D01*
X157997019Y-116180116D02*
X157916067Y-116142021D01*
X157916067Y-116142021D02*
X157611305Y-116142021D01*
X158363686Y-115761068D02*
X158463686Y-116561068D01*
X158997019Y-116561068D02*
X159149400Y-116561068D01*
X159149400Y-116561068D02*
X159220828Y-116522973D01*
X159220828Y-116522973D02*
X159287495Y-116446783D01*
X159287495Y-116446783D02*
X159306543Y-116294402D01*
X159306543Y-116294402D02*
X159273209Y-116027735D01*
X159273209Y-116027735D02*
X159216066Y-115875354D01*
X159216066Y-115875354D02*
X159130352Y-115799164D01*
X159130352Y-115799164D02*
X159049400Y-115761068D01*
X159049400Y-115761068D02*
X158897019Y-115761068D01*
X158897019Y-115761068D02*
X158825590Y-115799164D01*
X158825590Y-115799164D02*
X158758924Y-115875354D01*
X158758924Y-115875354D02*
X158739876Y-116027735D01*
X158739876Y-116027735D02*
X158773209Y-116294402D01*
X158773209Y-116294402D02*
X158830352Y-116446783D01*
X158830352Y-116446783D02*
X158916066Y-116522973D01*
X158916066Y-116522973D02*
X158997019Y-116561068D01*
X160001780Y-115761068D02*
X159544638Y-115761068D01*
X159773209Y-115761068D02*
X159873209Y-116561068D01*
X159873209Y-116561068D02*
X159782733Y-116446783D01*
X159782733Y-116446783D02*
X159697019Y-116370592D01*
X159697019Y-116370592D02*
X159616066Y-116332497D01*
X160397019Y-116484878D02*
X160439876Y-116522973D01*
X160439876Y-116522973D02*
X160520828Y-116561068D01*
X160520828Y-116561068D02*
X160711304Y-116561068D01*
X160711304Y-116561068D02*
X160782733Y-116522973D01*
X160782733Y-116522973D02*
X160816066Y-116484878D01*
X160816066Y-116484878D02*
X160844638Y-116408687D01*
X160844638Y-116408687D02*
X160835114Y-116332497D01*
X160835114Y-116332497D02*
X160782733Y-116218211D01*
X160782733Y-116218211D02*
X160268447Y-115761068D01*
X160268447Y-115761068D02*
X160763685Y-115761068D01*
X157277972Y-113982973D02*
X157206543Y-114021068D01*
X157206543Y-114021068D02*
X157092257Y-114021068D01*
X157092257Y-114021068D02*
X156973210Y-113982973D01*
X156973210Y-113982973D02*
X156887495Y-113906783D01*
X156887495Y-113906783D02*
X156839876Y-113830592D01*
X156839876Y-113830592D02*
X156782733Y-113678211D01*
X156782733Y-113678211D02*
X156768448Y-113563925D01*
X156768448Y-113563925D02*
X156787495Y-113411544D01*
X156787495Y-113411544D02*
X156816067Y-113335354D01*
X156816067Y-113335354D02*
X156882733Y-113259164D01*
X156882733Y-113259164D02*
X156992257Y-113221068D01*
X156992257Y-113221068D02*
X157068448Y-113221068D01*
X157068448Y-113221068D02*
X157187495Y-113259164D01*
X157187495Y-113259164D02*
X157230352Y-113297259D01*
X157230352Y-113297259D02*
X157263686Y-113563925D01*
X157263686Y-113563925D02*
X157111305Y-113563925D01*
X157563686Y-113221068D02*
X157663686Y-114021068D01*
X157663686Y-114021068D02*
X157968448Y-114021068D01*
X157968448Y-114021068D02*
X158039876Y-113982973D01*
X158039876Y-113982973D02*
X158073210Y-113944878D01*
X158073210Y-113944878D02*
X158101781Y-113868687D01*
X158101781Y-113868687D02*
X158087495Y-113754402D01*
X158087495Y-113754402D02*
X158039876Y-113678211D01*
X158039876Y-113678211D02*
X157997019Y-113640116D01*
X157997019Y-113640116D02*
X157916067Y-113602021D01*
X157916067Y-113602021D02*
X157611305Y-113602021D01*
X158363686Y-113221068D02*
X158463686Y-114021068D01*
X158997019Y-114021068D02*
X159149400Y-114021068D01*
X159149400Y-114021068D02*
X159220828Y-113982973D01*
X159220828Y-113982973D02*
X159287495Y-113906783D01*
X159287495Y-113906783D02*
X159306543Y-113754402D01*
X159306543Y-113754402D02*
X159273209Y-113487735D01*
X159273209Y-113487735D02*
X159216066Y-113335354D01*
X159216066Y-113335354D02*
X159130352Y-113259164D01*
X159130352Y-113259164D02*
X159049400Y-113221068D01*
X159049400Y-113221068D02*
X158897019Y-113221068D01*
X158897019Y-113221068D02*
X158825590Y-113259164D01*
X158825590Y-113259164D02*
X158758924Y-113335354D01*
X158758924Y-113335354D02*
X158739876Y-113487735D01*
X158739876Y-113487735D02*
X158773209Y-113754402D01*
X158773209Y-113754402D02*
X158830352Y-113906783D01*
X158830352Y-113906783D02*
X158916066Y-113982973D01*
X158916066Y-113982973D02*
X158997019Y-114021068D01*
X160001780Y-113221068D02*
X159544638Y-113221068D01*
X159773209Y-113221068D02*
X159873209Y-114021068D01*
X159873209Y-114021068D02*
X159782733Y-113906783D01*
X159782733Y-113906783D02*
X159697019Y-113830592D01*
X159697019Y-113830592D02*
X159616066Y-113792497D01*
X160368447Y-114021068D02*
X160863685Y-114021068D01*
X160863685Y-114021068D02*
X160558924Y-113716306D01*
X160558924Y-113716306D02*
X160673209Y-113716306D01*
X160673209Y-113716306D02*
X160744638Y-113678211D01*
X160744638Y-113678211D02*
X160777971Y-113640116D01*
X160777971Y-113640116D02*
X160806543Y-113563925D01*
X160806543Y-113563925D02*
X160782733Y-113373449D01*
X160782733Y-113373449D02*
X160735114Y-113297259D01*
X160735114Y-113297259D02*
X160692257Y-113259164D01*
X160692257Y-113259164D02*
X160611304Y-113221068D01*
X160611304Y-113221068D02*
X160382733Y-113221068D01*
X160382733Y-113221068D02*
X160311304Y-113259164D01*
X160311304Y-113259164D02*
X160277971Y-113297259D01*
X159246353Y-149542973D02*
X159174924Y-149581068D01*
X159174924Y-149581068D02*
X159060638Y-149581068D01*
X159060638Y-149581068D02*
X158941591Y-149542973D01*
X158941591Y-149542973D02*
X158855876Y-149466783D01*
X158855876Y-149466783D02*
X158808257Y-149390592D01*
X158808257Y-149390592D02*
X158751114Y-149238211D01*
X158751114Y-149238211D02*
X158736829Y-149123925D01*
X158736829Y-149123925D02*
X158755876Y-148971544D01*
X158755876Y-148971544D02*
X158784448Y-148895354D01*
X158784448Y-148895354D02*
X158851114Y-148819164D01*
X158851114Y-148819164D02*
X158960638Y-148781068D01*
X158960638Y-148781068D02*
X159036829Y-148781068D01*
X159036829Y-148781068D02*
X159155876Y-148819164D01*
X159155876Y-148819164D02*
X159198733Y-148857259D01*
X159198733Y-148857259D02*
X159232067Y-149123925D01*
X159232067Y-149123925D02*
X159079686Y-149123925D01*
X159532067Y-148781068D02*
X159632067Y-149581068D01*
X159632067Y-149581068D02*
X159989210Y-148781068D01*
X159989210Y-148781068D02*
X160089210Y-149581068D01*
X160370162Y-148781068D02*
X160470162Y-149581068D01*
X160470162Y-149581068D02*
X160660638Y-149581068D01*
X160660638Y-149581068D02*
X160770162Y-149542973D01*
X160770162Y-149542973D02*
X160836828Y-149466783D01*
X160836828Y-149466783D02*
X160865400Y-149390592D01*
X160865400Y-149390592D02*
X160884448Y-149238211D01*
X160884448Y-149238211D02*
X160870162Y-149123925D01*
X160870162Y-149123925D02*
X160813019Y-148971544D01*
X160813019Y-148971544D02*
X160765400Y-148895354D01*
X160765400Y-148895354D02*
X160679686Y-148819164D01*
X160679686Y-148819164D02*
X160560638Y-148781068D01*
X160560638Y-148781068D02*
X160370162Y-148781068D01*
X157277972Y-121602973D02*
X157206543Y-121641068D01*
X157206543Y-121641068D02*
X157092257Y-121641068D01*
X157092257Y-121641068D02*
X156973210Y-121602973D01*
X156973210Y-121602973D02*
X156887495Y-121526783D01*
X156887495Y-121526783D02*
X156839876Y-121450592D01*
X156839876Y-121450592D02*
X156782733Y-121298211D01*
X156782733Y-121298211D02*
X156768448Y-121183925D01*
X156768448Y-121183925D02*
X156787495Y-121031544D01*
X156787495Y-121031544D02*
X156816067Y-120955354D01*
X156816067Y-120955354D02*
X156882733Y-120879164D01*
X156882733Y-120879164D02*
X156992257Y-120841068D01*
X156992257Y-120841068D02*
X157068448Y-120841068D01*
X157068448Y-120841068D02*
X157187495Y-120879164D01*
X157187495Y-120879164D02*
X157230352Y-120917259D01*
X157230352Y-120917259D02*
X157263686Y-121183925D01*
X157263686Y-121183925D02*
X157111305Y-121183925D01*
X157563686Y-120841068D02*
X157663686Y-121641068D01*
X157663686Y-121641068D02*
X157968448Y-121641068D01*
X157968448Y-121641068D02*
X158039876Y-121602973D01*
X158039876Y-121602973D02*
X158073210Y-121564878D01*
X158073210Y-121564878D02*
X158101781Y-121488687D01*
X158101781Y-121488687D02*
X158087495Y-121374402D01*
X158087495Y-121374402D02*
X158039876Y-121298211D01*
X158039876Y-121298211D02*
X157997019Y-121260116D01*
X157997019Y-121260116D02*
X157916067Y-121222021D01*
X157916067Y-121222021D02*
X157611305Y-121222021D01*
X158363686Y-120841068D02*
X158463686Y-121641068D01*
X158997019Y-121641068D02*
X159149400Y-121641068D01*
X159149400Y-121641068D02*
X159220828Y-121602973D01*
X159220828Y-121602973D02*
X159287495Y-121526783D01*
X159287495Y-121526783D02*
X159306543Y-121374402D01*
X159306543Y-121374402D02*
X159273209Y-121107735D01*
X159273209Y-121107735D02*
X159216066Y-120955354D01*
X159216066Y-120955354D02*
X159130352Y-120879164D01*
X159130352Y-120879164D02*
X159049400Y-120841068D01*
X159049400Y-120841068D02*
X158897019Y-120841068D01*
X158897019Y-120841068D02*
X158825590Y-120879164D01*
X158825590Y-120879164D02*
X158758924Y-120955354D01*
X158758924Y-120955354D02*
X158739876Y-121107735D01*
X158739876Y-121107735D02*
X158773209Y-121374402D01*
X158773209Y-121374402D02*
X158830352Y-121526783D01*
X158830352Y-121526783D02*
X158916066Y-121602973D01*
X158916066Y-121602973D02*
X158997019Y-121641068D01*
X160001780Y-120841068D02*
X159544638Y-120841068D01*
X159773209Y-120841068D02*
X159873209Y-121641068D01*
X159873209Y-121641068D02*
X159782733Y-121526783D01*
X159782733Y-121526783D02*
X159697019Y-121450592D01*
X159697019Y-121450592D02*
X159616066Y-121412497D01*
X160597019Y-121641068D02*
X160673209Y-121641068D01*
X160673209Y-121641068D02*
X160744638Y-121602973D01*
X160744638Y-121602973D02*
X160777971Y-121564878D01*
X160777971Y-121564878D02*
X160806543Y-121488687D01*
X160806543Y-121488687D02*
X160825590Y-121336306D01*
X160825590Y-121336306D02*
X160801781Y-121145830D01*
X160801781Y-121145830D02*
X160744638Y-120993449D01*
X160744638Y-120993449D02*
X160697019Y-120917259D01*
X160697019Y-120917259D02*
X160654162Y-120879164D01*
X160654162Y-120879164D02*
X160573209Y-120841068D01*
X160573209Y-120841068D02*
X160497019Y-120841068D01*
X160497019Y-120841068D02*
X160425590Y-120879164D01*
X160425590Y-120879164D02*
X160392257Y-120917259D01*
X160392257Y-120917259D02*
X160363685Y-120993449D01*
X160363685Y-120993449D02*
X160344638Y-121145830D01*
X160344638Y-121145830D02*
X160368447Y-121336306D01*
X160368447Y-121336306D02*
X160425590Y-121488687D01*
X160425590Y-121488687D02*
X160473209Y-121564878D01*
X160473209Y-121564878D02*
X160516066Y-121602973D01*
X160516066Y-121602973D02*
X160597019Y-121641068D01*
X146101972Y-131762973D02*
X146030543Y-131801068D01*
X146030543Y-131801068D02*
X145916257Y-131801068D01*
X145916257Y-131801068D02*
X145797210Y-131762973D01*
X145797210Y-131762973D02*
X145711495Y-131686783D01*
X145711495Y-131686783D02*
X145663876Y-131610592D01*
X145663876Y-131610592D02*
X145606733Y-131458211D01*
X145606733Y-131458211D02*
X145592448Y-131343925D01*
X145592448Y-131343925D02*
X145611495Y-131191544D01*
X145611495Y-131191544D02*
X145640067Y-131115354D01*
X145640067Y-131115354D02*
X145706733Y-131039164D01*
X145706733Y-131039164D02*
X145816257Y-131001068D01*
X145816257Y-131001068D02*
X145892448Y-131001068D01*
X145892448Y-131001068D02*
X146011495Y-131039164D01*
X146011495Y-131039164D02*
X146054352Y-131077259D01*
X146054352Y-131077259D02*
X146087686Y-131343925D01*
X146087686Y-131343925D02*
X145935305Y-131343925D01*
X146387686Y-131001068D02*
X146487686Y-131801068D01*
X146487686Y-131801068D02*
X146792448Y-131801068D01*
X146792448Y-131801068D02*
X146863876Y-131762973D01*
X146863876Y-131762973D02*
X146897210Y-131724878D01*
X146897210Y-131724878D02*
X146925781Y-131648687D01*
X146925781Y-131648687D02*
X146911495Y-131534402D01*
X146911495Y-131534402D02*
X146863876Y-131458211D01*
X146863876Y-131458211D02*
X146821019Y-131420116D01*
X146821019Y-131420116D02*
X146740067Y-131382021D01*
X146740067Y-131382021D02*
X146435305Y-131382021D01*
X147187686Y-131001068D02*
X147287686Y-131801068D01*
X147821019Y-131801068D02*
X147973400Y-131801068D01*
X147973400Y-131801068D02*
X148044828Y-131762973D01*
X148044828Y-131762973D02*
X148111495Y-131686783D01*
X148111495Y-131686783D02*
X148130543Y-131534402D01*
X148130543Y-131534402D02*
X148097209Y-131267735D01*
X148097209Y-131267735D02*
X148040066Y-131115354D01*
X148040066Y-131115354D02*
X147954352Y-131039164D01*
X147954352Y-131039164D02*
X147873400Y-131001068D01*
X147873400Y-131001068D02*
X147721019Y-131001068D01*
X147721019Y-131001068D02*
X147649590Y-131039164D01*
X147649590Y-131039164D02*
X147582924Y-131115354D01*
X147582924Y-131115354D02*
X147563876Y-131267735D01*
X147563876Y-131267735D02*
X147597209Y-131534402D01*
X147597209Y-131534402D02*
X147654352Y-131686783D01*
X147654352Y-131686783D02*
X147740066Y-131762973D01*
X147740066Y-131762973D02*
X147821019Y-131801068D01*
X148459114Y-131724878D02*
X148501971Y-131762973D01*
X148501971Y-131762973D02*
X148582923Y-131801068D01*
X148582923Y-131801068D02*
X148773399Y-131801068D01*
X148773399Y-131801068D02*
X148844828Y-131762973D01*
X148844828Y-131762973D02*
X148878161Y-131724878D01*
X148878161Y-131724878D02*
X148906733Y-131648687D01*
X148906733Y-131648687D02*
X148897209Y-131572497D01*
X148897209Y-131572497D02*
X148844828Y-131458211D01*
X148844828Y-131458211D02*
X148330542Y-131001068D01*
X148330542Y-131001068D02*
X148825780Y-131001068D01*
X149611495Y-131801068D02*
X149459114Y-131801068D01*
X149459114Y-131801068D02*
X149378162Y-131762973D01*
X149378162Y-131762973D02*
X149335304Y-131724878D01*
X149335304Y-131724878D02*
X149244828Y-131610592D01*
X149244828Y-131610592D02*
X149187685Y-131458211D01*
X149187685Y-131458211D02*
X149149590Y-131153449D01*
X149149590Y-131153449D02*
X149178162Y-131077259D01*
X149178162Y-131077259D02*
X149211495Y-131039164D01*
X149211495Y-131039164D02*
X149282924Y-131001068D01*
X149282924Y-131001068D02*
X149435304Y-131001068D01*
X149435304Y-131001068D02*
X149516257Y-131039164D01*
X149516257Y-131039164D02*
X149559114Y-131077259D01*
X149559114Y-131077259D02*
X149606733Y-131153449D01*
X149606733Y-131153449D02*
X149630543Y-131343925D01*
X149630543Y-131343925D02*
X149601971Y-131420116D01*
X149601971Y-131420116D02*
X149568638Y-131458211D01*
X149568638Y-131458211D02*
X149497209Y-131496306D01*
X149497209Y-131496306D02*
X149344828Y-131496306D01*
X149344828Y-131496306D02*
X149263876Y-131458211D01*
X149263876Y-131458211D02*
X149221019Y-131420116D01*
X149221019Y-131420116D02*
X149173400Y-131343925D01*
X155250200Y-111582888D02*
X155212104Y-111473364D01*
X155212104Y-111473364D02*
X155212104Y-111282888D01*
X155212104Y-111282888D02*
X155250200Y-111201935D01*
X155250200Y-111201935D02*
X155288295Y-111159078D01*
X155288295Y-111159078D02*
X155364485Y-111111459D01*
X155364485Y-111111459D02*
X155440676Y-111101935D01*
X155440676Y-111101935D02*
X155516866Y-111130507D01*
X155516866Y-111130507D02*
X155554961Y-111163840D01*
X155554961Y-111163840D02*
X155593057Y-111235269D01*
X155593057Y-111235269D02*
X155631152Y-111382888D01*
X155631152Y-111382888D02*
X155669247Y-111454316D01*
X155669247Y-111454316D02*
X155707342Y-111487649D01*
X155707342Y-111487649D02*
X155783533Y-111516221D01*
X155783533Y-111516221D02*
X155859723Y-111506697D01*
X155859723Y-111506697D02*
X155935914Y-111459078D01*
X155935914Y-111459078D02*
X155974009Y-111416221D01*
X155974009Y-111416221D02*
X156012104Y-111335269D01*
X156012104Y-111335269D02*
X156012104Y-111144792D01*
X156012104Y-111144792D02*
X155974009Y-111035269D01*
X156012104Y-110763840D02*
X155212104Y-110673364D01*
X155212104Y-110673364D02*
X155783533Y-110449554D01*
X155783533Y-110449554D02*
X155212104Y-110368602D01*
X155212104Y-110368602D02*
X156012104Y-110078125D01*
X155288295Y-109406697D02*
X155250200Y-109449554D01*
X155250200Y-109449554D02*
X155212104Y-109568601D01*
X155212104Y-109568601D02*
X155212104Y-109644792D01*
X155212104Y-109644792D02*
X155250200Y-109754316D01*
X155250200Y-109754316D02*
X155326390Y-109820982D01*
X155326390Y-109820982D02*
X155402580Y-109849554D01*
X155402580Y-109849554D02*
X155554961Y-109868601D01*
X155554961Y-109868601D02*
X155669247Y-109854316D01*
X155669247Y-109854316D02*
X155821628Y-109797173D01*
X155821628Y-109797173D02*
X155897819Y-109749554D01*
X155897819Y-109749554D02*
X155974009Y-109663839D01*
X155974009Y-109663839D02*
X156012104Y-109544792D01*
X156012104Y-109544792D02*
X156012104Y-109468601D01*
X156012104Y-109468601D02*
X155974009Y-109359078D01*
X155974009Y-109359078D02*
X155935914Y-109325744D01*
X155212104Y-108692411D02*
X155212104Y-109073363D01*
X155212104Y-109073363D02*
X156012104Y-108973363D01*
X155212104Y-108425744D02*
X156012104Y-108325744D01*
X155212104Y-107968601D02*
X155669247Y-108254316D01*
X156012104Y-107868601D02*
X155554961Y-108382887D01*
X158039924Y-134302973D02*
X157968495Y-134341068D01*
X157968495Y-134341068D02*
X157854209Y-134341068D01*
X157854209Y-134341068D02*
X157735162Y-134302973D01*
X157735162Y-134302973D02*
X157649447Y-134226783D01*
X157649447Y-134226783D02*
X157601828Y-134150592D01*
X157601828Y-134150592D02*
X157544685Y-133998211D01*
X157544685Y-133998211D02*
X157530400Y-133883925D01*
X157530400Y-133883925D02*
X157549447Y-133731544D01*
X157549447Y-133731544D02*
X157578019Y-133655354D01*
X157578019Y-133655354D02*
X157644685Y-133579164D01*
X157644685Y-133579164D02*
X157754209Y-133541068D01*
X157754209Y-133541068D02*
X157830400Y-133541068D01*
X157830400Y-133541068D02*
X157949447Y-133579164D01*
X157949447Y-133579164D02*
X157992304Y-133617259D01*
X157992304Y-133617259D02*
X158025638Y-133883925D01*
X158025638Y-133883925D02*
X157873257Y-133883925D01*
X158325638Y-133541068D02*
X158425638Y-134341068D01*
X158425638Y-134341068D02*
X158730400Y-134341068D01*
X158730400Y-134341068D02*
X158801828Y-134302973D01*
X158801828Y-134302973D02*
X158835162Y-134264878D01*
X158835162Y-134264878D02*
X158863733Y-134188687D01*
X158863733Y-134188687D02*
X158849447Y-134074402D01*
X158849447Y-134074402D02*
X158801828Y-133998211D01*
X158801828Y-133998211D02*
X158758971Y-133960116D01*
X158758971Y-133960116D02*
X158678019Y-133922021D01*
X158678019Y-133922021D02*
X158373257Y-133922021D01*
X159125638Y-133541068D02*
X159225638Y-134341068D01*
X159758971Y-134341068D02*
X159911352Y-134341068D01*
X159911352Y-134341068D02*
X159982780Y-134302973D01*
X159982780Y-134302973D02*
X160049447Y-134226783D01*
X160049447Y-134226783D02*
X160068495Y-134074402D01*
X160068495Y-134074402D02*
X160035161Y-133807735D01*
X160035161Y-133807735D02*
X159978018Y-133655354D01*
X159978018Y-133655354D02*
X159892304Y-133579164D01*
X159892304Y-133579164D02*
X159811352Y-133541068D01*
X159811352Y-133541068D02*
X159658971Y-133541068D01*
X159658971Y-133541068D02*
X159587542Y-133579164D01*
X159587542Y-133579164D02*
X159520876Y-133655354D01*
X159520876Y-133655354D02*
X159501828Y-133807735D01*
X159501828Y-133807735D02*
X159535161Y-134074402D01*
X159535161Y-134074402D02*
X159592304Y-134226783D01*
X159592304Y-134226783D02*
X159678018Y-134302973D01*
X159678018Y-134302973D02*
X159758971Y-134341068D01*
X160787542Y-134341068D02*
X160635161Y-134341068D01*
X160635161Y-134341068D02*
X160554209Y-134302973D01*
X160554209Y-134302973D02*
X160511351Y-134264878D01*
X160511351Y-134264878D02*
X160420875Y-134150592D01*
X160420875Y-134150592D02*
X160363732Y-133998211D01*
X160363732Y-133998211D02*
X160325637Y-133693449D01*
X160325637Y-133693449D02*
X160354209Y-133617259D01*
X160354209Y-133617259D02*
X160387542Y-133579164D01*
X160387542Y-133579164D02*
X160458971Y-133541068D01*
X160458971Y-133541068D02*
X160611351Y-133541068D01*
X160611351Y-133541068D02*
X160692304Y-133579164D01*
X160692304Y-133579164D02*
X160735161Y-133617259D01*
X160735161Y-133617259D02*
X160782780Y-133693449D01*
X160782780Y-133693449D02*
X160806590Y-133883925D01*
X160806590Y-133883925D02*
X160778018Y-133960116D01*
X160778018Y-133960116D02*
X160744685Y-133998211D01*
X160744685Y-133998211D02*
X160673256Y-134036306D01*
X160673256Y-134036306D02*
X160520875Y-134036306D01*
X160520875Y-134036306D02*
X160439923Y-133998211D01*
X160439923Y-133998211D02*
X160397066Y-133960116D01*
X160397066Y-133960116D02*
X160349447Y-133883925D01*
X157404972Y-106362973D02*
X157333543Y-106401068D01*
X157333543Y-106401068D02*
X157219257Y-106401068D01*
X157219257Y-106401068D02*
X157100210Y-106362973D01*
X157100210Y-106362973D02*
X157014495Y-106286783D01*
X157014495Y-106286783D02*
X156966876Y-106210592D01*
X156966876Y-106210592D02*
X156909733Y-106058211D01*
X156909733Y-106058211D02*
X156895448Y-105943925D01*
X156895448Y-105943925D02*
X156914495Y-105791544D01*
X156914495Y-105791544D02*
X156943067Y-105715354D01*
X156943067Y-105715354D02*
X157009733Y-105639164D01*
X157009733Y-105639164D02*
X157119257Y-105601068D01*
X157119257Y-105601068D02*
X157195448Y-105601068D01*
X157195448Y-105601068D02*
X157314495Y-105639164D01*
X157314495Y-105639164D02*
X157357352Y-105677259D01*
X157357352Y-105677259D02*
X157390686Y-105943925D01*
X157390686Y-105943925D02*
X157238305Y-105943925D01*
X157690686Y-105601068D02*
X157790686Y-106401068D01*
X157790686Y-106401068D02*
X158095448Y-106401068D01*
X158095448Y-106401068D02*
X158166876Y-106362973D01*
X158166876Y-106362973D02*
X158200210Y-106324878D01*
X158200210Y-106324878D02*
X158228781Y-106248687D01*
X158228781Y-106248687D02*
X158214495Y-106134402D01*
X158214495Y-106134402D02*
X158166876Y-106058211D01*
X158166876Y-106058211D02*
X158124019Y-106020116D01*
X158124019Y-106020116D02*
X158043067Y-105982021D01*
X158043067Y-105982021D02*
X157738305Y-105982021D01*
X158490686Y-105601068D02*
X158590686Y-106401068D01*
X159124019Y-106401068D02*
X159276400Y-106401068D01*
X159276400Y-106401068D02*
X159347828Y-106362973D01*
X159347828Y-106362973D02*
X159414495Y-106286783D01*
X159414495Y-106286783D02*
X159433543Y-106134402D01*
X159433543Y-106134402D02*
X159400209Y-105867735D01*
X159400209Y-105867735D02*
X159343066Y-105715354D01*
X159343066Y-105715354D02*
X159257352Y-105639164D01*
X159257352Y-105639164D02*
X159176400Y-105601068D01*
X159176400Y-105601068D02*
X159024019Y-105601068D01*
X159024019Y-105601068D02*
X158952590Y-105639164D01*
X158952590Y-105639164D02*
X158885924Y-105715354D01*
X158885924Y-105715354D02*
X158866876Y-105867735D01*
X158866876Y-105867735D02*
X158900209Y-106134402D01*
X158900209Y-106134402D02*
X158957352Y-106286783D01*
X158957352Y-106286783D02*
X159043066Y-106362973D01*
X159043066Y-106362973D02*
X159124019Y-106401068D01*
X160128780Y-105601068D02*
X159671638Y-105601068D01*
X159900209Y-105601068D02*
X160000209Y-106401068D01*
X160000209Y-106401068D02*
X159909733Y-106286783D01*
X159909733Y-106286783D02*
X159824019Y-106210592D01*
X159824019Y-106210592D02*
X159743066Y-106172497D01*
X160952590Y-106401068D02*
X160571638Y-106401068D01*
X160571638Y-106401068D02*
X160485924Y-106020116D01*
X160485924Y-106020116D02*
X160528781Y-106058211D01*
X160528781Y-106058211D02*
X160609733Y-106096306D01*
X160609733Y-106096306D02*
X160800209Y-106096306D01*
X160800209Y-106096306D02*
X160871638Y-106058211D01*
X160871638Y-106058211D02*
X160904971Y-106020116D01*
X160904971Y-106020116D02*
X160933543Y-105943925D01*
X160933543Y-105943925D02*
X160909733Y-105753449D01*
X160909733Y-105753449D02*
X160862114Y-105677259D01*
X160862114Y-105677259D02*
X160819257Y-105639164D01*
X160819257Y-105639164D02*
X160738304Y-105601068D01*
X160738304Y-105601068D02*
X160547828Y-105601068D01*
X160547828Y-105601068D02*
X160476400Y-105639164D01*
X160476400Y-105639164D02*
X160443066Y-105677259D01*
X146101972Y-116522973D02*
X146030543Y-116561068D01*
X146030543Y-116561068D02*
X145916257Y-116561068D01*
X145916257Y-116561068D02*
X145797210Y-116522973D01*
X145797210Y-116522973D02*
X145711495Y-116446783D01*
X145711495Y-116446783D02*
X145663876Y-116370592D01*
X145663876Y-116370592D02*
X145606733Y-116218211D01*
X145606733Y-116218211D02*
X145592448Y-116103925D01*
X145592448Y-116103925D02*
X145611495Y-115951544D01*
X145611495Y-115951544D02*
X145640067Y-115875354D01*
X145640067Y-115875354D02*
X145706733Y-115799164D01*
X145706733Y-115799164D02*
X145816257Y-115761068D01*
X145816257Y-115761068D02*
X145892448Y-115761068D01*
X145892448Y-115761068D02*
X146011495Y-115799164D01*
X146011495Y-115799164D02*
X146054352Y-115837259D01*
X146054352Y-115837259D02*
X146087686Y-116103925D01*
X146087686Y-116103925D02*
X145935305Y-116103925D01*
X146387686Y-115761068D02*
X146487686Y-116561068D01*
X146487686Y-116561068D02*
X146792448Y-116561068D01*
X146792448Y-116561068D02*
X146863876Y-116522973D01*
X146863876Y-116522973D02*
X146897210Y-116484878D01*
X146897210Y-116484878D02*
X146925781Y-116408687D01*
X146925781Y-116408687D02*
X146911495Y-116294402D01*
X146911495Y-116294402D02*
X146863876Y-116218211D01*
X146863876Y-116218211D02*
X146821019Y-116180116D01*
X146821019Y-116180116D02*
X146740067Y-116142021D01*
X146740067Y-116142021D02*
X146435305Y-116142021D01*
X147187686Y-115761068D02*
X147287686Y-116561068D01*
X147821019Y-116561068D02*
X147973400Y-116561068D01*
X147973400Y-116561068D02*
X148044828Y-116522973D01*
X148044828Y-116522973D02*
X148111495Y-116446783D01*
X148111495Y-116446783D02*
X148130543Y-116294402D01*
X148130543Y-116294402D02*
X148097209Y-116027735D01*
X148097209Y-116027735D02*
X148040066Y-115875354D01*
X148040066Y-115875354D02*
X147954352Y-115799164D01*
X147954352Y-115799164D02*
X147873400Y-115761068D01*
X147873400Y-115761068D02*
X147721019Y-115761068D01*
X147721019Y-115761068D02*
X147649590Y-115799164D01*
X147649590Y-115799164D02*
X147582924Y-115875354D01*
X147582924Y-115875354D02*
X147563876Y-116027735D01*
X147563876Y-116027735D02*
X147597209Y-116294402D01*
X147597209Y-116294402D02*
X147654352Y-116446783D01*
X147654352Y-116446783D02*
X147740066Y-116522973D01*
X147740066Y-116522973D02*
X147821019Y-116561068D01*
X148825780Y-115761068D02*
X148368638Y-115761068D01*
X148597209Y-115761068D02*
X148697209Y-116561068D01*
X148697209Y-116561068D02*
X148606733Y-116446783D01*
X148606733Y-116446783D02*
X148521019Y-116370592D01*
X148521019Y-116370592D02*
X148440066Y-116332497D01*
X149206733Y-115761068D02*
X149359114Y-115761068D01*
X149359114Y-115761068D02*
X149440066Y-115799164D01*
X149440066Y-115799164D02*
X149482924Y-115837259D01*
X149482924Y-115837259D02*
X149573400Y-115951544D01*
X149573400Y-115951544D02*
X149630543Y-116103925D01*
X149630543Y-116103925D02*
X149668638Y-116408687D01*
X149668638Y-116408687D02*
X149640066Y-116484878D01*
X149640066Y-116484878D02*
X149606733Y-116522973D01*
X149606733Y-116522973D02*
X149535304Y-116561068D01*
X149535304Y-116561068D02*
X149382924Y-116561068D01*
X149382924Y-116561068D02*
X149301971Y-116522973D01*
X149301971Y-116522973D02*
X149259114Y-116484878D01*
X149259114Y-116484878D02*
X149211495Y-116408687D01*
X149211495Y-116408687D02*
X149187685Y-116218211D01*
X149187685Y-116218211D02*
X149216257Y-116142021D01*
X149216257Y-116142021D02*
X149249590Y-116103925D01*
X149249590Y-116103925D02*
X149321019Y-116065830D01*
X149321019Y-116065830D02*
X149473400Y-116065830D01*
X149473400Y-116065830D02*
X149554352Y-116103925D01*
X149554352Y-116103925D02*
X149597209Y-116142021D01*
X149597209Y-116142021D02*
X149644828Y-116218211D01*
X150297200Y-109843078D02*
X150259104Y-109733554D01*
X150259104Y-109733554D02*
X150259104Y-109543078D01*
X150259104Y-109543078D02*
X150297200Y-109462125D01*
X150297200Y-109462125D02*
X150335295Y-109419268D01*
X150335295Y-109419268D02*
X150411485Y-109371649D01*
X150411485Y-109371649D02*
X150487676Y-109362125D01*
X150487676Y-109362125D02*
X150563866Y-109390697D01*
X150563866Y-109390697D02*
X150601961Y-109424030D01*
X150601961Y-109424030D02*
X150640057Y-109495459D01*
X150640057Y-109495459D02*
X150678152Y-109643078D01*
X150678152Y-109643078D02*
X150716247Y-109714506D01*
X150716247Y-109714506D02*
X150754342Y-109747839D01*
X150754342Y-109747839D02*
X150830533Y-109776411D01*
X150830533Y-109776411D02*
X150906723Y-109766887D01*
X150906723Y-109766887D02*
X150982914Y-109719268D01*
X150982914Y-109719268D02*
X151021009Y-109676411D01*
X151021009Y-109676411D02*
X151059104Y-109595459D01*
X151059104Y-109595459D02*
X151059104Y-109404982D01*
X151059104Y-109404982D02*
X151021009Y-109295459D01*
X151059104Y-109024030D02*
X150259104Y-108933554D01*
X150259104Y-108933554D02*
X150830533Y-108709744D01*
X150830533Y-108709744D02*
X150259104Y-108628792D01*
X150259104Y-108628792D02*
X151059104Y-108338315D01*
X150259104Y-108133553D02*
X151059104Y-108033553D01*
X151059104Y-108033553D02*
X151059104Y-107843077D01*
X151059104Y-107843077D02*
X151021009Y-107733553D01*
X151021009Y-107733553D02*
X150944819Y-107666887D01*
X150944819Y-107666887D02*
X150868628Y-107638315D01*
X150868628Y-107638315D02*
X150716247Y-107619268D01*
X150716247Y-107619268D02*
X150601961Y-107633553D01*
X150601961Y-107633553D02*
X150449580Y-107690696D01*
X150449580Y-107690696D02*
X150373390Y-107738315D01*
X150373390Y-107738315D02*
X150297200Y-107824029D01*
X150297200Y-107824029D02*
X150259104Y-107943077D01*
X150259104Y-107943077D02*
X150259104Y-108133553D01*
X146101972Y-119062973D02*
X146030543Y-119101068D01*
X146030543Y-119101068D02*
X145916257Y-119101068D01*
X145916257Y-119101068D02*
X145797210Y-119062973D01*
X145797210Y-119062973D02*
X145711495Y-118986783D01*
X145711495Y-118986783D02*
X145663876Y-118910592D01*
X145663876Y-118910592D02*
X145606733Y-118758211D01*
X145606733Y-118758211D02*
X145592448Y-118643925D01*
X145592448Y-118643925D02*
X145611495Y-118491544D01*
X145611495Y-118491544D02*
X145640067Y-118415354D01*
X145640067Y-118415354D02*
X145706733Y-118339164D01*
X145706733Y-118339164D02*
X145816257Y-118301068D01*
X145816257Y-118301068D02*
X145892448Y-118301068D01*
X145892448Y-118301068D02*
X146011495Y-118339164D01*
X146011495Y-118339164D02*
X146054352Y-118377259D01*
X146054352Y-118377259D02*
X146087686Y-118643925D01*
X146087686Y-118643925D02*
X145935305Y-118643925D01*
X146387686Y-118301068D02*
X146487686Y-119101068D01*
X146487686Y-119101068D02*
X146792448Y-119101068D01*
X146792448Y-119101068D02*
X146863876Y-119062973D01*
X146863876Y-119062973D02*
X146897210Y-119024878D01*
X146897210Y-119024878D02*
X146925781Y-118948687D01*
X146925781Y-118948687D02*
X146911495Y-118834402D01*
X146911495Y-118834402D02*
X146863876Y-118758211D01*
X146863876Y-118758211D02*
X146821019Y-118720116D01*
X146821019Y-118720116D02*
X146740067Y-118682021D01*
X146740067Y-118682021D02*
X146435305Y-118682021D01*
X147187686Y-118301068D02*
X147287686Y-119101068D01*
X147821019Y-119101068D02*
X147973400Y-119101068D01*
X147973400Y-119101068D02*
X148044828Y-119062973D01*
X148044828Y-119062973D02*
X148111495Y-118986783D01*
X148111495Y-118986783D02*
X148130543Y-118834402D01*
X148130543Y-118834402D02*
X148097209Y-118567735D01*
X148097209Y-118567735D02*
X148040066Y-118415354D01*
X148040066Y-118415354D02*
X147954352Y-118339164D01*
X147954352Y-118339164D02*
X147873400Y-118301068D01*
X147873400Y-118301068D02*
X147721019Y-118301068D01*
X147721019Y-118301068D02*
X147649590Y-118339164D01*
X147649590Y-118339164D02*
X147582924Y-118415354D01*
X147582924Y-118415354D02*
X147563876Y-118567735D01*
X147563876Y-118567735D02*
X147597209Y-118834402D01*
X147597209Y-118834402D02*
X147654352Y-118986783D01*
X147654352Y-118986783D02*
X147740066Y-119062973D01*
X147740066Y-119062973D02*
X147821019Y-119101068D01*
X148459114Y-119024878D02*
X148501971Y-119062973D01*
X148501971Y-119062973D02*
X148582923Y-119101068D01*
X148582923Y-119101068D02*
X148773399Y-119101068D01*
X148773399Y-119101068D02*
X148844828Y-119062973D01*
X148844828Y-119062973D02*
X148878161Y-119024878D01*
X148878161Y-119024878D02*
X148906733Y-118948687D01*
X148906733Y-118948687D02*
X148897209Y-118872497D01*
X148897209Y-118872497D02*
X148844828Y-118758211D01*
X148844828Y-118758211D02*
X148330542Y-118301068D01*
X148330542Y-118301068D02*
X148825780Y-118301068D01*
X149421019Y-119101068D02*
X149497209Y-119101068D01*
X149497209Y-119101068D02*
X149568638Y-119062973D01*
X149568638Y-119062973D02*
X149601971Y-119024878D01*
X149601971Y-119024878D02*
X149630543Y-118948687D01*
X149630543Y-118948687D02*
X149649590Y-118796306D01*
X149649590Y-118796306D02*
X149625781Y-118605830D01*
X149625781Y-118605830D02*
X149568638Y-118453449D01*
X149568638Y-118453449D02*
X149521019Y-118377259D01*
X149521019Y-118377259D02*
X149478162Y-118339164D01*
X149478162Y-118339164D02*
X149397209Y-118301068D01*
X149397209Y-118301068D02*
X149321019Y-118301068D01*
X149321019Y-118301068D02*
X149249590Y-118339164D01*
X149249590Y-118339164D02*
X149216257Y-118377259D01*
X149216257Y-118377259D02*
X149187685Y-118453449D01*
X149187685Y-118453449D02*
X149168638Y-118605830D01*
X149168638Y-118605830D02*
X149192447Y-118796306D01*
X149192447Y-118796306D02*
X149249590Y-118948687D01*
X149249590Y-118948687D02*
X149297209Y-119024878D01*
X149297209Y-119024878D02*
X149340066Y-119062973D01*
X149340066Y-119062973D02*
X149421019Y-119101068D01*
X159246353Y-111442973D02*
X159174924Y-111481068D01*
X159174924Y-111481068D02*
X159060638Y-111481068D01*
X159060638Y-111481068D02*
X158941591Y-111442973D01*
X158941591Y-111442973D02*
X158855876Y-111366783D01*
X158855876Y-111366783D02*
X158808257Y-111290592D01*
X158808257Y-111290592D02*
X158751114Y-111138211D01*
X158751114Y-111138211D02*
X158736829Y-111023925D01*
X158736829Y-111023925D02*
X158755876Y-110871544D01*
X158755876Y-110871544D02*
X158784448Y-110795354D01*
X158784448Y-110795354D02*
X158851114Y-110719164D01*
X158851114Y-110719164D02*
X158960638Y-110681068D01*
X158960638Y-110681068D02*
X159036829Y-110681068D01*
X159036829Y-110681068D02*
X159155876Y-110719164D01*
X159155876Y-110719164D02*
X159198733Y-110757259D01*
X159198733Y-110757259D02*
X159232067Y-111023925D01*
X159232067Y-111023925D02*
X159079686Y-111023925D01*
X159532067Y-110681068D02*
X159632067Y-111481068D01*
X159632067Y-111481068D02*
X159989210Y-110681068D01*
X159989210Y-110681068D02*
X160089210Y-111481068D01*
X160370162Y-110681068D02*
X160470162Y-111481068D01*
X160470162Y-111481068D02*
X160660638Y-111481068D01*
X160660638Y-111481068D02*
X160770162Y-111442973D01*
X160770162Y-111442973D02*
X160836828Y-111366783D01*
X160836828Y-111366783D02*
X160865400Y-111290592D01*
X160865400Y-111290592D02*
X160884448Y-111138211D01*
X160884448Y-111138211D02*
X160870162Y-111023925D01*
X160870162Y-111023925D02*
X160813019Y-110871544D01*
X160813019Y-110871544D02*
X160765400Y-110795354D01*
X160765400Y-110795354D02*
X160679686Y-110719164D01*
X160679686Y-110719164D02*
X160560638Y-110681068D01*
X160560638Y-110681068D02*
X160370162Y-110681068D01*
X158166924Y-152082973D02*
X158095495Y-152121068D01*
X158095495Y-152121068D02*
X157981209Y-152121068D01*
X157981209Y-152121068D02*
X157862162Y-152082973D01*
X157862162Y-152082973D02*
X157776447Y-152006783D01*
X157776447Y-152006783D02*
X157728828Y-151930592D01*
X157728828Y-151930592D02*
X157671685Y-151778211D01*
X157671685Y-151778211D02*
X157657400Y-151663925D01*
X157657400Y-151663925D02*
X157676447Y-151511544D01*
X157676447Y-151511544D02*
X157705019Y-151435354D01*
X157705019Y-151435354D02*
X157771685Y-151359164D01*
X157771685Y-151359164D02*
X157881209Y-151321068D01*
X157881209Y-151321068D02*
X157957400Y-151321068D01*
X157957400Y-151321068D02*
X158076447Y-151359164D01*
X158076447Y-151359164D02*
X158119304Y-151397259D01*
X158119304Y-151397259D02*
X158152638Y-151663925D01*
X158152638Y-151663925D02*
X158000257Y-151663925D01*
X158452638Y-151321068D02*
X158552638Y-152121068D01*
X158552638Y-152121068D02*
X158857400Y-152121068D01*
X158857400Y-152121068D02*
X158928828Y-152082973D01*
X158928828Y-152082973D02*
X158962162Y-152044878D01*
X158962162Y-152044878D02*
X158990733Y-151968687D01*
X158990733Y-151968687D02*
X158976447Y-151854402D01*
X158976447Y-151854402D02*
X158928828Y-151778211D01*
X158928828Y-151778211D02*
X158885971Y-151740116D01*
X158885971Y-151740116D02*
X158805019Y-151702021D01*
X158805019Y-151702021D02*
X158500257Y-151702021D01*
X159252638Y-151321068D02*
X159352638Y-152121068D01*
X159885971Y-152121068D02*
X160038352Y-152121068D01*
X160038352Y-152121068D02*
X160109780Y-152082973D01*
X160109780Y-152082973D02*
X160176447Y-152006783D01*
X160176447Y-152006783D02*
X160195495Y-151854402D01*
X160195495Y-151854402D02*
X160162161Y-151587735D01*
X160162161Y-151587735D02*
X160105018Y-151435354D01*
X160105018Y-151435354D02*
X160019304Y-151359164D01*
X160019304Y-151359164D02*
X159938352Y-151321068D01*
X159938352Y-151321068D02*
X159785971Y-151321068D01*
X159785971Y-151321068D02*
X159714542Y-151359164D01*
X159714542Y-151359164D02*
X159647876Y-151435354D01*
X159647876Y-151435354D02*
X159628828Y-151587735D01*
X159628828Y-151587735D02*
X159662161Y-151854402D01*
X159662161Y-151854402D02*
X159719304Y-152006783D01*
X159719304Y-152006783D02*
X159805018Y-152082973D01*
X159805018Y-152082973D02*
X159885971Y-152121068D01*
X160890732Y-151321068D02*
X160433590Y-151321068D01*
X160662161Y-151321068D02*
X160762161Y-152121068D01*
X160762161Y-152121068D02*
X160671685Y-152006783D01*
X160671685Y-152006783D02*
X160585971Y-151930592D01*
X160585971Y-151930592D02*
X160505018Y-151892497D01*
X158039924Y-147002973D02*
X157968495Y-147041068D01*
X157968495Y-147041068D02*
X157854209Y-147041068D01*
X157854209Y-147041068D02*
X157735162Y-147002973D01*
X157735162Y-147002973D02*
X157649447Y-146926783D01*
X157649447Y-146926783D02*
X157601828Y-146850592D01*
X157601828Y-146850592D02*
X157544685Y-146698211D01*
X157544685Y-146698211D02*
X157530400Y-146583925D01*
X157530400Y-146583925D02*
X157549447Y-146431544D01*
X157549447Y-146431544D02*
X157578019Y-146355354D01*
X157578019Y-146355354D02*
X157644685Y-146279164D01*
X157644685Y-146279164D02*
X157754209Y-146241068D01*
X157754209Y-146241068D02*
X157830400Y-146241068D01*
X157830400Y-146241068D02*
X157949447Y-146279164D01*
X157949447Y-146279164D02*
X157992304Y-146317259D01*
X157992304Y-146317259D02*
X158025638Y-146583925D01*
X158025638Y-146583925D02*
X157873257Y-146583925D01*
X158325638Y-146241068D02*
X158425638Y-147041068D01*
X158425638Y-147041068D02*
X158730400Y-147041068D01*
X158730400Y-147041068D02*
X158801828Y-147002973D01*
X158801828Y-147002973D02*
X158835162Y-146964878D01*
X158835162Y-146964878D02*
X158863733Y-146888687D01*
X158863733Y-146888687D02*
X158849447Y-146774402D01*
X158849447Y-146774402D02*
X158801828Y-146698211D01*
X158801828Y-146698211D02*
X158758971Y-146660116D01*
X158758971Y-146660116D02*
X158678019Y-146622021D01*
X158678019Y-146622021D02*
X158373257Y-146622021D01*
X159125638Y-146241068D02*
X159225638Y-147041068D01*
X159758971Y-147041068D02*
X159911352Y-147041068D01*
X159911352Y-147041068D02*
X159982780Y-147002973D01*
X159982780Y-147002973D02*
X160049447Y-146926783D01*
X160049447Y-146926783D02*
X160068495Y-146774402D01*
X160068495Y-146774402D02*
X160035161Y-146507735D01*
X160035161Y-146507735D02*
X159978018Y-146355354D01*
X159978018Y-146355354D02*
X159892304Y-146279164D01*
X159892304Y-146279164D02*
X159811352Y-146241068D01*
X159811352Y-146241068D02*
X159658971Y-146241068D01*
X159658971Y-146241068D02*
X159587542Y-146279164D01*
X159587542Y-146279164D02*
X159520876Y-146355354D01*
X159520876Y-146355354D02*
X159501828Y-146507735D01*
X159501828Y-146507735D02*
X159535161Y-146774402D01*
X159535161Y-146774402D02*
X159592304Y-146926783D01*
X159592304Y-146926783D02*
X159678018Y-147002973D01*
X159678018Y-147002973D02*
X159758971Y-147041068D01*
X160397066Y-146964878D02*
X160439923Y-147002973D01*
X160439923Y-147002973D02*
X160520875Y-147041068D01*
X160520875Y-147041068D02*
X160711351Y-147041068D01*
X160711351Y-147041068D02*
X160782780Y-147002973D01*
X160782780Y-147002973D02*
X160816113Y-146964878D01*
X160816113Y-146964878D02*
X160844685Y-146888687D01*
X160844685Y-146888687D02*
X160835161Y-146812497D01*
X160835161Y-146812497D02*
X160782780Y-146698211D01*
X160782780Y-146698211D02*
X160268494Y-146241068D01*
X160268494Y-146241068D02*
X160763732Y-146241068D01*
X158039924Y-141922973D02*
X157968495Y-141961068D01*
X157968495Y-141961068D02*
X157854209Y-141961068D01*
X157854209Y-141961068D02*
X157735162Y-141922973D01*
X157735162Y-141922973D02*
X157649447Y-141846783D01*
X157649447Y-141846783D02*
X157601828Y-141770592D01*
X157601828Y-141770592D02*
X157544685Y-141618211D01*
X157544685Y-141618211D02*
X157530400Y-141503925D01*
X157530400Y-141503925D02*
X157549447Y-141351544D01*
X157549447Y-141351544D02*
X157578019Y-141275354D01*
X157578019Y-141275354D02*
X157644685Y-141199164D01*
X157644685Y-141199164D02*
X157754209Y-141161068D01*
X157754209Y-141161068D02*
X157830400Y-141161068D01*
X157830400Y-141161068D02*
X157949447Y-141199164D01*
X157949447Y-141199164D02*
X157992304Y-141237259D01*
X157992304Y-141237259D02*
X158025638Y-141503925D01*
X158025638Y-141503925D02*
X157873257Y-141503925D01*
X158325638Y-141161068D02*
X158425638Y-141961068D01*
X158425638Y-141961068D02*
X158730400Y-141961068D01*
X158730400Y-141961068D02*
X158801828Y-141922973D01*
X158801828Y-141922973D02*
X158835162Y-141884878D01*
X158835162Y-141884878D02*
X158863733Y-141808687D01*
X158863733Y-141808687D02*
X158849447Y-141694402D01*
X158849447Y-141694402D02*
X158801828Y-141618211D01*
X158801828Y-141618211D02*
X158758971Y-141580116D01*
X158758971Y-141580116D02*
X158678019Y-141542021D01*
X158678019Y-141542021D02*
X158373257Y-141542021D01*
X159125638Y-141161068D02*
X159225638Y-141961068D01*
X159758971Y-141961068D02*
X159911352Y-141961068D01*
X159911352Y-141961068D02*
X159982780Y-141922973D01*
X159982780Y-141922973D02*
X160049447Y-141846783D01*
X160049447Y-141846783D02*
X160068495Y-141694402D01*
X160068495Y-141694402D02*
X160035161Y-141427735D01*
X160035161Y-141427735D02*
X159978018Y-141275354D01*
X159978018Y-141275354D02*
X159892304Y-141199164D01*
X159892304Y-141199164D02*
X159811352Y-141161068D01*
X159811352Y-141161068D02*
X159658971Y-141161068D01*
X159658971Y-141161068D02*
X159587542Y-141199164D01*
X159587542Y-141199164D02*
X159520876Y-141275354D01*
X159520876Y-141275354D02*
X159501828Y-141427735D01*
X159501828Y-141427735D02*
X159535161Y-141694402D01*
X159535161Y-141694402D02*
X159592304Y-141846783D01*
X159592304Y-141846783D02*
X159678018Y-141922973D01*
X159678018Y-141922973D02*
X159758971Y-141961068D01*
X160754209Y-141694402D02*
X160687542Y-141161068D01*
X160601828Y-141999164D02*
X160339923Y-141427735D01*
X160339923Y-141427735D02*
X160835161Y-141427735D01*
X146165353Y-149415973D02*
X146093924Y-149454068D01*
X146093924Y-149454068D02*
X145979638Y-149454068D01*
X145979638Y-149454068D02*
X145860591Y-149415973D01*
X145860591Y-149415973D02*
X145774876Y-149339783D01*
X145774876Y-149339783D02*
X145727257Y-149263592D01*
X145727257Y-149263592D02*
X145670114Y-149111211D01*
X145670114Y-149111211D02*
X145655829Y-148996925D01*
X145655829Y-148996925D02*
X145674876Y-148844544D01*
X145674876Y-148844544D02*
X145703448Y-148768354D01*
X145703448Y-148768354D02*
X145770114Y-148692164D01*
X145770114Y-148692164D02*
X145879638Y-148654068D01*
X145879638Y-148654068D02*
X145955829Y-148654068D01*
X145955829Y-148654068D02*
X146074876Y-148692164D01*
X146074876Y-148692164D02*
X146117733Y-148730259D01*
X146117733Y-148730259D02*
X146151067Y-148996925D01*
X146151067Y-148996925D02*
X145998686Y-148996925D01*
X146451067Y-148654068D02*
X146551067Y-149454068D01*
X146551067Y-149454068D02*
X146908210Y-148654068D01*
X146908210Y-148654068D02*
X147008210Y-149454068D01*
X147289162Y-148654068D02*
X147389162Y-149454068D01*
X147389162Y-149454068D02*
X147579638Y-149454068D01*
X147579638Y-149454068D02*
X147689162Y-149415973D01*
X147689162Y-149415973D02*
X147755828Y-149339783D01*
X147755828Y-149339783D02*
X147784400Y-149263592D01*
X147784400Y-149263592D02*
X147803448Y-149111211D01*
X147803448Y-149111211D02*
X147789162Y-148996925D01*
X147789162Y-148996925D02*
X147732019Y-148844544D01*
X147732019Y-148844544D02*
X147684400Y-148768354D01*
X147684400Y-148768354D02*
X147598686Y-148692164D01*
X147598686Y-148692164D02*
X147479638Y-148654068D01*
X147479638Y-148654068D02*
X147289162Y-148654068D01*
X146101972Y-139382973D02*
X146030543Y-139421068D01*
X146030543Y-139421068D02*
X145916257Y-139421068D01*
X145916257Y-139421068D02*
X145797210Y-139382973D01*
X145797210Y-139382973D02*
X145711495Y-139306783D01*
X145711495Y-139306783D02*
X145663876Y-139230592D01*
X145663876Y-139230592D02*
X145606733Y-139078211D01*
X145606733Y-139078211D02*
X145592448Y-138963925D01*
X145592448Y-138963925D02*
X145611495Y-138811544D01*
X145611495Y-138811544D02*
X145640067Y-138735354D01*
X145640067Y-138735354D02*
X145706733Y-138659164D01*
X145706733Y-138659164D02*
X145816257Y-138621068D01*
X145816257Y-138621068D02*
X145892448Y-138621068D01*
X145892448Y-138621068D02*
X146011495Y-138659164D01*
X146011495Y-138659164D02*
X146054352Y-138697259D01*
X146054352Y-138697259D02*
X146087686Y-138963925D01*
X146087686Y-138963925D02*
X145935305Y-138963925D01*
X146387686Y-138621068D02*
X146487686Y-139421068D01*
X146487686Y-139421068D02*
X146792448Y-139421068D01*
X146792448Y-139421068D02*
X146863876Y-139382973D01*
X146863876Y-139382973D02*
X146897210Y-139344878D01*
X146897210Y-139344878D02*
X146925781Y-139268687D01*
X146925781Y-139268687D02*
X146911495Y-139154402D01*
X146911495Y-139154402D02*
X146863876Y-139078211D01*
X146863876Y-139078211D02*
X146821019Y-139040116D01*
X146821019Y-139040116D02*
X146740067Y-139002021D01*
X146740067Y-139002021D02*
X146435305Y-139002021D01*
X147187686Y-138621068D02*
X147287686Y-139421068D01*
X147821019Y-139421068D02*
X147973400Y-139421068D01*
X147973400Y-139421068D02*
X148044828Y-139382973D01*
X148044828Y-139382973D02*
X148111495Y-139306783D01*
X148111495Y-139306783D02*
X148130543Y-139154402D01*
X148130543Y-139154402D02*
X148097209Y-138887735D01*
X148097209Y-138887735D02*
X148040066Y-138735354D01*
X148040066Y-138735354D02*
X147954352Y-138659164D01*
X147954352Y-138659164D02*
X147873400Y-138621068D01*
X147873400Y-138621068D02*
X147721019Y-138621068D01*
X147721019Y-138621068D02*
X147649590Y-138659164D01*
X147649590Y-138659164D02*
X147582924Y-138735354D01*
X147582924Y-138735354D02*
X147563876Y-138887735D01*
X147563876Y-138887735D02*
X147597209Y-139154402D01*
X147597209Y-139154402D02*
X147654352Y-139306783D01*
X147654352Y-139306783D02*
X147740066Y-139382973D01*
X147740066Y-139382973D02*
X147821019Y-139421068D01*
X148459114Y-139344878D02*
X148501971Y-139382973D01*
X148501971Y-139382973D02*
X148582923Y-139421068D01*
X148582923Y-139421068D02*
X148773399Y-139421068D01*
X148773399Y-139421068D02*
X148844828Y-139382973D01*
X148844828Y-139382973D02*
X148878161Y-139344878D01*
X148878161Y-139344878D02*
X148906733Y-139268687D01*
X148906733Y-139268687D02*
X148897209Y-139192497D01*
X148897209Y-139192497D02*
X148844828Y-139078211D01*
X148844828Y-139078211D02*
X148330542Y-138621068D01*
X148330542Y-138621068D02*
X148825780Y-138621068D01*
X149340066Y-139078211D02*
X149268638Y-139116306D01*
X149268638Y-139116306D02*
X149235304Y-139154402D01*
X149235304Y-139154402D02*
X149206733Y-139230592D01*
X149206733Y-139230592D02*
X149211495Y-139268687D01*
X149211495Y-139268687D02*
X149259114Y-139344878D01*
X149259114Y-139344878D02*
X149301971Y-139382973D01*
X149301971Y-139382973D02*
X149382924Y-139421068D01*
X149382924Y-139421068D02*
X149535304Y-139421068D01*
X149535304Y-139421068D02*
X149606733Y-139382973D01*
X149606733Y-139382973D02*
X149640066Y-139344878D01*
X149640066Y-139344878D02*
X149668638Y-139268687D01*
X149668638Y-139268687D02*
X149663876Y-139230592D01*
X149663876Y-139230592D02*
X149616257Y-139154402D01*
X149616257Y-139154402D02*
X149573400Y-139116306D01*
X149573400Y-139116306D02*
X149492447Y-139078211D01*
X149492447Y-139078211D02*
X149340066Y-139078211D01*
X149340066Y-139078211D02*
X149259114Y-139040116D01*
X149259114Y-139040116D02*
X149216257Y-139002021D01*
X149216257Y-139002021D02*
X149168638Y-138925830D01*
X149168638Y-138925830D02*
X149149590Y-138773449D01*
X149149590Y-138773449D02*
X149178162Y-138697259D01*
X149178162Y-138697259D02*
X149211495Y-138659164D01*
X149211495Y-138659164D02*
X149282924Y-138621068D01*
X149282924Y-138621068D02*
X149435304Y-138621068D01*
X149435304Y-138621068D02*
X149516257Y-138659164D01*
X149516257Y-138659164D02*
X149559114Y-138697259D01*
X149559114Y-138697259D02*
X149606733Y-138773449D01*
X149606733Y-138773449D02*
X149625781Y-138925830D01*
X149625781Y-138925830D02*
X149597209Y-139002021D01*
X149597209Y-139002021D02*
X149563876Y-139040116D01*
X149563876Y-139040116D02*
X149492447Y-139078211D01*
X146165353Y-136842973D02*
X146093924Y-136881068D01*
X146093924Y-136881068D02*
X145979638Y-136881068D01*
X145979638Y-136881068D02*
X145860591Y-136842973D01*
X145860591Y-136842973D02*
X145774876Y-136766783D01*
X145774876Y-136766783D02*
X145727257Y-136690592D01*
X145727257Y-136690592D02*
X145670114Y-136538211D01*
X145670114Y-136538211D02*
X145655829Y-136423925D01*
X145655829Y-136423925D02*
X145674876Y-136271544D01*
X145674876Y-136271544D02*
X145703448Y-136195354D01*
X145703448Y-136195354D02*
X145770114Y-136119164D01*
X145770114Y-136119164D02*
X145879638Y-136081068D01*
X145879638Y-136081068D02*
X145955829Y-136081068D01*
X145955829Y-136081068D02*
X146074876Y-136119164D01*
X146074876Y-136119164D02*
X146117733Y-136157259D01*
X146117733Y-136157259D02*
X146151067Y-136423925D01*
X146151067Y-136423925D02*
X145998686Y-136423925D01*
X146451067Y-136081068D02*
X146551067Y-136881068D01*
X146551067Y-136881068D02*
X146908210Y-136081068D01*
X146908210Y-136081068D02*
X147008210Y-136881068D01*
X147289162Y-136081068D02*
X147389162Y-136881068D01*
X147389162Y-136881068D02*
X147579638Y-136881068D01*
X147579638Y-136881068D02*
X147689162Y-136842973D01*
X147689162Y-136842973D02*
X147755828Y-136766783D01*
X147755828Y-136766783D02*
X147784400Y-136690592D01*
X147784400Y-136690592D02*
X147803448Y-136538211D01*
X147803448Y-136538211D02*
X147789162Y-136423925D01*
X147789162Y-136423925D02*
X147732019Y-136271544D01*
X147732019Y-136271544D02*
X147684400Y-136195354D01*
X147684400Y-136195354D02*
X147598686Y-136119164D01*
X147598686Y-136119164D02*
X147479638Y-136081068D01*
X147479638Y-136081068D02*
X147289162Y-136081068D01*
X146038353Y-111442973D02*
X145966924Y-111481068D01*
X145966924Y-111481068D02*
X145852638Y-111481068D01*
X145852638Y-111481068D02*
X145733591Y-111442973D01*
X145733591Y-111442973D02*
X145647876Y-111366783D01*
X145647876Y-111366783D02*
X145600257Y-111290592D01*
X145600257Y-111290592D02*
X145543114Y-111138211D01*
X145543114Y-111138211D02*
X145528829Y-111023925D01*
X145528829Y-111023925D02*
X145547876Y-110871544D01*
X145547876Y-110871544D02*
X145576448Y-110795354D01*
X145576448Y-110795354D02*
X145643114Y-110719164D01*
X145643114Y-110719164D02*
X145752638Y-110681068D01*
X145752638Y-110681068D02*
X145828829Y-110681068D01*
X145828829Y-110681068D02*
X145947876Y-110719164D01*
X145947876Y-110719164D02*
X145990733Y-110757259D01*
X145990733Y-110757259D02*
X146024067Y-111023925D01*
X146024067Y-111023925D02*
X145871686Y-111023925D01*
X146324067Y-110681068D02*
X146424067Y-111481068D01*
X146424067Y-111481068D02*
X146781210Y-110681068D01*
X146781210Y-110681068D02*
X146881210Y-111481068D01*
X147162162Y-110681068D02*
X147262162Y-111481068D01*
X147262162Y-111481068D02*
X147452638Y-111481068D01*
X147452638Y-111481068D02*
X147562162Y-111442973D01*
X147562162Y-111442973D02*
X147628828Y-111366783D01*
X147628828Y-111366783D02*
X147657400Y-111290592D01*
X147657400Y-111290592D02*
X147676448Y-111138211D01*
X147676448Y-111138211D02*
X147662162Y-111023925D01*
X147662162Y-111023925D02*
X147605019Y-110871544D01*
X147605019Y-110871544D02*
X147557400Y-110795354D01*
X147557400Y-110795354D02*
X147471686Y-110719164D01*
X147471686Y-110719164D02*
X147352638Y-110681068D01*
X147352638Y-110681068D02*
X147162162Y-110681068D01*
X146101972Y-121602973D02*
X146030543Y-121641068D01*
X146030543Y-121641068D02*
X145916257Y-121641068D01*
X145916257Y-121641068D02*
X145797210Y-121602973D01*
X145797210Y-121602973D02*
X145711495Y-121526783D01*
X145711495Y-121526783D02*
X145663876Y-121450592D01*
X145663876Y-121450592D02*
X145606733Y-121298211D01*
X145606733Y-121298211D02*
X145592448Y-121183925D01*
X145592448Y-121183925D02*
X145611495Y-121031544D01*
X145611495Y-121031544D02*
X145640067Y-120955354D01*
X145640067Y-120955354D02*
X145706733Y-120879164D01*
X145706733Y-120879164D02*
X145816257Y-120841068D01*
X145816257Y-120841068D02*
X145892448Y-120841068D01*
X145892448Y-120841068D02*
X146011495Y-120879164D01*
X146011495Y-120879164D02*
X146054352Y-120917259D01*
X146054352Y-120917259D02*
X146087686Y-121183925D01*
X146087686Y-121183925D02*
X145935305Y-121183925D01*
X146387686Y-120841068D02*
X146487686Y-121641068D01*
X146487686Y-121641068D02*
X146792448Y-121641068D01*
X146792448Y-121641068D02*
X146863876Y-121602973D01*
X146863876Y-121602973D02*
X146897210Y-121564878D01*
X146897210Y-121564878D02*
X146925781Y-121488687D01*
X146925781Y-121488687D02*
X146911495Y-121374402D01*
X146911495Y-121374402D02*
X146863876Y-121298211D01*
X146863876Y-121298211D02*
X146821019Y-121260116D01*
X146821019Y-121260116D02*
X146740067Y-121222021D01*
X146740067Y-121222021D02*
X146435305Y-121222021D01*
X147187686Y-120841068D02*
X147287686Y-121641068D01*
X147821019Y-121641068D02*
X147973400Y-121641068D01*
X147973400Y-121641068D02*
X148044828Y-121602973D01*
X148044828Y-121602973D02*
X148111495Y-121526783D01*
X148111495Y-121526783D02*
X148130543Y-121374402D01*
X148130543Y-121374402D02*
X148097209Y-121107735D01*
X148097209Y-121107735D02*
X148040066Y-120955354D01*
X148040066Y-120955354D02*
X147954352Y-120879164D01*
X147954352Y-120879164D02*
X147873400Y-120841068D01*
X147873400Y-120841068D02*
X147721019Y-120841068D01*
X147721019Y-120841068D02*
X147649590Y-120879164D01*
X147649590Y-120879164D02*
X147582924Y-120955354D01*
X147582924Y-120955354D02*
X147563876Y-121107735D01*
X147563876Y-121107735D02*
X147597209Y-121374402D01*
X147597209Y-121374402D02*
X147654352Y-121526783D01*
X147654352Y-121526783D02*
X147740066Y-121602973D01*
X147740066Y-121602973D02*
X147821019Y-121641068D01*
X148459114Y-121564878D02*
X148501971Y-121602973D01*
X148501971Y-121602973D02*
X148582923Y-121641068D01*
X148582923Y-121641068D02*
X148773399Y-121641068D01*
X148773399Y-121641068D02*
X148844828Y-121602973D01*
X148844828Y-121602973D02*
X148878161Y-121564878D01*
X148878161Y-121564878D02*
X148906733Y-121488687D01*
X148906733Y-121488687D02*
X148897209Y-121412497D01*
X148897209Y-121412497D02*
X148844828Y-121298211D01*
X148844828Y-121298211D02*
X148330542Y-120841068D01*
X148330542Y-120841068D02*
X148825780Y-120841068D01*
X149587685Y-120841068D02*
X149130543Y-120841068D01*
X149359114Y-120841068D02*
X149459114Y-121641068D01*
X149459114Y-121641068D02*
X149368638Y-121526783D01*
X149368638Y-121526783D02*
X149282924Y-121450592D01*
X149282924Y-121450592D02*
X149201971Y-121412497D01*
X146101972Y-126682973D02*
X146030543Y-126721068D01*
X146030543Y-126721068D02*
X145916257Y-126721068D01*
X145916257Y-126721068D02*
X145797210Y-126682973D01*
X145797210Y-126682973D02*
X145711495Y-126606783D01*
X145711495Y-126606783D02*
X145663876Y-126530592D01*
X145663876Y-126530592D02*
X145606733Y-126378211D01*
X145606733Y-126378211D02*
X145592448Y-126263925D01*
X145592448Y-126263925D02*
X145611495Y-126111544D01*
X145611495Y-126111544D02*
X145640067Y-126035354D01*
X145640067Y-126035354D02*
X145706733Y-125959164D01*
X145706733Y-125959164D02*
X145816257Y-125921068D01*
X145816257Y-125921068D02*
X145892448Y-125921068D01*
X145892448Y-125921068D02*
X146011495Y-125959164D01*
X146011495Y-125959164D02*
X146054352Y-125997259D01*
X146054352Y-125997259D02*
X146087686Y-126263925D01*
X146087686Y-126263925D02*
X145935305Y-126263925D01*
X146387686Y-125921068D02*
X146487686Y-126721068D01*
X146487686Y-126721068D02*
X146792448Y-126721068D01*
X146792448Y-126721068D02*
X146863876Y-126682973D01*
X146863876Y-126682973D02*
X146897210Y-126644878D01*
X146897210Y-126644878D02*
X146925781Y-126568687D01*
X146925781Y-126568687D02*
X146911495Y-126454402D01*
X146911495Y-126454402D02*
X146863876Y-126378211D01*
X146863876Y-126378211D02*
X146821019Y-126340116D01*
X146821019Y-126340116D02*
X146740067Y-126302021D01*
X146740067Y-126302021D02*
X146435305Y-126302021D01*
X147187686Y-125921068D02*
X147287686Y-126721068D01*
X147821019Y-126721068D02*
X147973400Y-126721068D01*
X147973400Y-126721068D02*
X148044828Y-126682973D01*
X148044828Y-126682973D02*
X148111495Y-126606783D01*
X148111495Y-126606783D02*
X148130543Y-126454402D01*
X148130543Y-126454402D02*
X148097209Y-126187735D01*
X148097209Y-126187735D02*
X148040066Y-126035354D01*
X148040066Y-126035354D02*
X147954352Y-125959164D01*
X147954352Y-125959164D02*
X147873400Y-125921068D01*
X147873400Y-125921068D02*
X147721019Y-125921068D01*
X147721019Y-125921068D02*
X147649590Y-125959164D01*
X147649590Y-125959164D02*
X147582924Y-126035354D01*
X147582924Y-126035354D02*
X147563876Y-126187735D01*
X147563876Y-126187735D02*
X147597209Y-126454402D01*
X147597209Y-126454402D02*
X147654352Y-126606783D01*
X147654352Y-126606783D02*
X147740066Y-126682973D01*
X147740066Y-126682973D02*
X147821019Y-126721068D01*
X148459114Y-126644878D02*
X148501971Y-126682973D01*
X148501971Y-126682973D02*
X148582923Y-126721068D01*
X148582923Y-126721068D02*
X148773399Y-126721068D01*
X148773399Y-126721068D02*
X148844828Y-126682973D01*
X148844828Y-126682973D02*
X148878161Y-126644878D01*
X148878161Y-126644878D02*
X148906733Y-126568687D01*
X148906733Y-126568687D02*
X148897209Y-126492497D01*
X148897209Y-126492497D02*
X148844828Y-126378211D01*
X148844828Y-126378211D02*
X148330542Y-125921068D01*
X148330542Y-125921068D02*
X148825780Y-125921068D01*
X149221019Y-126644878D02*
X149263876Y-126682973D01*
X149263876Y-126682973D02*
X149344828Y-126721068D01*
X149344828Y-126721068D02*
X149535304Y-126721068D01*
X149535304Y-126721068D02*
X149606733Y-126682973D01*
X149606733Y-126682973D02*
X149640066Y-126644878D01*
X149640066Y-126644878D02*
X149668638Y-126568687D01*
X149668638Y-126568687D02*
X149659114Y-126492497D01*
X149659114Y-126492497D02*
X149606733Y-126378211D01*
X149606733Y-126378211D02*
X149092447Y-125921068D01*
X149092447Y-125921068D02*
X149587685Y-125921068D01*
X145757590Y-147041068D02*
X146252828Y-147041068D01*
X146252828Y-147041068D02*
X145948067Y-146736306D01*
X145948067Y-146736306D02*
X146062352Y-146736306D01*
X146062352Y-146736306D02*
X146133781Y-146698211D01*
X146133781Y-146698211D02*
X146167114Y-146660116D01*
X146167114Y-146660116D02*
X146195686Y-146583925D01*
X146195686Y-146583925D02*
X146171876Y-146393449D01*
X146171876Y-146393449D02*
X146124257Y-146317259D01*
X146124257Y-146317259D02*
X146081400Y-146279164D01*
X146081400Y-146279164D02*
X146000447Y-146241068D01*
X146000447Y-146241068D02*
X145771876Y-146241068D01*
X145771876Y-146241068D02*
X145700447Y-146279164D01*
X145700447Y-146279164D02*
X145667114Y-146317259D01*
X146481400Y-147041068D02*
X146648067Y-146241068D01*
X146648067Y-146241068D02*
X147014733Y-147041068D01*
X147205209Y-147041068D02*
X147700447Y-147041068D01*
X147700447Y-147041068D02*
X147395686Y-146736306D01*
X147395686Y-146736306D02*
X147509971Y-146736306D01*
X147509971Y-146736306D02*
X147581400Y-146698211D01*
X147581400Y-146698211D02*
X147614733Y-146660116D01*
X147614733Y-146660116D02*
X147643305Y-146583925D01*
X147643305Y-146583925D02*
X147619495Y-146393449D01*
X147619495Y-146393449D02*
X147571876Y-146317259D01*
X147571876Y-146317259D02*
X147529019Y-146279164D01*
X147529019Y-146279164D02*
X147448066Y-146241068D01*
X147448066Y-146241068D02*
X147219495Y-146241068D01*
X147219495Y-146241068D02*
X147148066Y-146279164D01*
X147148066Y-146279164D02*
X147114733Y-146317259D01*
X148605210Y-146660116D02*
X148871876Y-146660116D01*
X148933781Y-146241068D02*
X148552829Y-146241068D01*
X148552829Y-146241068D02*
X148652829Y-147041068D01*
X148652829Y-147041068D02*
X149033781Y-147041068D01*
X149276639Y-146241068D02*
X149376639Y-147041068D01*
X149376639Y-147041068D02*
X149733782Y-146241068D01*
X149733782Y-146241068D02*
X149833782Y-147041068D01*
X150105210Y-146469640D02*
X150486162Y-146469640D01*
X150000448Y-146241068D02*
X150367115Y-147041068D01*
X150367115Y-147041068D02*
X150533781Y-146241068D01*
X145974972Y-106362973D02*
X145903543Y-106401068D01*
X145903543Y-106401068D02*
X145789257Y-106401068D01*
X145789257Y-106401068D02*
X145670210Y-106362973D01*
X145670210Y-106362973D02*
X145584495Y-106286783D01*
X145584495Y-106286783D02*
X145536876Y-106210592D01*
X145536876Y-106210592D02*
X145479733Y-106058211D01*
X145479733Y-106058211D02*
X145465448Y-105943925D01*
X145465448Y-105943925D02*
X145484495Y-105791544D01*
X145484495Y-105791544D02*
X145513067Y-105715354D01*
X145513067Y-105715354D02*
X145579733Y-105639164D01*
X145579733Y-105639164D02*
X145689257Y-105601068D01*
X145689257Y-105601068D02*
X145765448Y-105601068D01*
X145765448Y-105601068D02*
X145884495Y-105639164D01*
X145884495Y-105639164D02*
X145927352Y-105677259D01*
X145927352Y-105677259D02*
X145960686Y-105943925D01*
X145960686Y-105943925D02*
X145808305Y-105943925D01*
X146260686Y-105601068D02*
X146360686Y-106401068D01*
X146360686Y-106401068D02*
X146665448Y-106401068D01*
X146665448Y-106401068D02*
X146736876Y-106362973D01*
X146736876Y-106362973D02*
X146770210Y-106324878D01*
X146770210Y-106324878D02*
X146798781Y-106248687D01*
X146798781Y-106248687D02*
X146784495Y-106134402D01*
X146784495Y-106134402D02*
X146736876Y-106058211D01*
X146736876Y-106058211D02*
X146694019Y-106020116D01*
X146694019Y-106020116D02*
X146613067Y-105982021D01*
X146613067Y-105982021D02*
X146308305Y-105982021D01*
X147060686Y-105601068D02*
X147160686Y-106401068D01*
X147694019Y-106401068D02*
X147846400Y-106401068D01*
X147846400Y-106401068D02*
X147917828Y-106362973D01*
X147917828Y-106362973D02*
X147984495Y-106286783D01*
X147984495Y-106286783D02*
X148003543Y-106134402D01*
X148003543Y-106134402D02*
X147970209Y-105867735D01*
X147970209Y-105867735D02*
X147913066Y-105715354D01*
X147913066Y-105715354D02*
X147827352Y-105639164D01*
X147827352Y-105639164D02*
X147746400Y-105601068D01*
X147746400Y-105601068D02*
X147594019Y-105601068D01*
X147594019Y-105601068D02*
X147522590Y-105639164D01*
X147522590Y-105639164D02*
X147455924Y-105715354D01*
X147455924Y-105715354D02*
X147436876Y-105867735D01*
X147436876Y-105867735D02*
X147470209Y-106134402D01*
X147470209Y-106134402D02*
X147527352Y-106286783D01*
X147527352Y-106286783D02*
X147613066Y-106362973D01*
X147613066Y-106362973D02*
X147694019Y-106401068D01*
X148698780Y-105601068D02*
X148241638Y-105601068D01*
X148470209Y-105601068D02*
X148570209Y-106401068D01*
X148570209Y-106401068D02*
X148479733Y-106286783D01*
X148479733Y-106286783D02*
X148394019Y-106210592D01*
X148394019Y-106210592D02*
X148313066Y-106172497D01*
X149484495Y-106401068D02*
X149332114Y-106401068D01*
X149332114Y-106401068D02*
X149251162Y-106362973D01*
X149251162Y-106362973D02*
X149208304Y-106324878D01*
X149208304Y-106324878D02*
X149117828Y-106210592D01*
X149117828Y-106210592D02*
X149060685Y-106058211D01*
X149060685Y-106058211D02*
X149022590Y-105753449D01*
X149022590Y-105753449D02*
X149051162Y-105677259D01*
X149051162Y-105677259D02*
X149084495Y-105639164D01*
X149084495Y-105639164D02*
X149155924Y-105601068D01*
X149155924Y-105601068D02*
X149308304Y-105601068D01*
X149308304Y-105601068D02*
X149389257Y-105639164D01*
X149389257Y-105639164D02*
X149432114Y-105677259D01*
X149432114Y-105677259D02*
X149479733Y-105753449D01*
X149479733Y-105753449D02*
X149503543Y-105943925D01*
X149503543Y-105943925D02*
X149474971Y-106020116D01*
X149474971Y-106020116D02*
X149441638Y-106058211D01*
X149441638Y-106058211D02*
X149370209Y-106096306D01*
X149370209Y-106096306D02*
X149217828Y-106096306D01*
X149217828Y-106096306D02*
X149136876Y-106058211D01*
X149136876Y-106058211D02*
X149094019Y-106020116D01*
X149094019Y-106020116D02*
X149046400Y-105943925D01*
X145611400Y-154480330D02*
X145757233Y-153780330D01*
X145757233Y-153780330D02*
X146078066Y-154480330D01*
X146503066Y-154146997D02*
X146598900Y-154113664D01*
X146598900Y-154113664D02*
X146628066Y-154080330D01*
X146628066Y-154080330D02*
X146653066Y-154013664D01*
X146653066Y-154013664D02*
X146640566Y-153913664D01*
X146640566Y-153913664D02*
X146598900Y-153846997D01*
X146598900Y-153846997D02*
X146561400Y-153813664D01*
X146561400Y-153813664D02*
X146490566Y-153780330D01*
X146490566Y-153780330D02*
X146223900Y-153780330D01*
X146223900Y-153780330D02*
X146311400Y-154480330D01*
X146311400Y-154480330D02*
X146544733Y-154480330D01*
X146544733Y-154480330D02*
X146607233Y-154446997D01*
X146607233Y-154446997D02*
X146636400Y-154413664D01*
X146636400Y-154413664D02*
X146661400Y-154346997D01*
X146661400Y-154346997D02*
X146653066Y-154280330D01*
X146653066Y-154280330D02*
X146611400Y-154213664D01*
X146611400Y-154213664D02*
X146573900Y-154180330D01*
X146573900Y-154180330D02*
X146503066Y-154146997D01*
X146503066Y-154146997D02*
X146269733Y-154146997D01*
X147011400Y-154480330D02*
X146940566Y-153913664D01*
X146940566Y-153913664D02*
X146965566Y-153846997D01*
X146965566Y-153846997D02*
X146994733Y-153813664D01*
X146994733Y-153813664D02*
X147057233Y-153780330D01*
X147057233Y-153780330D02*
X147190566Y-153780330D01*
X147190566Y-153780330D02*
X147261400Y-153813664D01*
X147261400Y-153813664D02*
X147298900Y-153846997D01*
X147298900Y-153846997D02*
X147340566Y-153913664D01*
X147340566Y-153913664D02*
X147411400Y-154480330D01*
X147628066Y-153813664D02*
X147723899Y-153780330D01*
X147723899Y-153780330D02*
X147890566Y-153780330D01*
X147890566Y-153780330D02*
X147961399Y-153813664D01*
X147961399Y-153813664D02*
X147998899Y-153846997D01*
X147998899Y-153846997D02*
X148040566Y-153913664D01*
X148040566Y-153913664D02*
X148048899Y-153980330D01*
X148048899Y-153980330D02*
X148023899Y-154046997D01*
X148023899Y-154046997D02*
X147994733Y-154080330D01*
X147994733Y-154080330D02*
X147932233Y-154113664D01*
X147932233Y-154113664D02*
X147803066Y-154146997D01*
X147803066Y-154146997D02*
X147740566Y-154180330D01*
X147740566Y-154180330D02*
X147711399Y-154213664D01*
X147711399Y-154213664D02*
X147686399Y-154280330D01*
X147686399Y-154280330D02*
X147694733Y-154346997D01*
X147694733Y-154346997D02*
X147736399Y-154413664D01*
X147736399Y-154413664D02*
X147773899Y-154446997D01*
X147773899Y-154446997D02*
X147844733Y-154480330D01*
X147844733Y-154480330D02*
X148011399Y-154480330D01*
X148011399Y-154480330D02*
X148107233Y-154446997D01*
X158039924Y-144462973D02*
X157968495Y-144501068D01*
X157968495Y-144501068D02*
X157854209Y-144501068D01*
X157854209Y-144501068D02*
X157735162Y-144462973D01*
X157735162Y-144462973D02*
X157649447Y-144386783D01*
X157649447Y-144386783D02*
X157601828Y-144310592D01*
X157601828Y-144310592D02*
X157544685Y-144158211D01*
X157544685Y-144158211D02*
X157530400Y-144043925D01*
X157530400Y-144043925D02*
X157549447Y-143891544D01*
X157549447Y-143891544D02*
X157578019Y-143815354D01*
X157578019Y-143815354D02*
X157644685Y-143739164D01*
X157644685Y-143739164D02*
X157754209Y-143701068D01*
X157754209Y-143701068D02*
X157830400Y-143701068D01*
X157830400Y-143701068D02*
X157949447Y-143739164D01*
X157949447Y-143739164D02*
X157992304Y-143777259D01*
X157992304Y-143777259D02*
X158025638Y-144043925D01*
X158025638Y-144043925D02*
X157873257Y-144043925D01*
X158325638Y-143701068D02*
X158425638Y-144501068D01*
X158425638Y-144501068D02*
X158730400Y-144501068D01*
X158730400Y-144501068D02*
X158801828Y-144462973D01*
X158801828Y-144462973D02*
X158835162Y-144424878D01*
X158835162Y-144424878D02*
X158863733Y-144348687D01*
X158863733Y-144348687D02*
X158849447Y-144234402D01*
X158849447Y-144234402D02*
X158801828Y-144158211D01*
X158801828Y-144158211D02*
X158758971Y-144120116D01*
X158758971Y-144120116D02*
X158678019Y-144082021D01*
X158678019Y-144082021D02*
X158373257Y-144082021D01*
X159125638Y-143701068D02*
X159225638Y-144501068D01*
X159758971Y-144501068D02*
X159911352Y-144501068D01*
X159911352Y-144501068D02*
X159982780Y-144462973D01*
X159982780Y-144462973D02*
X160049447Y-144386783D01*
X160049447Y-144386783D02*
X160068495Y-144234402D01*
X160068495Y-144234402D02*
X160035161Y-143967735D01*
X160035161Y-143967735D02*
X159978018Y-143815354D01*
X159978018Y-143815354D02*
X159892304Y-143739164D01*
X159892304Y-143739164D02*
X159811352Y-143701068D01*
X159811352Y-143701068D02*
X159658971Y-143701068D01*
X159658971Y-143701068D02*
X159587542Y-143739164D01*
X159587542Y-143739164D02*
X159520876Y-143815354D01*
X159520876Y-143815354D02*
X159501828Y-143967735D01*
X159501828Y-143967735D02*
X159535161Y-144234402D01*
X159535161Y-144234402D02*
X159592304Y-144386783D01*
X159592304Y-144386783D02*
X159678018Y-144462973D01*
X159678018Y-144462973D02*
X159758971Y-144501068D01*
X160368494Y-144501068D02*
X160863732Y-144501068D01*
X160863732Y-144501068D02*
X160558971Y-144196306D01*
X160558971Y-144196306D02*
X160673256Y-144196306D01*
X160673256Y-144196306D02*
X160744685Y-144158211D01*
X160744685Y-144158211D02*
X160778018Y-144120116D01*
X160778018Y-144120116D02*
X160806590Y-144043925D01*
X160806590Y-144043925D02*
X160782780Y-143853449D01*
X160782780Y-143853449D02*
X160735161Y-143777259D01*
X160735161Y-143777259D02*
X160692304Y-143739164D01*
X160692304Y-143739164D02*
X160611351Y-143701068D01*
X160611351Y-143701068D02*
X160382780Y-143701068D01*
X160382780Y-143701068D02*
X160311351Y-143739164D01*
X160311351Y-143739164D02*
X160278018Y-143777259D01*
X157277972Y-119062973D02*
X157206543Y-119101068D01*
X157206543Y-119101068D02*
X157092257Y-119101068D01*
X157092257Y-119101068D02*
X156973210Y-119062973D01*
X156973210Y-119062973D02*
X156887495Y-118986783D01*
X156887495Y-118986783D02*
X156839876Y-118910592D01*
X156839876Y-118910592D02*
X156782733Y-118758211D01*
X156782733Y-118758211D02*
X156768448Y-118643925D01*
X156768448Y-118643925D02*
X156787495Y-118491544D01*
X156787495Y-118491544D02*
X156816067Y-118415354D01*
X156816067Y-118415354D02*
X156882733Y-118339164D01*
X156882733Y-118339164D02*
X156992257Y-118301068D01*
X156992257Y-118301068D02*
X157068448Y-118301068D01*
X157068448Y-118301068D02*
X157187495Y-118339164D01*
X157187495Y-118339164D02*
X157230352Y-118377259D01*
X157230352Y-118377259D02*
X157263686Y-118643925D01*
X157263686Y-118643925D02*
X157111305Y-118643925D01*
X157563686Y-118301068D02*
X157663686Y-119101068D01*
X157663686Y-119101068D02*
X157968448Y-119101068D01*
X157968448Y-119101068D02*
X158039876Y-119062973D01*
X158039876Y-119062973D02*
X158073210Y-119024878D01*
X158073210Y-119024878D02*
X158101781Y-118948687D01*
X158101781Y-118948687D02*
X158087495Y-118834402D01*
X158087495Y-118834402D02*
X158039876Y-118758211D01*
X158039876Y-118758211D02*
X157997019Y-118720116D01*
X157997019Y-118720116D02*
X157916067Y-118682021D01*
X157916067Y-118682021D02*
X157611305Y-118682021D01*
X158363686Y-118301068D02*
X158463686Y-119101068D01*
X158997019Y-119101068D02*
X159149400Y-119101068D01*
X159149400Y-119101068D02*
X159220828Y-119062973D01*
X159220828Y-119062973D02*
X159287495Y-118986783D01*
X159287495Y-118986783D02*
X159306543Y-118834402D01*
X159306543Y-118834402D02*
X159273209Y-118567735D01*
X159273209Y-118567735D02*
X159216066Y-118415354D01*
X159216066Y-118415354D02*
X159130352Y-118339164D01*
X159130352Y-118339164D02*
X159049400Y-118301068D01*
X159049400Y-118301068D02*
X158897019Y-118301068D01*
X158897019Y-118301068D02*
X158825590Y-118339164D01*
X158825590Y-118339164D02*
X158758924Y-118415354D01*
X158758924Y-118415354D02*
X158739876Y-118567735D01*
X158739876Y-118567735D02*
X158773209Y-118834402D01*
X158773209Y-118834402D02*
X158830352Y-118986783D01*
X158830352Y-118986783D02*
X158916066Y-119062973D01*
X158916066Y-119062973D02*
X158997019Y-119101068D01*
X160001780Y-118301068D02*
X159544638Y-118301068D01*
X159773209Y-118301068D02*
X159873209Y-119101068D01*
X159873209Y-119101068D02*
X159782733Y-118986783D01*
X159782733Y-118986783D02*
X159697019Y-118910592D01*
X159697019Y-118910592D02*
X159616066Y-118872497D01*
X160763685Y-118301068D02*
X160306543Y-118301068D01*
X160535114Y-118301068D02*
X160635114Y-119101068D01*
X160635114Y-119101068D02*
X160544638Y-118986783D01*
X160544638Y-118986783D02*
X160458924Y-118910592D01*
X160458924Y-118910592D02*
X160377971Y-118872497D01*
X145662209Y-152121068D02*
X145828876Y-151321068D01*
X145828876Y-151321068D02*
X146195542Y-152121068D01*
X146328875Y-151359164D02*
X146438399Y-151321068D01*
X146438399Y-151321068D02*
X146628875Y-151321068D01*
X146628875Y-151321068D02*
X146709828Y-151359164D01*
X146709828Y-151359164D02*
X146752685Y-151397259D01*
X146752685Y-151397259D02*
X146800304Y-151473449D01*
X146800304Y-151473449D02*
X146809828Y-151549640D01*
X146809828Y-151549640D02*
X146781256Y-151625830D01*
X146781256Y-151625830D02*
X146747923Y-151663925D01*
X146747923Y-151663925D02*
X146676495Y-151702021D01*
X146676495Y-151702021D02*
X146528875Y-151740116D01*
X146528875Y-151740116D02*
X146457447Y-151778211D01*
X146457447Y-151778211D02*
X146424114Y-151816306D01*
X146424114Y-151816306D02*
X146395542Y-151892497D01*
X146395542Y-151892497D02*
X146405066Y-151968687D01*
X146405066Y-151968687D02*
X146452685Y-152044878D01*
X146452685Y-152044878D02*
X146495542Y-152082973D01*
X146495542Y-152082973D02*
X146576495Y-152121068D01*
X146576495Y-152121068D02*
X146766971Y-152121068D01*
X146766971Y-152121068D02*
X146876495Y-152082973D01*
X147324114Y-151702021D02*
X147276495Y-151321068D01*
X147109828Y-152121068D02*
X147324114Y-151702021D01*
X147324114Y-151702021D02*
X147643161Y-152121068D01*
X147776494Y-151359164D02*
X147886018Y-151321068D01*
X147886018Y-151321068D02*
X148076494Y-151321068D01*
X148076494Y-151321068D02*
X148157447Y-151359164D01*
X148157447Y-151359164D02*
X148200304Y-151397259D01*
X148200304Y-151397259D02*
X148247923Y-151473449D01*
X148247923Y-151473449D02*
X148257447Y-151549640D01*
X148257447Y-151549640D02*
X148228875Y-151625830D01*
X148228875Y-151625830D02*
X148195542Y-151663925D01*
X148195542Y-151663925D02*
X148124114Y-151702021D01*
X148124114Y-151702021D02*
X147976494Y-151740116D01*
X147976494Y-151740116D02*
X147905066Y-151778211D01*
X147905066Y-151778211D02*
X147871733Y-151816306D01*
X147871733Y-151816306D02*
X147843161Y-151892497D01*
X147843161Y-151892497D02*
X147852685Y-151968687D01*
X147852685Y-151968687D02*
X147900304Y-152044878D01*
X147900304Y-152044878D02*
X147943161Y-152082973D01*
X147943161Y-152082973D02*
X148024114Y-152121068D01*
X148024114Y-152121068D02*
X148214590Y-152121068D01*
X148214590Y-152121068D02*
X148324114Y-152082973D01*
X159246353Y-136842973D02*
X159174924Y-136881068D01*
X159174924Y-136881068D02*
X159060638Y-136881068D01*
X159060638Y-136881068D02*
X158941591Y-136842973D01*
X158941591Y-136842973D02*
X158855876Y-136766783D01*
X158855876Y-136766783D02*
X158808257Y-136690592D01*
X158808257Y-136690592D02*
X158751114Y-136538211D01*
X158751114Y-136538211D02*
X158736829Y-136423925D01*
X158736829Y-136423925D02*
X158755876Y-136271544D01*
X158755876Y-136271544D02*
X158784448Y-136195354D01*
X158784448Y-136195354D02*
X158851114Y-136119164D01*
X158851114Y-136119164D02*
X158960638Y-136081068D01*
X158960638Y-136081068D02*
X159036829Y-136081068D01*
X159036829Y-136081068D02*
X159155876Y-136119164D01*
X159155876Y-136119164D02*
X159198733Y-136157259D01*
X159198733Y-136157259D02*
X159232067Y-136423925D01*
X159232067Y-136423925D02*
X159079686Y-136423925D01*
X159532067Y-136081068D02*
X159632067Y-136881068D01*
X159632067Y-136881068D02*
X159989210Y-136081068D01*
X159989210Y-136081068D02*
X160089210Y-136881068D01*
X160370162Y-136081068D02*
X160470162Y-136881068D01*
X160470162Y-136881068D02*
X160660638Y-136881068D01*
X160660638Y-136881068D02*
X160770162Y-136842973D01*
X160770162Y-136842973D02*
X160836828Y-136766783D01*
X160836828Y-136766783D02*
X160865400Y-136690592D01*
X160865400Y-136690592D02*
X160884448Y-136538211D01*
X160884448Y-136538211D02*
X160870162Y-136423925D01*
X160870162Y-136423925D02*
X160813019Y-136271544D01*
X160813019Y-136271544D02*
X160765400Y-136195354D01*
X160765400Y-136195354D02*
X160679686Y-136119164D01*
X160679686Y-136119164D02*
X160560638Y-136081068D01*
X160560638Y-136081068D02*
X160370162Y-136081068D01*
X158039924Y-129222973D02*
X157968495Y-129261068D01*
X157968495Y-129261068D02*
X157854209Y-129261068D01*
X157854209Y-129261068D02*
X157735162Y-129222973D01*
X157735162Y-129222973D02*
X157649447Y-129146783D01*
X157649447Y-129146783D02*
X157601828Y-129070592D01*
X157601828Y-129070592D02*
X157544685Y-128918211D01*
X157544685Y-128918211D02*
X157530400Y-128803925D01*
X157530400Y-128803925D02*
X157549447Y-128651544D01*
X157549447Y-128651544D02*
X157578019Y-128575354D01*
X157578019Y-128575354D02*
X157644685Y-128499164D01*
X157644685Y-128499164D02*
X157754209Y-128461068D01*
X157754209Y-128461068D02*
X157830400Y-128461068D01*
X157830400Y-128461068D02*
X157949447Y-128499164D01*
X157949447Y-128499164D02*
X157992304Y-128537259D01*
X157992304Y-128537259D02*
X158025638Y-128803925D01*
X158025638Y-128803925D02*
X157873257Y-128803925D01*
X158325638Y-128461068D02*
X158425638Y-129261068D01*
X158425638Y-129261068D02*
X158730400Y-129261068D01*
X158730400Y-129261068D02*
X158801828Y-129222973D01*
X158801828Y-129222973D02*
X158835162Y-129184878D01*
X158835162Y-129184878D02*
X158863733Y-129108687D01*
X158863733Y-129108687D02*
X158849447Y-128994402D01*
X158849447Y-128994402D02*
X158801828Y-128918211D01*
X158801828Y-128918211D02*
X158758971Y-128880116D01*
X158758971Y-128880116D02*
X158678019Y-128842021D01*
X158678019Y-128842021D02*
X158373257Y-128842021D01*
X159125638Y-128461068D02*
X159225638Y-129261068D01*
X159758971Y-129261068D02*
X159911352Y-129261068D01*
X159911352Y-129261068D02*
X159982780Y-129222973D01*
X159982780Y-129222973D02*
X160049447Y-129146783D01*
X160049447Y-129146783D02*
X160068495Y-128994402D01*
X160068495Y-128994402D02*
X160035161Y-128727735D01*
X160035161Y-128727735D02*
X159978018Y-128575354D01*
X159978018Y-128575354D02*
X159892304Y-128499164D01*
X159892304Y-128499164D02*
X159811352Y-128461068D01*
X159811352Y-128461068D02*
X159658971Y-128461068D01*
X159658971Y-128461068D02*
X159587542Y-128499164D01*
X159587542Y-128499164D02*
X159520876Y-128575354D01*
X159520876Y-128575354D02*
X159501828Y-128727735D01*
X159501828Y-128727735D02*
X159535161Y-128994402D01*
X159535161Y-128994402D02*
X159592304Y-129146783D01*
X159592304Y-129146783D02*
X159678018Y-129222973D01*
X159678018Y-129222973D02*
X159758971Y-129261068D01*
X160516113Y-128918211D02*
X160444685Y-128956306D01*
X160444685Y-128956306D02*
X160411351Y-128994402D01*
X160411351Y-128994402D02*
X160382780Y-129070592D01*
X160382780Y-129070592D02*
X160387542Y-129108687D01*
X160387542Y-129108687D02*
X160435161Y-129184878D01*
X160435161Y-129184878D02*
X160478018Y-129222973D01*
X160478018Y-129222973D02*
X160558971Y-129261068D01*
X160558971Y-129261068D02*
X160711351Y-129261068D01*
X160711351Y-129261068D02*
X160782780Y-129222973D01*
X160782780Y-129222973D02*
X160816113Y-129184878D01*
X160816113Y-129184878D02*
X160844685Y-129108687D01*
X160844685Y-129108687D02*
X160839923Y-129070592D01*
X160839923Y-129070592D02*
X160792304Y-128994402D01*
X160792304Y-128994402D02*
X160749447Y-128956306D01*
X160749447Y-128956306D02*
X160668494Y-128918211D01*
X160668494Y-128918211D02*
X160516113Y-128918211D01*
X160516113Y-128918211D02*
X160435161Y-128880116D01*
X160435161Y-128880116D02*
X160392304Y-128842021D01*
X160392304Y-128842021D02*
X160344685Y-128765830D01*
X160344685Y-128765830D02*
X160325637Y-128613449D01*
X160325637Y-128613449D02*
X160354209Y-128537259D01*
X160354209Y-128537259D02*
X160387542Y-128499164D01*
X160387542Y-128499164D02*
X160458971Y-128461068D01*
X160458971Y-128461068D02*
X160611351Y-128461068D01*
X160611351Y-128461068D02*
X160692304Y-128499164D01*
X160692304Y-128499164D02*
X160735161Y-128537259D01*
X160735161Y-128537259D02*
X160782780Y-128613449D01*
X160782780Y-128613449D02*
X160801828Y-128765830D01*
X160801828Y-128765830D02*
X160773256Y-128842021D01*
X160773256Y-128842021D02*
X160739923Y-128880116D01*
X160739923Y-128880116D02*
X160668494Y-128918211D01*
X146165353Y-124142973D02*
X146093924Y-124181068D01*
X146093924Y-124181068D02*
X145979638Y-124181068D01*
X145979638Y-124181068D02*
X145860591Y-124142973D01*
X145860591Y-124142973D02*
X145774876Y-124066783D01*
X145774876Y-124066783D02*
X145727257Y-123990592D01*
X145727257Y-123990592D02*
X145670114Y-123838211D01*
X145670114Y-123838211D02*
X145655829Y-123723925D01*
X145655829Y-123723925D02*
X145674876Y-123571544D01*
X145674876Y-123571544D02*
X145703448Y-123495354D01*
X145703448Y-123495354D02*
X145770114Y-123419164D01*
X145770114Y-123419164D02*
X145879638Y-123381068D01*
X145879638Y-123381068D02*
X145955829Y-123381068D01*
X145955829Y-123381068D02*
X146074876Y-123419164D01*
X146074876Y-123419164D02*
X146117733Y-123457259D01*
X146117733Y-123457259D02*
X146151067Y-123723925D01*
X146151067Y-123723925D02*
X145998686Y-123723925D01*
X146451067Y-123381068D02*
X146551067Y-124181068D01*
X146551067Y-124181068D02*
X146908210Y-123381068D01*
X146908210Y-123381068D02*
X147008210Y-124181068D01*
X147289162Y-123381068D02*
X147389162Y-124181068D01*
X147389162Y-124181068D02*
X147579638Y-124181068D01*
X147579638Y-124181068D02*
X147689162Y-124142973D01*
X147689162Y-124142973D02*
X147755828Y-124066783D01*
X147755828Y-124066783D02*
X147784400Y-123990592D01*
X147784400Y-123990592D02*
X147803448Y-123838211D01*
X147803448Y-123838211D02*
X147789162Y-123723925D01*
X147789162Y-123723925D02*
X147732019Y-123571544D01*
X147732019Y-123571544D02*
X147684400Y-123495354D01*
X147684400Y-123495354D02*
X147598686Y-123419164D01*
X147598686Y-123419164D02*
X147479638Y-123381068D01*
X147479638Y-123381068D02*
X147289162Y-123381068D01*
X146101972Y-134302973D02*
X146030543Y-134341068D01*
X146030543Y-134341068D02*
X145916257Y-134341068D01*
X145916257Y-134341068D02*
X145797210Y-134302973D01*
X145797210Y-134302973D02*
X145711495Y-134226783D01*
X145711495Y-134226783D02*
X145663876Y-134150592D01*
X145663876Y-134150592D02*
X145606733Y-133998211D01*
X145606733Y-133998211D02*
X145592448Y-133883925D01*
X145592448Y-133883925D02*
X145611495Y-133731544D01*
X145611495Y-133731544D02*
X145640067Y-133655354D01*
X145640067Y-133655354D02*
X145706733Y-133579164D01*
X145706733Y-133579164D02*
X145816257Y-133541068D01*
X145816257Y-133541068D02*
X145892448Y-133541068D01*
X145892448Y-133541068D02*
X146011495Y-133579164D01*
X146011495Y-133579164D02*
X146054352Y-133617259D01*
X146054352Y-133617259D02*
X146087686Y-133883925D01*
X146087686Y-133883925D02*
X145935305Y-133883925D01*
X146387686Y-133541068D02*
X146487686Y-134341068D01*
X146487686Y-134341068D02*
X146792448Y-134341068D01*
X146792448Y-134341068D02*
X146863876Y-134302973D01*
X146863876Y-134302973D02*
X146897210Y-134264878D01*
X146897210Y-134264878D02*
X146925781Y-134188687D01*
X146925781Y-134188687D02*
X146911495Y-134074402D01*
X146911495Y-134074402D02*
X146863876Y-133998211D01*
X146863876Y-133998211D02*
X146821019Y-133960116D01*
X146821019Y-133960116D02*
X146740067Y-133922021D01*
X146740067Y-133922021D02*
X146435305Y-133922021D01*
X147187686Y-133541068D02*
X147287686Y-134341068D01*
X147821019Y-134341068D02*
X147973400Y-134341068D01*
X147973400Y-134341068D02*
X148044828Y-134302973D01*
X148044828Y-134302973D02*
X148111495Y-134226783D01*
X148111495Y-134226783D02*
X148130543Y-134074402D01*
X148130543Y-134074402D02*
X148097209Y-133807735D01*
X148097209Y-133807735D02*
X148040066Y-133655354D01*
X148040066Y-133655354D02*
X147954352Y-133579164D01*
X147954352Y-133579164D02*
X147873400Y-133541068D01*
X147873400Y-133541068D02*
X147721019Y-133541068D01*
X147721019Y-133541068D02*
X147649590Y-133579164D01*
X147649590Y-133579164D02*
X147582924Y-133655354D01*
X147582924Y-133655354D02*
X147563876Y-133807735D01*
X147563876Y-133807735D02*
X147597209Y-134074402D01*
X147597209Y-134074402D02*
X147654352Y-134226783D01*
X147654352Y-134226783D02*
X147740066Y-134302973D01*
X147740066Y-134302973D02*
X147821019Y-134341068D01*
X148459114Y-134264878D02*
X148501971Y-134302973D01*
X148501971Y-134302973D02*
X148582923Y-134341068D01*
X148582923Y-134341068D02*
X148773399Y-134341068D01*
X148773399Y-134341068D02*
X148844828Y-134302973D01*
X148844828Y-134302973D02*
X148878161Y-134264878D01*
X148878161Y-134264878D02*
X148906733Y-134188687D01*
X148906733Y-134188687D02*
X148897209Y-134112497D01*
X148897209Y-134112497D02*
X148844828Y-133998211D01*
X148844828Y-133998211D02*
X148330542Y-133541068D01*
X148330542Y-133541068D02*
X148825780Y-133541068D01*
X149192447Y-134341068D02*
X149725781Y-134341068D01*
X149725781Y-134341068D02*
X149282924Y-133541068D01*
X157277972Y-108902973D02*
X157206543Y-108941068D01*
X157206543Y-108941068D02*
X157092257Y-108941068D01*
X157092257Y-108941068D02*
X156973210Y-108902973D01*
X156973210Y-108902973D02*
X156887495Y-108826783D01*
X156887495Y-108826783D02*
X156839876Y-108750592D01*
X156839876Y-108750592D02*
X156782733Y-108598211D01*
X156782733Y-108598211D02*
X156768448Y-108483925D01*
X156768448Y-108483925D02*
X156787495Y-108331544D01*
X156787495Y-108331544D02*
X156816067Y-108255354D01*
X156816067Y-108255354D02*
X156882733Y-108179164D01*
X156882733Y-108179164D02*
X156992257Y-108141068D01*
X156992257Y-108141068D02*
X157068448Y-108141068D01*
X157068448Y-108141068D02*
X157187495Y-108179164D01*
X157187495Y-108179164D02*
X157230352Y-108217259D01*
X157230352Y-108217259D02*
X157263686Y-108483925D01*
X157263686Y-108483925D02*
X157111305Y-108483925D01*
X157563686Y-108141068D02*
X157663686Y-108941068D01*
X157663686Y-108941068D02*
X157968448Y-108941068D01*
X157968448Y-108941068D02*
X158039876Y-108902973D01*
X158039876Y-108902973D02*
X158073210Y-108864878D01*
X158073210Y-108864878D02*
X158101781Y-108788687D01*
X158101781Y-108788687D02*
X158087495Y-108674402D01*
X158087495Y-108674402D02*
X158039876Y-108598211D01*
X158039876Y-108598211D02*
X157997019Y-108560116D01*
X157997019Y-108560116D02*
X157916067Y-108522021D01*
X157916067Y-108522021D02*
X157611305Y-108522021D01*
X158363686Y-108141068D02*
X158463686Y-108941068D01*
X158997019Y-108941068D02*
X159149400Y-108941068D01*
X159149400Y-108941068D02*
X159220828Y-108902973D01*
X159220828Y-108902973D02*
X159287495Y-108826783D01*
X159287495Y-108826783D02*
X159306543Y-108674402D01*
X159306543Y-108674402D02*
X159273209Y-108407735D01*
X159273209Y-108407735D02*
X159216066Y-108255354D01*
X159216066Y-108255354D02*
X159130352Y-108179164D01*
X159130352Y-108179164D02*
X159049400Y-108141068D01*
X159049400Y-108141068D02*
X158897019Y-108141068D01*
X158897019Y-108141068D02*
X158825590Y-108179164D01*
X158825590Y-108179164D02*
X158758924Y-108255354D01*
X158758924Y-108255354D02*
X158739876Y-108407735D01*
X158739876Y-108407735D02*
X158773209Y-108674402D01*
X158773209Y-108674402D02*
X158830352Y-108826783D01*
X158830352Y-108826783D02*
X158916066Y-108902973D01*
X158916066Y-108902973D02*
X158997019Y-108941068D01*
X160001780Y-108141068D02*
X159544638Y-108141068D01*
X159773209Y-108141068D02*
X159873209Y-108941068D01*
X159873209Y-108941068D02*
X159782733Y-108826783D01*
X159782733Y-108826783D02*
X159697019Y-108750592D01*
X159697019Y-108750592D02*
X159616066Y-108712497D01*
X160754162Y-108674402D02*
X160687495Y-108141068D01*
X160601781Y-108979164D02*
X160339876Y-108407735D01*
X160339876Y-108407735D02*
X160835114Y-108407735D01*
X146101972Y-113982973D02*
X146030543Y-114021068D01*
X146030543Y-114021068D02*
X145916257Y-114021068D01*
X145916257Y-114021068D02*
X145797210Y-113982973D01*
X145797210Y-113982973D02*
X145711495Y-113906783D01*
X145711495Y-113906783D02*
X145663876Y-113830592D01*
X145663876Y-113830592D02*
X145606733Y-113678211D01*
X145606733Y-113678211D02*
X145592448Y-113563925D01*
X145592448Y-113563925D02*
X145611495Y-113411544D01*
X145611495Y-113411544D02*
X145640067Y-113335354D01*
X145640067Y-113335354D02*
X145706733Y-113259164D01*
X145706733Y-113259164D02*
X145816257Y-113221068D01*
X145816257Y-113221068D02*
X145892448Y-113221068D01*
X145892448Y-113221068D02*
X146011495Y-113259164D01*
X146011495Y-113259164D02*
X146054352Y-113297259D01*
X146054352Y-113297259D02*
X146087686Y-113563925D01*
X146087686Y-113563925D02*
X145935305Y-113563925D01*
X146387686Y-113221068D02*
X146487686Y-114021068D01*
X146487686Y-114021068D02*
X146792448Y-114021068D01*
X146792448Y-114021068D02*
X146863876Y-113982973D01*
X146863876Y-113982973D02*
X146897210Y-113944878D01*
X146897210Y-113944878D02*
X146925781Y-113868687D01*
X146925781Y-113868687D02*
X146911495Y-113754402D01*
X146911495Y-113754402D02*
X146863876Y-113678211D01*
X146863876Y-113678211D02*
X146821019Y-113640116D01*
X146821019Y-113640116D02*
X146740067Y-113602021D01*
X146740067Y-113602021D02*
X146435305Y-113602021D01*
X147187686Y-113221068D02*
X147287686Y-114021068D01*
X147821019Y-114021068D02*
X147973400Y-114021068D01*
X147973400Y-114021068D02*
X148044828Y-113982973D01*
X148044828Y-113982973D02*
X148111495Y-113906783D01*
X148111495Y-113906783D02*
X148130543Y-113754402D01*
X148130543Y-113754402D02*
X148097209Y-113487735D01*
X148097209Y-113487735D02*
X148040066Y-113335354D01*
X148040066Y-113335354D02*
X147954352Y-113259164D01*
X147954352Y-113259164D02*
X147873400Y-113221068D01*
X147873400Y-113221068D02*
X147721019Y-113221068D01*
X147721019Y-113221068D02*
X147649590Y-113259164D01*
X147649590Y-113259164D02*
X147582924Y-113335354D01*
X147582924Y-113335354D02*
X147563876Y-113487735D01*
X147563876Y-113487735D02*
X147597209Y-113754402D01*
X147597209Y-113754402D02*
X147654352Y-113906783D01*
X147654352Y-113906783D02*
X147740066Y-113982973D01*
X147740066Y-113982973D02*
X147821019Y-114021068D01*
X148825780Y-113221068D02*
X148368638Y-113221068D01*
X148597209Y-113221068D02*
X148697209Y-114021068D01*
X148697209Y-114021068D02*
X148606733Y-113906783D01*
X148606733Y-113906783D02*
X148521019Y-113830592D01*
X148521019Y-113830592D02*
X148440066Y-113792497D01*
X149340066Y-113678211D02*
X149268638Y-113716306D01*
X149268638Y-113716306D02*
X149235304Y-113754402D01*
X149235304Y-113754402D02*
X149206733Y-113830592D01*
X149206733Y-113830592D02*
X149211495Y-113868687D01*
X149211495Y-113868687D02*
X149259114Y-113944878D01*
X149259114Y-113944878D02*
X149301971Y-113982973D01*
X149301971Y-113982973D02*
X149382924Y-114021068D01*
X149382924Y-114021068D02*
X149535304Y-114021068D01*
X149535304Y-114021068D02*
X149606733Y-113982973D01*
X149606733Y-113982973D02*
X149640066Y-113944878D01*
X149640066Y-113944878D02*
X149668638Y-113868687D01*
X149668638Y-113868687D02*
X149663876Y-113830592D01*
X149663876Y-113830592D02*
X149616257Y-113754402D01*
X149616257Y-113754402D02*
X149573400Y-113716306D01*
X149573400Y-113716306D02*
X149492447Y-113678211D01*
X149492447Y-113678211D02*
X149340066Y-113678211D01*
X149340066Y-113678211D02*
X149259114Y-113640116D01*
X149259114Y-113640116D02*
X149216257Y-113602021D01*
X149216257Y-113602021D02*
X149168638Y-113525830D01*
X149168638Y-113525830D02*
X149149590Y-113373449D01*
X149149590Y-113373449D02*
X149178162Y-113297259D01*
X149178162Y-113297259D02*
X149211495Y-113259164D01*
X149211495Y-113259164D02*
X149282924Y-113221068D01*
X149282924Y-113221068D02*
X149435304Y-113221068D01*
X149435304Y-113221068D02*
X149516257Y-113259164D01*
X149516257Y-113259164D02*
X149559114Y-113297259D01*
X149559114Y-113297259D02*
X149606733Y-113373449D01*
X149606733Y-113373449D02*
X149625781Y-113525830D01*
X149625781Y-113525830D02*
X149597209Y-113602021D01*
X149597209Y-113602021D02*
X149563876Y-113640116D01*
X149563876Y-113640116D02*
X149492447Y-113678211D01*
X153434009Y-109276411D02*
X153472104Y-109347839D01*
X153472104Y-109347839D02*
X153472104Y-109462125D01*
X153472104Y-109462125D02*
X153434009Y-109581172D01*
X153434009Y-109581172D02*
X153357819Y-109666887D01*
X153357819Y-109666887D02*
X153281628Y-109714506D01*
X153281628Y-109714506D02*
X153129247Y-109771649D01*
X153129247Y-109771649D02*
X153014961Y-109785934D01*
X153014961Y-109785934D02*
X152862580Y-109766887D01*
X152862580Y-109766887D02*
X152786390Y-109738315D01*
X152786390Y-109738315D02*
X152710200Y-109671649D01*
X152710200Y-109671649D02*
X152672104Y-109562125D01*
X152672104Y-109562125D02*
X152672104Y-109485934D01*
X152672104Y-109485934D02*
X152710200Y-109366887D01*
X152710200Y-109366887D02*
X152748295Y-109324030D01*
X152748295Y-109324030D02*
X153014961Y-109290696D01*
X153014961Y-109290696D02*
X153014961Y-109443077D01*
X152672104Y-108990696D02*
X153472104Y-108890696D01*
X153472104Y-108890696D02*
X152672104Y-108533553D01*
X152672104Y-108533553D02*
X153472104Y-108433553D01*
X152672104Y-108152601D02*
X153472104Y-108052601D01*
X153472104Y-108052601D02*
X153472104Y-107862125D01*
X153472104Y-107862125D02*
X153434009Y-107752601D01*
X153434009Y-107752601D02*
X153357819Y-107685935D01*
X153357819Y-107685935D02*
X153281628Y-107657363D01*
X153281628Y-107657363D02*
X153129247Y-107638316D01*
X153129247Y-107638316D02*
X153014961Y-107652601D01*
X153014961Y-107652601D02*
X152862580Y-107709744D01*
X152862580Y-107709744D02*
X152786390Y-107757363D01*
X152786390Y-107757363D02*
X152710200Y-107843077D01*
X152710200Y-107843077D02*
X152672104Y-107962125D01*
X152672104Y-107962125D02*
X152672104Y-108152601D01*
X145743352Y-141389640D02*
X146124304Y-141389640D01*
X145638590Y-141161068D02*
X146005257Y-141961068D01*
X146005257Y-141961068D02*
X146171923Y-141161068D01*
X146438590Y-141161068D02*
X146538590Y-141961068D01*
X146538590Y-141961068D02*
X146729066Y-141961068D01*
X146729066Y-141961068D02*
X146838590Y-141922973D01*
X146838590Y-141922973D02*
X146905256Y-141846783D01*
X146905256Y-141846783D02*
X146933828Y-141770592D01*
X146933828Y-141770592D02*
X146952876Y-141618211D01*
X146952876Y-141618211D02*
X146938590Y-141503925D01*
X146938590Y-141503925D02*
X146881447Y-141351544D01*
X146881447Y-141351544D02*
X146833828Y-141275354D01*
X146833828Y-141275354D02*
X146748114Y-141199164D01*
X146748114Y-141199164D02*
X146629066Y-141161068D01*
X146629066Y-141161068D02*
X146438590Y-141161068D01*
X147705256Y-141237259D02*
X147662399Y-141199164D01*
X147662399Y-141199164D02*
X147543352Y-141161068D01*
X147543352Y-141161068D02*
X147467161Y-141161068D01*
X147467161Y-141161068D02*
X147357637Y-141199164D01*
X147357637Y-141199164D02*
X147290971Y-141275354D01*
X147290971Y-141275354D02*
X147262399Y-141351544D01*
X147262399Y-141351544D02*
X147243352Y-141503925D01*
X147243352Y-141503925D02*
X147257637Y-141618211D01*
X147257637Y-141618211D02*
X147314780Y-141770592D01*
X147314780Y-141770592D02*
X147362399Y-141846783D01*
X147362399Y-141846783D02*
X147448114Y-141922973D01*
X147448114Y-141922973D02*
X147567161Y-141961068D01*
X147567161Y-141961068D02*
X147643352Y-141961068D01*
X147643352Y-141961068D02*
X147752876Y-141922973D01*
X147752876Y-141922973D02*
X147786209Y-141884878D01*
X148633828Y-141961068D02*
X148800495Y-141161068D01*
X148800495Y-141161068D02*
X149167161Y-141961068D01*
X149790971Y-141161068D02*
X149571923Y-141542021D01*
X149333828Y-141161068D02*
X149433828Y-141961068D01*
X149433828Y-141961068D02*
X149738590Y-141961068D01*
X149738590Y-141961068D02*
X149810018Y-141922973D01*
X149810018Y-141922973D02*
X149843352Y-141884878D01*
X149843352Y-141884878D02*
X149871923Y-141808687D01*
X149871923Y-141808687D02*
X149857637Y-141694402D01*
X149857637Y-141694402D02*
X149810018Y-141618211D01*
X149810018Y-141618211D02*
X149767161Y-141580116D01*
X149767161Y-141580116D02*
X149686209Y-141542021D01*
X149686209Y-141542021D02*
X149381447Y-141542021D01*
X150186209Y-141580116D02*
X150452875Y-141580116D01*
X150514780Y-141161068D02*
X150133828Y-141161068D01*
X150133828Y-141161068D02*
X150233828Y-141961068D01*
X150233828Y-141961068D02*
X150614780Y-141961068D01*
X151176685Y-141580116D02*
X150910019Y-141580116D01*
X150857638Y-141161068D02*
X150957638Y-141961068D01*
X150957638Y-141961068D02*
X151338590Y-141961068D01*
X145789161Y-144501068D02*
X146284399Y-144501068D01*
X146284399Y-144501068D02*
X145979638Y-144196306D01*
X145979638Y-144196306D02*
X146093923Y-144196306D01*
X146093923Y-144196306D02*
X146165352Y-144158211D01*
X146165352Y-144158211D02*
X146198685Y-144120116D01*
X146198685Y-144120116D02*
X146227257Y-144043925D01*
X146227257Y-144043925D02*
X146203447Y-143853449D01*
X146203447Y-143853449D02*
X146155828Y-143777259D01*
X146155828Y-143777259D02*
X146112971Y-143739164D01*
X146112971Y-143739164D02*
X146032018Y-143701068D01*
X146032018Y-143701068D02*
X145803447Y-143701068D01*
X145803447Y-143701068D02*
X145732018Y-143739164D01*
X145732018Y-143739164D02*
X145698685Y-143777259D01*
X146512971Y-144501068D02*
X146679638Y-143701068D01*
X146679638Y-143701068D02*
X147046304Y-144501068D01*
X147236780Y-144501068D02*
X147732018Y-144501068D01*
X147732018Y-144501068D02*
X147427257Y-144196306D01*
X147427257Y-144196306D02*
X147541542Y-144196306D01*
X147541542Y-144196306D02*
X147612971Y-144158211D01*
X147612971Y-144158211D02*
X147646304Y-144120116D01*
X147646304Y-144120116D02*
X147674876Y-144043925D01*
X147674876Y-144043925D02*
X147651066Y-143853449D01*
X147651066Y-143853449D02*
X147603447Y-143777259D01*
X147603447Y-143777259D02*
X147560590Y-143739164D01*
X147560590Y-143739164D02*
X147479637Y-143701068D01*
X147479637Y-143701068D02*
X147251066Y-143701068D01*
X147251066Y-143701068D02*
X147179637Y-143739164D01*
X147179637Y-143739164D02*
X147146304Y-143777259D01*
D11*
X158956853Y-154473444D02*
X158912210Y-154497254D01*
X158912210Y-154497254D02*
X158840781Y-154497254D01*
X158840781Y-154497254D02*
X158766376Y-154473444D01*
X158766376Y-154473444D02*
X158712805Y-154425825D01*
X158712805Y-154425825D02*
X158683043Y-154378206D01*
X158683043Y-154378206D02*
X158647329Y-154282968D01*
X158647329Y-154282968D02*
X158638400Y-154211540D01*
X158638400Y-154211540D02*
X158650305Y-154116302D01*
X158650305Y-154116302D02*
X158668162Y-154068683D01*
X158668162Y-154068683D02*
X158709829Y-154021064D01*
X158709829Y-154021064D02*
X158778281Y-153997254D01*
X158778281Y-153997254D02*
X158825900Y-153997254D01*
X158825900Y-153997254D02*
X158900305Y-154021064D01*
X158900305Y-154021064D02*
X158927091Y-154044873D01*
X158927091Y-154044873D02*
X158947924Y-154211540D01*
X158947924Y-154211540D02*
X158852686Y-154211540D01*
X159135424Y-153997254D02*
X159197924Y-154497254D01*
X159197924Y-154497254D02*
X159388400Y-154497254D01*
X159388400Y-154497254D02*
X159433043Y-154473444D01*
X159433043Y-154473444D02*
X159453876Y-154449635D01*
X159453876Y-154449635D02*
X159471733Y-154402016D01*
X159471733Y-154402016D02*
X159462805Y-154330587D01*
X159462805Y-154330587D02*
X159433043Y-154282968D01*
X159433043Y-154282968D02*
X159406257Y-154259159D01*
X159406257Y-154259159D02*
X159355662Y-154235349D01*
X159355662Y-154235349D02*
X159165186Y-154235349D01*
X159635424Y-153997254D02*
X159697924Y-154497254D01*
X160031257Y-154497254D02*
X160126495Y-154497254D01*
X160126495Y-154497254D02*
X160171138Y-154473444D01*
X160171138Y-154473444D02*
X160212805Y-154425825D01*
X160212805Y-154425825D02*
X160224709Y-154330587D01*
X160224709Y-154330587D02*
X160203876Y-154163921D01*
X160203876Y-154163921D02*
X160168162Y-154068683D01*
X160168162Y-154068683D02*
X160114590Y-154021064D01*
X160114590Y-154021064D02*
X160063995Y-153997254D01*
X160063995Y-153997254D02*
X159968757Y-153997254D01*
X159968757Y-153997254D02*
X159924114Y-154021064D01*
X159924114Y-154021064D02*
X159882448Y-154068683D01*
X159882448Y-154068683D02*
X159870543Y-154163921D01*
X159870543Y-154163921D02*
X159891376Y-154330587D01*
X159891376Y-154330587D02*
X159927090Y-154425825D01*
X159927090Y-154425825D02*
X159980662Y-154473444D01*
X159980662Y-154473444D02*
X160031257Y-154497254D01*
X160555067Y-154497254D02*
X160602686Y-154497254D01*
X160602686Y-154497254D02*
X160647329Y-154473444D01*
X160647329Y-154473444D02*
X160668162Y-154449635D01*
X160668162Y-154449635D02*
X160686019Y-154402016D01*
X160686019Y-154402016D02*
X160697924Y-154306778D01*
X160697924Y-154306778D02*
X160683043Y-154187730D01*
X160683043Y-154187730D02*
X160647329Y-154092492D01*
X160647329Y-154092492D02*
X160617567Y-154044873D01*
X160617567Y-154044873D02*
X160590781Y-154021064D01*
X160590781Y-154021064D02*
X160540186Y-153997254D01*
X160540186Y-153997254D02*
X160492567Y-153997254D01*
X160492567Y-153997254D02*
X160447924Y-154021064D01*
X160447924Y-154021064D02*
X160427091Y-154044873D01*
X160427091Y-154044873D02*
X160409234Y-154092492D01*
X160409234Y-154092492D02*
X160397329Y-154187730D01*
X160397329Y-154187730D02*
X160412210Y-154306778D01*
X160412210Y-154306778D02*
X160447924Y-154402016D01*
X160447924Y-154402016D02*
X160477686Y-154449635D01*
X160477686Y-154449635D02*
X160504472Y-154473444D01*
X160504472Y-154473444D02*
X160555067Y-154497254D01*
D10*
X161845238Y-82730057D02*
X161940476Y-82682438D01*
X161940476Y-82682438D02*
X162035714Y-82587200D01*
X162035714Y-82587200D02*
X162178571Y-82444342D01*
X162178571Y-82444342D02*
X162273809Y-82396723D01*
X162273809Y-82396723D02*
X162369047Y-82396723D01*
X162321428Y-82634819D02*
X162416666Y-82587200D01*
X162416666Y-82587200D02*
X162511904Y-82491961D01*
X162511904Y-82491961D02*
X162559523Y-82301485D01*
X162559523Y-82301485D02*
X162559523Y-81968152D01*
X162559523Y-81968152D02*
X162511904Y-81777676D01*
X162511904Y-81777676D02*
X162416666Y-81682438D01*
X162416666Y-81682438D02*
X162321428Y-81634819D01*
X162321428Y-81634819D02*
X162130952Y-81634819D01*
X162130952Y-81634819D02*
X162035714Y-81682438D01*
X162035714Y-81682438D02*
X161940476Y-81777676D01*
X161940476Y-81777676D02*
X161892857Y-81968152D01*
X161892857Y-81968152D02*
X161892857Y-82301485D01*
X161892857Y-82301485D02*
X161940476Y-82491961D01*
X161940476Y-82491961D02*
X162035714Y-82587200D01*
X162035714Y-82587200D02*
X162130952Y-82634819D01*
X162130952Y-82634819D02*
X162321428Y-82634819D01*
X160940476Y-82634819D02*
X161511904Y-82634819D01*
X161226190Y-82634819D02*
X161226190Y-81634819D01*
X161226190Y-81634819D02*
X161321428Y-81777676D01*
X161321428Y-81777676D02*
X161416666Y-81872914D01*
X161416666Y-81872914D02*
X161511904Y-81920533D01*
X162095238Y-90560057D02*
X162190476Y-90512438D01*
X162190476Y-90512438D02*
X162285714Y-90417200D01*
X162285714Y-90417200D02*
X162428571Y-90274342D01*
X162428571Y-90274342D02*
X162523809Y-90226723D01*
X162523809Y-90226723D02*
X162619047Y-90226723D01*
X162571428Y-90464819D02*
X162666666Y-90417200D01*
X162666666Y-90417200D02*
X162761904Y-90321961D01*
X162761904Y-90321961D02*
X162809523Y-90131485D01*
X162809523Y-90131485D02*
X162809523Y-89798152D01*
X162809523Y-89798152D02*
X162761904Y-89607676D01*
X162761904Y-89607676D02*
X162666666Y-89512438D01*
X162666666Y-89512438D02*
X162571428Y-89464819D01*
X162571428Y-89464819D02*
X162380952Y-89464819D01*
X162380952Y-89464819D02*
X162285714Y-89512438D01*
X162285714Y-89512438D02*
X162190476Y-89607676D01*
X162190476Y-89607676D02*
X162142857Y-89798152D01*
X162142857Y-89798152D02*
X162142857Y-90131485D01*
X162142857Y-90131485D02*
X162190476Y-90321961D01*
X162190476Y-90321961D02*
X162285714Y-90417200D01*
X162285714Y-90417200D02*
X162380952Y-90464819D01*
X162380952Y-90464819D02*
X162571428Y-90464819D01*
X161761904Y-89560057D02*
X161714285Y-89512438D01*
X161714285Y-89512438D02*
X161619047Y-89464819D01*
X161619047Y-89464819D02*
X161380952Y-89464819D01*
X161380952Y-89464819D02*
X161285714Y-89512438D01*
X161285714Y-89512438D02*
X161238095Y-89560057D01*
X161238095Y-89560057D02*
X161190476Y-89655295D01*
X161190476Y-89655295D02*
X161190476Y-89750533D01*
X161190476Y-89750533D02*
X161238095Y-89893390D01*
X161238095Y-89893390D02*
X161809523Y-90464819D01*
X161809523Y-90464819D02*
X161190476Y-90464819D01*
D12*
%TO.C,Q1*%
X160395000Y-85655000D02*
X160395000Y-85385000D01*
X160395000Y-85385000D02*
X161495000Y-85385000D01*
X160395000Y-79025000D02*
X163225000Y-79025000D01*
X160395000Y-78755000D02*
X160395000Y-79025000D01*
X158895000Y-85655000D02*
X160395000Y-85655000D01*
X158895000Y-78755000D02*
X160395000Y-78755000D01*
%TO.C,Q2*%
X160400000Y-93570000D02*
X160400000Y-93300000D01*
X160400000Y-93300000D02*
X161500000Y-93300000D01*
X160400000Y-86940000D02*
X163230000Y-86940000D01*
X160400000Y-86670000D02*
X160400000Y-86940000D01*
X158900000Y-93570000D02*
X160400000Y-93570000D01*
X158900000Y-86670000D02*
X160400000Y-86670000D01*
%TO.C,G\u002A\u002A\u002A*%
G36*
X132458269Y-87778888D02*
G01*
X132352406Y-87778888D01*
X132352406Y-87345956D01*
X132458269Y-87345956D01*
X132458269Y-87778888D01*
G37*
G36*
X132136730Y-87511860D02*
G01*
X132301054Y-87511860D01*
X132301054Y-87612193D01*
X132136730Y-87612193D01*
X132136730Y-87778888D01*
X132030867Y-87778888D01*
X132030867Y-87345956D01*
X132136730Y-87345956D01*
X132136730Y-87511860D01*
G37*
G36*
X131656592Y-87484798D02*
G01*
X131656791Y-87623640D01*
X131848767Y-87346020D01*
X131977935Y-87345956D01*
X131977935Y-87778888D01*
X131871287Y-87778888D01*
X131871087Y-87640235D01*
X131870887Y-87501581D01*
X131774900Y-87640218D01*
X131678912Y-87778855D01*
X131614328Y-87778871D01*
X131549743Y-87778888D01*
X131549743Y-87345956D01*
X131656392Y-87345956D01*
X131656592Y-87484798D01*
G37*
G36*
X133651391Y-87345584D02*
G01*
X133670676Y-87345599D01*
X133689429Y-87345624D01*
X133707390Y-87345660D01*
X133724295Y-87345705D01*
X133739882Y-87345760D01*
X133847918Y-87346199D01*
X133847918Y-87452609D01*
X133685173Y-87452609D01*
X133685173Y-87778888D01*
X133578520Y-87778888D01*
X133578520Y-87452609D01*
X133414986Y-87452609D01*
X133414986Y-87346200D01*
X133523416Y-87345760D01*
X133523581Y-87345760D01*
X133539234Y-87345705D01*
X133556193Y-87345659D01*
X133574195Y-87345624D01*
X133592979Y-87345599D01*
X133612281Y-87345584D01*
X133631839Y-87345579D01*
X133651391Y-87345584D01*
G37*
G36*
X134957305Y-87388015D02*
G01*
X134957504Y-87577809D01*
X135221132Y-87198221D01*
X135396361Y-87198221D01*
X135396361Y-87788368D01*
X135252580Y-87788368D01*
X135252381Y-87598335D01*
X135252182Y-87408303D01*
X134988238Y-87787973D01*
X134900300Y-87788174D01*
X134892545Y-87788191D01*
X134879652Y-87788217D01*
X134868208Y-87788236D01*
X134858129Y-87788246D01*
X134849329Y-87788246D01*
X134841726Y-87788235D01*
X134835234Y-87788213D01*
X134829768Y-87788178D01*
X134825245Y-87788129D01*
X134821579Y-87788066D01*
X134818687Y-87787986D01*
X134816483Y-87787890D01*
X134814884Y-87787776D01*
X134813806Y-87787643D01*
X134813162Y-87787491D01*
X134812870Y-87787317D01*
X134812844Y-87787122D01*
X134812858Y-87786961D01*
X134812893Y-87785477D01*
X134812927Y-87782489D01*
X134812960Y-87778053D01*
X134812993Y-87772225D01*
X134813024Y-87765059D01*
X134813055Y-87756611D01*
X134813084Y-87746936D01*
X134813112Y-87736088D01*
X134813139Y-87724124D01*
X134813164Y-87711098D01*
X134813188Y-87697065D01*
X134813210Y-87682081D01*
X134813231Y-87666200D01*
X134813250Y-87649479D01*
X134813266Y-87631971D01*
X134813281Y-87613733D01*
X134813294Y-87594819D01*
X134813305Y-87575285D01*
X134813313Y-87555185D01*
X134813320Y-87534575D01*
X134813323Y-87513510D01*
X134813325Y-87492045D01*
X134813325Y-87198221D01*
X134957105Y-87198221D01*
X134957305Y-87388015D01*
G37*
G36*
X131033859Y-87526032D02*
G01*
X131033861Y-87544848D01*
X131033863Y-87562185D01*
X131033862Y-87578108D01*
X131033859Y-87592683D01*
X131033849Y-87605976D01*
X131033833Y-87618052D01*
X131033808Y-87628976D01*
X131033772Y-87638815D01*
X131033723Y-87647634D01*
X131033661Y-87655499D01*
X131033583Y-87662474D01*
X131033487Y-87668627D01*
X131033371Y-87674022D01*
X131033235Y-87678724D01*
X131033075Y-87682801D01*
X131032891Y-87686316D01*
X131032680Y-87689337D01*
X131032441Y-87691927D01*
X131032172Y-87694154D01*
X131031871Y-87696082D01*
X131031537Y-87697778D01*
X131031168Y-87699306D01*
X131030761Y-87700733D01*
X131030316Y-87702124D01*
X131029830Y-87703544D01*
X131029303Y-87705060D01*
X131028731Y-87706736D01*
X131027135Y-87711262D01*
X131024304Y-87718063D01*
X131020993Y-87724432D01*
X131016854Y-87731091D01*
X131009646Y-87740743D01*
X131000867Y-87750041D01*
X130991110Y-87758180D01*
X130980489Y-87765086D01*
X130969119Y-87770686D01*
X130957114Y-87774906D01*
X130944587Y-87777673D01*
X130943743Y-87777780D01*
X130942271Y-87777903D01*
X130940267Y-87778017D01*
X130937671Y-87778120D01*
X130934419Y-87778214D01*
X130930451Y-87778300D01*
X130925704Y-87778377D01*
X130920118Y-87778446D01*
X130913630Y-87778508D01*
X130906179Y-87778563D01*
X130897703Y-87778611D01*
X130888140Y-87778653D01*
X130877429Y-87778689D01*
X130865508Y-87778720D01*
X130852315Y-87778746D01*
X130837789Y-87778768D01*
X130821868Y-87778786D01*
X130804491Y-87778800D01*
X130785595Y-87778811D01*
X130633318Y-87778888D01*
X130633318Y-87678555D01*
X130927996Y-87678555D01*
X130927996Y-87345956D01*
X131033859Y-87345956D01*
X131033859Y-87526032D01*
G37*
G36*
X137467799Y-87788368D02*
G01*
X137323228Y-87788368D01*
X137322830Y-87408682D01*
X137191514Y-87596788D01*
X137103513Y-87596943D01*
X137015511Y-87597099D01*
X136950334Y-87503412D01*
X136885158Y-87409726D01*
X136884958Y-87599047D01*
X136884759Y-87788368D01*
X136740189Y-87788368D01*
X136740189Y-87494544D01*
X136740188Y-87485984D01*
X136740186Y-87464671D01*
X136740181Y-87443780D01*
X136740174Y-87423366D01*
X136740165Y-87403484D01*
X136740153Y-87384189D01*
X136740140Y-87365537D01*
X136740124Y-87347582D01*
X136740106Y-87330380D01*
X136740087Y-87313985D01*
X136740066Y-87298454D01*
X136740043Y-87283841D01*
X136740019Y-87270201D01*
X136739993Y-87257590D01*
X136739966Y-87246062D01*
X136739937Y-87235674D01*
X136739907Y-87226479D01*
X136739877Y-87218533D01*
X136739845Y-87211891D01*
X136739812Y-87206609D01*
X136739778Y-87202742D01*
X136739744Y-87200344D01*
X136739709Y-87199471D01*
X136739695Y-87199367D01*
X136739854Y-87199183D01*
X136740326Y-87199020D01*
X136741198Y-87198876D01*
X136742552Y-87198751D01*
X136744475Y-87198644D01*
X136747049Y-87198552D01*
X136750359Y-87198475D01*
X136754490Y-87198412D01*
X136759525Y-87198362D01*
X136765551Y-87198323D01*
X136772650Y-87198294D01*
X136780907Y-87198275D01*
X136790406Y-87198263D01*
X136801233Y-87198258D01*
X136813471Y-87198259D01*
X136827204Y-87198264D01*
X136915178Y-87198306D01*
X137009181Y-87333753D01*
X137016350Y-87344080D01*
X137025303Y-87356974D01*
X137033986Y-87369472D01*
X137042356Y-87381514D01*
X137050371Y-87393040D01*
X137057988Y-87403989D01*
X137065167Y-87414301D01*
X137071865Y-87423917D01*
X137078040Y-87432775D01*
X137083651Y-87440817D01*
X137088655Y-87447981D01*
X137093010Y-87454207D01*
X137096674Y-87459436D01*
X137099607Y-87463607D01*
X137101764Y-87466660D01*
X137103106Y-87468535D01*
X137103588Y-87469171D01*
X137103892Y-87468776D01*
X137105050Y-87467160D01*
X137107034Y-87464353D01*
X137109802Y-87460416D01*
X137113311Y-87455407D01*
X137117520Y-87449388D01*
X137122387Y-87442418D01*
X137127869Y-87434558D01*
X137133926Y-87425869D01*
X137140515Y-87416409D01*
X137147593Y-87406240D01*
X137155120Y-87395422D01*
X137163053Y-87384014D01*
X137171350Y-87372077D01*
X137179969Y-87359671D01*
X137188868Y-87346857D01*
X137198006Y-87333694D01*
X137292019Y-87198246D01*
X137379909Y-87198234D01*
X137467799Y-87198221D01*
X137467799Y-87788368D01*
G37*
G36*
X129410395Y-87415873D02*
G01*
X129410716Y-87416337D01*
X129417222Y-87425737D01*
X129423476Y-87434759D01*
X129429419Y-87443319D01*
X129434992Y-87451334D01*
X129440137Y-87458720D01*
X129444796Y-87465392D01*
X129448909Y-87471266D01*
X129452419Y-87476260D01*
X129455266Y-87480289D01*
X129457391Y-87483269D01*
X129458736Y-87485116D01*
X129459243Y-87485746D01*
X129459247Y-87485745D01*
X129459785Y-87485055D01*
X129461159Y-87483151D01*
X129463309Y-87480117D01*
X129466177Y-87476037D01*
X129469705Y-87470996D01*
X129473833Y-87465077D01*
X129478503Y-87458364D01*
X129483656Y-87450943D01*
X129489234Y-87442896D01*
X129495179Y-87434308D01*
X129501431Y-87425264D01*
X129507931Y-87415846D01*
X129556123Y-87345990D01*
X129620792Y-87345973D01*
X129621439Y-87345973D01*
X129633385Y-87345974D01*
X129643840Y-87345986D01*
X129652890Y-87346009D01*
X129660619Y-87346045D01*
X129667111Y-87346095D01*
X129672452Y-87346160D01*
X129676728Y-87346242D01*
X129680021Y-87346341D01*
X129682419Y-87346460D01*
X129684004Y-87346599D01*
X129684864Y-87346760D01*
X129685081Y-87346943D01*
X129685075Y-87346956D01*
X129684521Y-87347802D01*
X129683115Y-87349878D01*
X129680901Y-87353122D01*
X129677923Y-87357469D01*
X129674225Y-87362857D01*
X129669850Y-87369221D01*
X129664841Y-87376499D01*
X129659244Y-87384627D01*
X129653100Y-87393542D01*
X129646455Y-87403179D01*
X129639351Y-87413476D01*
X129631833Y-87424369D01*
X129623944Y-87435795D01*
X129615728Y-87447691D01*
X129607228Y-87459992D01*
X129598489Y-87472635D01*
X129512277Y-87597340D01*
X129512277Y-87778888D01*
X129405624Y-87778888D01*
X129405619Y-87687838D01*
X129405615Y-87596788D01*
X129319112Y-87471669D01*
X129318056Y-87470142D01*
X129309335Y-87457526D01*
X129300863Y-87445267D01*
X129292682Y-87433426D01*
X129284836Y-87422068D01*
X129277369Y-87411255D01*
X129270324Y-87401049D01*
X129263743Y-87391514D01*
X129257672Y-87382712D01*
X129252152Y-87374707D01*
X129247227Y-87367562D01*
X129242941Y-87361338D01*
X129239337Y-87356099D01*
X129236458Y-87351908D01*
X129234349Y-87348829D01*
X129233051Y-87346922D01*
X129232609Y-87346253D01*
X129232816Y-87346229D01*
X129234357Y-87346184D01*
X129237300Y-87346142D01*
X129241529Y-87346103D01*
X129246928Y-87346067D01*
X129253378Y-87346035D01*
X129260764Y-87346008D01*
X129268969Y-87345986D01*
X129277876Y-87345969D01*
X129287367Y-87345959D01*
X129297326Y-87345956D01*
X129362043Y-87345956D01*
X129410395Y-87415873D01*
G37*
G36*
X133132355Y-87346160D02*
G01*
X133133466Y-87346162D01*
X133151721Y-87346191D01*
X133168468Y-87346219D01*
X133183775Y-87346246D01*
X133197712Y-87346273D01*
X133210345Y-87346301D01*
X133221745Y-87346331D01*
X133231978Y-87346363D01*
X133241113Y-87346398D01*
X133249218Y-87346437D01*
X133256363Y-87346482D01*
X133262614Y-87346531D01*
X133268041Y-87346588D01*
X133272712Y-87346651D01*
X133276695Y-87346723D01*
X133280058Y-87346804D01*
X133282870Y-87346894D01*
X133285199Y-87346995D01*
X133287113Y-87347107D01*
X133288681Y-87347231D01*
X133289971Y-87347368D01*
X133291051Y-87347519D01*
X133291990Y-87347684D01*
X133292856Y-87347865D01*
X133293717Y-87348062D01*
X133299095Y-87349437D01*
X133311751Y-87353729D01*
X133323544Y-87359276D01*
X133334408Y-87366034D01*
X133344276Y-87373959D01*
X133353080Y-87383005D01*
X133360754Y-87393127D01*
X133362814Y-87396311D01*
X133367215Y-87403977D01*
X133370828Y-87411778D01*
X133373859Y-87420192D01*
X133376516Y-87429698D01*
X133376595Y-87430017D01*
X133376810Y-87430921D01*
X133377005Y-87431854D01*
X133377181Y-87432894D01*
X133377339Y-87434119D01*
X133377480Y-87435605D01*
X133377607Y-87437430D01*
X133377719Y-87439672D01*
X133377817Y-87442409D01*
X133377904Y-87445717D01*
X133377980Y-87449675D01*
X133378047Y-87454361D01*
X133378104Y-87459850D01*
X133378155Y-87466222D01*
X133378199Y-87473554D01*
X133378239Y-87481922D01*
X133378274Y-87491406D01*
X133378307Y-87502082D01*
X133378338Y-87514027D01*
X133378369Y-87527320D01*
X133378400Y-87542039D01*
X133378434Y-87558259D01*
X133378460Y-87570872D01*
X133378491Y-87586439D01*
X133378517Y-87600565D01*
X133378535Y-87613329D01*
X133378542Y-87624811D01*
X133378536Y-87635089D01*
X133378516Y-87644243D01*
X133378479Y-87652353D01*
X133378422Y-87659498D01*
X133378343Y-87665758D01*
X133378241Y-87671210D01*
X133378112Y-87675936D01*
X133377955Y-87680015D01*
X133377767Y-87683525D01*
X133377546Y-87686547D01*
X133377290Y-87689159D01*
X133376997Y-87691441D01*
X133376664Y-87693473D01*
X133376288Y-87695333D01*
X133375869Y-87697102D01*
X133375403Y-87698858D01*
X133374888Y-87700681D01*
X133374322Y-87702651D01*
X133373889Y-87704082D01*
X133371620Y-87710264D01*
X133368622Y-87717000D01*
X133365148Y-87723785D01*
X133361450Y-87730118D01*
X133357783Y-87735495D01*
X133354188Y-87740007D01*
X133345382Y-87749287D01*
X133335600Y-87757422D01*
X133324975Y-87764329D01*
X133313640Y-87769928D01*
X133301728Y-87774140D01*
X133289372Y-87776883D01*
X133289353Y-87776886D01*
X133288265Y-87777016D01*
X133286695Y-87777136D01*
X133284584Y-87777246D01*
X133281868Y-87777347D01*
X133278489Y-87777439D01*
X133274383Y-87777522D01*
X133269491Y-87777597D01*
X133263752Y-87777664D01*
X133257104Y-87777725D01*
X133249486Y-87777778D01*
X133240838Y-87777825D01*
X133231097Y-87777866D01*
X133220204Y-87777901D01*
X133208098Y-87777931D01*
X133194716Y-87777957D01*
X133179998Y-87777978D01*
X133163884Y-87777996D01*
X133146312Y-87778010D01*
X133127220Y-87778021D01*
X132971783Y-87778098D01*
X132971783Y-87677765D01*
X133271992Y-87677765D01*
X133271992Y-87612193D01*
X132983634Y-87612193D01*
X132983634Y-87511860D01*
X133271992Y-87511860D01*
X133271992Y-87446288D01*
X132978103Y-87446288D01*
X132978103Y-87345914D01*
X133132355Y-87346160D01*
G37*
G36*
X138102977Y-87334105D02*
G01*
X137677945Y-87334105D01*
X137677945Y-87424168D01*
X138083226Y-87424168D01*
X138083226Y-87561632D01*
X137677945Y-87561632D01*
X137677945Y-87651694D01*
X138111667Y-87651694D01*
X138111667Y-87788368D01*
X137890263Y-87788361D01*
X137874775Y-87788360D01*
X137849932Y-87788353D01*
X137826608Y-87788339D01*
X137804805Y-87788320D01*
X137784528Y-87788295D01*
X137765781Y-87788265D01*
X137748569Y-87788228D01*
X137732895Y-87788185D01*
X137718764Y-87788137D01*
X137706180Y-87788083D01*
X137695146Y-87788023D01*
X137685668Y-87787957D01*
X137677749Y-87787886D01*
X137671394Y-87787808D01*
X137666606Y-87787725D01*
X137663390Y-87787637D01*
X137661749Y-87787542D01*
X137651311Y-87785984D01*
X137636706Y-87782493D01*
X137622678Y-87777534D01*
X137609215Y-87771101D01*
X137596304Y-87763191D01*
X137583931Y-87753795D01*
X137575498Y-87746083D01*
X137565843Y-87735386D01*
X137557269Y-87723659D01*
X137549850Y-87711033D01*
X137543663Y-87697640D01*
X137538782Y-87683610D01*
X137535283Y-87669075D01*
X137534964Y-87666842D01*
X137534597Y-87662753D01*
X137534276Y-87657454D01*
X137534001Y-87651154D01*
X137533774Y-87644059D01*
X137533597Y-87636376D01*
X137533472Y-87628312D01*
X137533401Y-87620075D01*
X137533384Y-87611872D01*
X137533424Y-87603910D01*
X137533522Y-87596396D01*
X137533680Y-87589537D01*
X137533899Y-87583541D01*
X137534182Y-87578615D01*
X137534530Y-87574965D01*
X137535218Y-87570118D01*
X137537376Y-87558879D01*
X137540318Y-87548200D01*
X137544197Y-87537569D01*
X137549168Y-87526476D01*
X137551725Y-87521390D01*
X137559370Y-87508185D01*
X137567934Y-87496114D01*
X137571916Y-87491032D01*
X137567191Y-87485448D01*
X137560684Y-87477086D01*
X137553282Y-87465666D01*
X137546889Y-87453531D01*
X137541685Y-87441029D01*
X137537849Y-87428506D01*
X137537163Y-87425732D01*
X137536395Y-87422511D01*
X137535753Y-87419547D01*
X137535225Y-87416672D01*
X137534800Y-87413720D01*
X137534467Y-87410524D01*
X137534214Y-87406917D01*
X137534031Y-87402731D01*
X137533906Y-87397800D01*
X137533828Y-87391957D01*
X137533786Y-87385035D01*
X137533769Y-87376867D01*
X137533766Y-87367286D01*
X137533767Y-87360072D01*
X137533780Y-87351546D01*
X137533814Y-87344310D01*
X137533882Y-87338199D01*
X137533993Y-87333045D01*
X137534160Y-87328682D01*
X137534392Y-87324944D01*
X137534702Y-87321665D01*
X137535099Y-87318676D01*
X137535595Y-87315813D01*
X137536201Y-87312909D01*
X137536928Y-87309797D01*
X137537787Y-87306310D01*
X137538960Y-87301925D01*
X137543642Y-87288292D01*
X137549749Y-87275066D01*
X137557163Y-87262478D01*
X137565768Y-87250758D01*
X137567754Y-87248422D01*
X137572482Y-87243332D01*
X137577905Y-87237973D01*
X137583611Y-87232728D01*
X137589190Y-87227982D01*
X137594234Y-87224118D01*
X137596526Y-87222527D01*
X137608751Y-87215144D01*
X137621852Y-87208939D01*
X137635594Y-87204001D01*
X137649742Y-87200416D01*
X137664059Y-87198272D01*
X137665342Y-87198193D01*
X137668218Y-87198099D01*
X137672516Y-87198012D01*
X137678245Y-87197931D01*
X137685416Y-87197856D01*
X137694041Y-87197787D01*
X137704129Y-87197725D01*
X137715691Y-87197668D01*
X137728738Y-87197618D01*
X137743280Y-87197574D01*
X137759328Y-87197536D01*
X137776892Y-87197504D01*
X137795984Y-87197478D01*
X137816613Y-87197457D01*
X137838791Y-87197443D01*
X137862527Y-87197434D01*
X137887833Y-87197431D01*
X138102977Y-87197431D01*
X138102977Y-87334105D01*
G37*
G36*
X130040406Y-87346408D02*
G01*
X130047736Y-87348100D01*
X130054016Y-87349688D01*
X130065453Y-87353430D01*
X130075825Y-87358059D01*
X130085347Y-87363663D01*
X130091285Y-87367906D01*
X130101164Y-87376421D01*
X130109821Y-87385916D01*
X130117214Y-87396329D01*
X130123304Y-87407599D01*
X130128048Y-87419664D01*
X130131405Y-87432463D01*
X130131451Y-87432693D01*
X130131638Y-87433720D01*
X130131807Y-87434857D01*
X130131959Y-87436183D01*
X130132096Y-87437774D01*
X130132218Y-87439707D01*
X130132326Y-87442061D01*
X130132421Y-87444912D01*
X130132503Y-87448337D01*
X130132574Y-87452415D01*
X130132634Y-87457222D01*
X130132684Y-87462836D01*
X130132726Y-87469334D01*
X130132759Y-87476793D01*
X130132786Y-87485291D01*
X130132805Y-87494905D01*
X130132820Y-87505712D01*
X130132829Y-87517790D01*
X130132835Y-87531216D01*
X130132838Y-87546067D01*
X130132839Y-87562422D01*
X130132839Y-87566346D01*
X130132838Y-87582345D01*
X130132834Y-87596860D01*
X130132828Y-87609967D01*
X130132817Y-87621744D01*
X130132801Y-87632268D01*
X130132780Y-87641616D01*
X130132752Y-87649867D01*
X130132717Y-87657097D01*
X130132674Y-87663383D01*
X130132621Y-87668803D01*
X130132558Y-87673434D01*
X130132485Y-87677354D01*
X130132400Y-87680640D01*
X130132302Y-87683369D01*
X130132191Y-87685618D01*
X130132066Y-87687466D01*
X130131925Y-87688988D01*
X130131769Y-87690263D01*
X130131596Y-87691368D01*
X130131405Y-87692380D01*
X130128289Y-87704571D01*
X130123754Y-87716516D01*
X130117891Y-87727639D01*
X130110662Y-87738013D01*
X130102028Y-87747710D01*
X130099417Y-87750242D01*
X130089612Y-87758395D01*
X130078977Y-87765287D01*
X130067660Y-87770844D01*
X130055807Y-87774989D01*
X130043566Y-87777649D01*
X130042945Y-87777733D01*
X130041453Y-87777878D01*
X130039462Y-87778010D01*
X130036900Y-87778129D01*
X130033695Y-87778235D01*
X130029775Y-87778330D01*
X130025068Y-87778415D01*
X130019502Y-87778489D01*
X130013004Y-87778554D01*
X130005503Y-87778610D01*
X129996926Y-87778658D01*
X129987202Y-87778698D01*
X129976258Y-87778731D01*
X129964022Y-87778759D01*
X129950423Y-87778781D01*
X129935388Y-87778798D01*
X129918844Y-87778811D01*
X129910739Y-87778817D01*
X129894947Y-87778827D01*
X129880616Y-87778833D01*
X129867665Y-87778834D01*
X129856015Y-87778825D01*
X129845584Y-87778804D01*
X129836293Y-87778769D01*
X129828061Y-87778716D01*
X129820807Y-87778644D01*
X129814452Y-87778549D01*
X129808914Y-87778428D01*
X129804113Y-87778279D01*
X129799969Y-87778100D01*
X129796402Y-87777886D01*
X129793330Y-87777637D01*
X129790674Y-87777348D01*
X129788353Y-87777018D01*
X129786287Y-87776643D01*
X129784395Y-87776221D01*
X129782597Y-87775748D01*
X129780812Y-87775224D01*
X129778960Y-87774643D01*
X129776960Y-87774005D01*
X129776920Y-87773992D01*
X129764904Y-87769357D01*
X129753697Y-87763409D01*
X129743378Y-87756236D01*
X129734024Y-87747928D01*
X129725714Y-87738572D01*
X129718528Y-87728257D01*
X129712543Y-87717072D01*
X129707837Y-87705103D01*
X129704490Y-87692440D01*
X129704293Y-87691355D01*
X129704097Y-87689947D01*
X129703924Y-87688226D01*
X129703771Y-87686094D01*
X129703636Y-87683453D01*
X129703517Y-87680206D01*
X129703414Y-87676257D01*
X129703323Y-87671506D01*
X129703244Y-87665858D01*
X129703173Y-87659213D01*
X129703110Y-87651476D01*
X129703053Y-87642549D01*
X129702999Y-87632334D01*
X129702948Y-87620733D01*
X129702896Y-87607650D01*
X129702600Y-87529241D01*
X129922298Y-87529241D01*
X129922298Y-87629573D01*
X129809325Y-87629573D01*
X129809325Y-87678555D01*
X130026581Y-87678555D01*
X130026581Y-87446288D01*
X129714522Y-87446288D01*
X129714522Y-87345912D01*
X130040406Y-87346408D01*
G37*
G36*
X136044393Y-87651898D02*
G01*
X136044253Y-87655941D01*
X136044091Y-87659444D01*
X136043906Y-87662474D01*
X136043696Y-87665098D01*
X136043460Y-87667382D01*
X136043197Y-87669395D01*
X136042905Y-87671201D01*
X136042584Y-87672869D01*
X136042231Y-87674465D01*
X136041846Y-87676055D01*
X136041426Y-87677707D01*
X136040971Y-87679487D01*
X136040875Y-87679864D01*
X136036476Y-87693934D01*
X136030711Y-87707340D01*
X136023668Y-87720005D01*
X136015440Y-87731847D01*
X136006116Y-87742789D01*
X135995787Y-87752751D01*
X135984543Y-87761653D01*
X135972475Y-87769416D01*
X135959674Y-87775961D01*
X135946230Y-87781209D01*
X135932234Y-87785079D01*
X135917776Y-87787492D01*
X135916429Y-87787572D01*
X135913513Y-87787655D01*
X135909193Y-87787734D01*
X135903564Y-87787807D01*
X135896717Y-87787875D01*
X135888747Y-87787937D01*
X135879746Y-87787995D01*
X135869809Y-87788047D01*
X135859027Y-87788094D01*
X135847494Y-87788135D01*
X135835303Y-87788172D01*
X135822548Y-87788203D01*
X135809322Y-87788228D01*
X135795717Y-87788249D01*
X135781827Y-87788264D01*
X135767746Y-87788274D01*
X135753566Y-87788278D01*
X135739381Y-87788277D01*
X135725283Y-87788271D01*
X135711366Y-87788259D01*
X135697723Y-87788242D01*
X135684448Y-87788219D01*
X135671633Y-87788191D01*
X135659372Y-87788158D01*
X135647758Y-87788119D01*
X135636884Y-87788075D01*
X135626842Y-87788025D01*
X135617728Y-87787970D01*
X135609633Y-87787910D01*
X135602650Y-87787844D01*
X135596874Y-87787772D01*
X135592397Y-87787695D01*
X135589312Y-87787613D01*
X135587713Y-87787525D01*
X135575404Y-87785625D01*
X135560995Y-87781968D01*
X135547072Y-87776862D01*
X135533753Y-87770367D01*
X135521158Y-87762542D01*
X135509405Y-87753447D01*
X135498614Y-87743140D01*
X135494548Y-87738655D01*
X135485417Y-87727033D01*
X135477611Y-87714641D01*
X135471092Y-87701410D01*
X135465825Y-87687266D01*
X135461771Y-87672140D01*
X135459958Y-87663939D01*
X135459958Y-87651694D01*
X135603347Y-87651694D01*
X135901185Y-87651694D01*
X135901185Y-87334895D01*
X135603347Y-87334895D01*
X135603347Y-87651694D01*
X135459958Y-87651694D01*
X135459958Y-87323440D01*
X135462111Y-87313484D01*
X135463658Y-87306911D01*
X135466233Y-87298106D01*
X135469412Y-87289537D01*
X135473435Y-87280511D01*
X135476133Y-87275139D01*
X135483788Y-87262295D01*
X135492627Y-87250436D01*
X135502572Y-87239622D01*
X135513541Y-87229914D01*
X135525455Y-87221371D01*
X135538233Y-87214055D01*
X135551794Y-87208024D01*
X135566059Y-87203339D01*
X135580946Y-87200061D01*
X135581412Y-87199984D01*
X135582494Y-87199822D01*
X135583686Y-87199674D01*
X135585052Y-87199538D01*
X135586662Y-87199414D01*
X135588580Y-87199302D01*
X135590876Y-87199201D01*
X135593614Y-87199110D01*
X135596862Y-87199029D01*
X135600687Y-87198957D01*
X135605156Y-87198895D01*
X135610336Y-87198840D01*
X135616293Y-87198793D01*
X135623095Y-87198753D01*
X135630807Y-87198719D01*
X135639498Y-87198692D01*
X135649235Y-87198669D01*
X135660083Y-87198652D01*
X135672109Y-87198639D01*
X135685382Y-87198629D01*
X135699967Y-87198623D01*
X135715931Y-87198619D01*
X135733342Y-87198617D01*
X135752266Y-87198616D01*
X135760914Y-87198617D01*
X135779154Y-87198618D01*
X135795910Y-87198620D01*
X135811250Y-87198625D01*
X135825240Y-87198633D01*
X135837947Y-87198644D01*
X135849439Y-87198659D01*
X135859782Y-87198679D01*
X135869043Y-87198703D01*
X135877288Y-87198734D01*
X135884586Y-87198770D01*
X135891002Y-87198813D01*
X135896603Y-87198863D01*
X135901457Y-87198922D01*
X135905630Y-87198988D01*
X135909189Y-87199064D01*
X135912201Y-87199149D01*
X135914733Y-87199245D01*
X135916851Y-87199351D01*
X135918624Y-87199468D01*
X135920116Y-87199597D01*
X135921396Y-87199738D01*
X135922531Y-87199893D01*
X135923586Y-87200061D01*
X135936523Y-87202817D01*
X135950874Y-87207310D01*
X135964491Y-87213141D01*
X135977307Y-87220241D01*
X135989253Y-87228546D01*
X136000261Y-87237989D01*
X136010261Y-87248504D01*
X136019185Y-87260025D01*
X136026964Y-87272486D01*
X136033530Y-87285820D01*
X136038815Y-87299962D01*
X136042748Y-87314846D01*
X136044574Y-87323440D01*
X136044794Y-87489740D01*
X136044810Y-87501255D01*
X136044835Y-87519863D01*
X136044857Y-87536997D01*
X136044874Y-87552723D01*
X136044886Y-87567107D01*
X136044891Y-87580218D01*
X136044887Y-87592122D01*
X136044874Y-87602885D01*
X136044849Y-87612574D01*
X136044812Y-87621256D01*
X136044761Y-87628998D01*
X136044695Y-87635866D01*
X136044613Y-87641928D01*
X136044512Y-87647250D01*
X136044398Y-87651694D01*
X136044393Y-87651898D01*
G37*
G36*
X131506248Y-87680640D02*
G01*
X131506151Y-87683369D01*
X131506040Y-87685618D01*
X131505914Y-87687466D01*
X131505774Y-87688988D01*
X131505618Y-87690263D01*
X131505444Y-87691368D01*
X131505254Y-87692380D01*
X131503995Y-87697900D01*
X131500113Y-87710134D01*
X131494929Y-87721656D01*
X131488532Y-87732378D01*
X131481014Y-87742211D01*
X131472464Y-87751069D01*
X131462974Y-87758863D01*
X131452634Y-87765506D01*
X131441533Y-87770910D01*
X131429763Y-87774987D01*
X131417415Y-87777649D01*
X131416832Y-87777728D01*
X131415353Y-87777874D01*
X131413376Y-87778006D01*
X131410831Y-87778126D01*
X131407644Y-87778233D01*
X131403743Y-87778329D01*
X131399057Y-87778413D01*
X131393512Y-87778488D01*
X131387037Y-87778553D01*
X131379560Y-87778609D01*
X131371009Y-87778657D01*
X131361310Y-87778698D01*
X131350392Y-87778731D01*
X131338184Y-87778759D01*
X131324611Y-87778781D01*
X131309603Y-87778798D01*
X131293088Y-87778811D01*
X131285655Y-87778816D01*
X131269830Y-87778826D01*
X131255468Y-87778833D01*
X131242490Y-87778834D01*
X131230814Y-87778825D01*
X131220361Y-87778805D01*
X131211050Y-87778770D01*
X131202800Y-87778718D01*
X131195531Y-87778645D01*
X131189161Y-87778551D01*
X131183611Y-87778430D01*
X131178800Y-87778282D01*
X131174647Y-87778102D01*
X131171072Y-87777889D01*
X131167994Y-87777639D01*
X131165333Y-87777351D01*
X131163008Y-87777020D01*
X131160938Y-87776645D01*
X131159043Y-87776222D01*
X131157242Y-87775749D01*
X131155455Y-87775224D01*
X131153600Y-87774642D01*
X131151599Y-87774003D01*
X131139688Y-87769451D01*
X131128527Y-87763568D01*
X131118157Y-87756340D01*
X131108483Y-87747710D01*
X131107543Y-87746760D01*
X131099231Y-87737290D01*
X131092320Y-87727233D01*
X131086689Y-87716389D01*
X131082214Y-87704555D01*
X131082162Y-87704390D01*
X131081582Y-87702586D01*
X131081054Y-87700935D01*
X131080577Y-87699358D01*
X131080147Y-87697776D01*
X131079762Y-87696110D01*
X131079420Y-87694281D01*
X131079118Y-87692211D01*
X131078853Y-87689822D01*
X131078624Y-87687033D01*
X131078427Y-87683767D01*
X131078261Y-87679945D01*
X131078218Y-87678555D01*
X131183963Y-87678555D01*
X131400429Y-87678555D01*
X131400429Y-87446288D01*
X131183963Y-87446288D01*
X131183963Y-87678555D01*
X131078218Y-87678555D01*
X131078122Y-87675488D01*
X131078008Y-87670317D01*
X131077917Y-87664354D01*
X131077846Y-87657519D01*
X131077793Y-87649735D01*
X131077754Y-87640921D01*
X131077729Y-87631000D01*
X131077714Y-87619893D01*
X131077706Y-87607521D01*
X131077704Y-87593805D01*
X131077705Y-87578666D01*
X131077705Y-87438783D01*
X131079548Y-87430552D01*
X131081965Y-87421433D01*
X131086530Y-87409190D01*
X131092414Y-87397809D01*
X131099609Y-87387304D01*
X131108107Y-87377689D01*
X131117287Y-87369420D01*
X131127400Y-87362227D01*
X131138289Y-87356325D01*
X131150075Y-87351649D01*
X131162879Y-87348133D01*
X131170928Y-87346351D01*
X131301979Y-87346351D01*
X131317232Y-87346353D01*
X131331034Y-87346359D01*
X131343461Y-87346368D01*
X131354593Y-87346382D01*
X131364508Y-87346402D01*
X131373282Y-87346428D01*
X131380995Y-87346461D01*
X131387725Y-87346502D01*
X131393549Y-87346552D01*
X131398546Y-87346612D01*
X131402793Y-87346683D01*
X131406370Y-87346765D01*
X131409353Y-87346859D01*
X131411822Y-87346966D01*
X131413853Y-87347088D01*
X131415526Y-87347224D01*
X131416918Y-87347376D01*
X131418107Y-87347544D01*
X131419171Y-87347729D01*
X131419433Y-87347779D01*
X131432330Y-87351005D01*
X131444420Y-87355588D01*
X131455703Y-87361530D01*
X131466182Y-87368832D01*
X131475858Y-87377494D01*
X131483570Y-87386084D01*
X131491063Y-87396581D01*
X131497174Y-87407839D01*
X131501913Y-87419877D01*
X131505289Y-87432714D01*
X131505292Y-87432728D01*
X131505478Y-87433718D01*
X131505647Y-87434825D01*
X131505799Y-87436124D01*
X131505936Y-87437694D01*
X131506058Y-87439611D01*
X131506166Y-87441952D01*
X131506262Y-87444794D01*
X131506344Y-87448215D01*
X131506416Y-87452291D01*
X131506477Y-87457099D01*
X131506528Y-87462717D01*
X131506570Y-87469222D01*
X131506605Y-87476690D01*
X131506631Y-87485199D01*
X131506652Y-87494826D01*
X131506667Y-87505647D01*
X131506677Y-87517740D01*
X131506683Y-87531182D01*
X131506686Y-87546051D01*
X131506687Y-87562422D01*
X131506687Y-87566346D01*
X131506686Y-87582345D01*
X131506683Y-87596860D01*
X131506676Y-87609967D01*
X131506665Y-87621744D01*
X131506650Y-87632268D01*
X131506629Y-87641616D01*
X131506601Y-87649867D01*
X131506566Y-87657097D01*
X131506522Y-87663383D01*
X131506469Y-87668803D01*
X131506407Y-87673434D01*
X131506333Y-87677354D01*
X131506302Y-87678555D01*
X131506248Y-87680640D01*
G37*
G36*
X134395601Y-87198222D02*
G01*
X134401347Y-87198222D01*
X134426675Y-87198227D01*
X134450452Y-87198238D01*
X134472676Y-87198255D01*
X134493344Y-87198278D01*
X134512456Y-87198308D01*
X134530009Y-87198344D01*
X134546001Y-87198386D01*
X134560430Y-87198434D01*
X134573295Y-87198489D01*
X134584593Y-87198550D01*
X134594322Y-87198617D01*
X134602481Y-87198690D01*
X134609068Y-87198770D01*
X134614080Y-87198855D01*
X134617516Y-87198947D01*
X134619374Y-87199045D01*
X134627184Y-87199998D01*
X134641693Y-87202935D01*
X134655679Y-87207283D01*
X134669053Y-87212973D01*
X134681725Y-87219932D01*
X134693605Y-87228088D01*
X134704605Y-87237371D01*
X134714634Y-87247707D01*
X134723603Y-87259026D01*
X134731422Y-87271255D01*
X134738001Y-87284323D01*
X134743251Y-87298159D01*
X134743286Y-87298268D01*
X134744571Y-87302350D01*
X134745684Y-87306126D01*
X134746639Y-87309739D01*
X134747446Y-87313335D01*
X134748119Y-87317059D01*
X134748669Y-87321056D01*
X134749109Y-87325473D01*
X134749450Y-87330453D01*
X134749704Y-87336141D01*
X134749885Y-87342684D01*
X134750004Y-87350227D01*
X134750072Y-87358913D01*
X134750103Y-87368890D01*
X134750108Y-87380301D01*
X134750100Y-87389690D01*
X134750074Y-87399140D01*
X134750028Y-87407242D01*
X134749960Y-87414118D01*
X134749868Y-87419892D01*
X134749749Y-87424688D01*
X134749600Y-87428629D01*
X134749419Y-87431839D01*
X134749203Y-87434442D01*
X134748950Y-87436561D01*
X134746456Y-87449762D01*
X134742321Y-87463972D01*
X134736840Y-87477513D01*
X134730088Y-87490312D01*
X134722141Y-87502292D01*
X134713074Y-87513380D01*
X134702963Y-87523499D01*
X134691885Y-87532576D01*
X134679913Y-87540534D01*
X134667125Y-87547300D01*
X134653596Y-87552799D01*
X134639401Y-87556954D01*
X134624617Y-87559692D01*
X134623351Y-87559832D01*
X134621698Y-87559961D01*
X134619597Y-87560079D01*
X134616980Y-87560186D01*
X134613782Y-87560283D01*
X134609935Y-87560369D01*
X134605374Y-87560447D01*
X134600031Y-87560516D01*
X134593840Y-87560576D01*
X134586735Y-87560628D01*
X134578648Y-87560673D01*
X134569514Y-87560711D01*
X134559266Y-87560743D01*
X134547837Y-87560769D01*
X134535161Y-87560789D01*
X134521171Y-87560805D01*
X134505801Y-87560816D01*
X134488983Y-87560823D01*
X134470653Y-87560826D01*
X134325091Y-87560842D01*
X134325091Y-87651694D01*
X134750123Y-87651694D01*
X134750123Y-87788368D01*
X134532174Y-87788368D01*
X134507059Y-87788365D01*
X134483509Y-87788356D01*
X134461514Y-87788342D01*
X134441058Y-87788322D01*
X134422131Y-87788296D01*
X134404718Y-87788265D01*
X134388807Y-87788228D01*
X134374385Y-87788185D01*
X134361439Y-87788136D01*
X134349956Y-87788081D01*
X134339924Y-87788020D01*
X134331328Y-87787954D01*
X134324157Y-87787881D01*
X134318397Y-87787801D01*
X134314036Y-87787716D01*
X134311060Y-87787625D01*
X134309457Y-87787527D01*
X134297659Y-87785774D01*
X134285071Y-87782743D01*
X134272762Y-87778467D01*
X134260326Y-87772825D01*
X134252246Y-87768495D01*
X134243024Y-87762723D01*
X134234490Y-87756315D01*
X134226143Y-87748920D01*
X134217534Y-87740062D01*
X134208040Y-87728319D01*
X134199919Y-87715818D01*
X134193192Y-87702596D01*
X134187881Y-87688691D01*
X134184008Y-87674142D01*
X134183514Y-87671708D01*
X134182834Y-87667898D01*
X134182258Y-87663936D01*
X134181780Y-87659680D01*
X134181393Y-87654986D01*
X134181093Y-87649712D01*
X134180871Y-87643715D01*
X134180724Y-87636853D01*
X134180643Y-87628982D01*
X134180624Y-87619960D01*
X134180660Y-87609644D01*
X134180745Y-87597891D01*
X134180749Y-87597423D01*
X134180845Y-87587108D01*
X134180950Y-87578210D01*
X134181077Y-87570570D01*
X134181238Y-87564033D01*
X134181448Y-87558440D01*
X134181717Y-87553635D01*
X134182061Y-87549460D01*
X134182490Y-87545758D01*
X134183018Y-87542372D01*
X134183658Y-87539145D01*
X134184422Y-87535920D01*
X134185324Y-87532540D01*
X134186376Y-87528846D01*
X134190138Y-87517596D01*
X134196099Y-87504040D01*
X134203326Y-87491298D01*
X134211734Y-87479442D01*
X134221235Y-87468542D01*
X134231746Y-87458671D01*
X134243180Y-87449898D01*
X134255451Y-87442295D01*
X134268475Y-87435934D01*
X134282166Y-87430884D01*
X134296438Y-87427219D01*
X134311205Y-87425008D01*
X134311301Y-87424999D01*
X134313518Y-87424877D01*
X134317313Y-87424764D01*
X134322685Y-87424660D01*
X134329631Y-87424567D01*
X134338150Y-87424483D01*
X134348239Y-87424409D01*
X134359897Y-87424345D01*
X134373122Y-87424291D01*
X134387913Y-87424247D01*
X134404267Y-87424212D01*
X134422183Y-87424188D01*
X134441659Y-87424173D01*
X134462692Y-87424168D01*
X134605549Y-87424168D01*
X134605549Y-87334895D01*
X134180517Y-87334895D01*
X134180517Y-87198221D01*
X134395601Y-87198222D01*
G37*
G36*
X132688699Y-87346102D02*
G01*
X132705869Y-87346126D01*
X132724506Y-87346167D01*
X132736070Y-87346197D01*
X132750862Y-87346238D01*
X132764210Y-87346278D01*
X132776194Y-87346320D01*
X132786891Y-87346364D01*
X132796382Y-87346411D01*
X132804745Y-87346462D01*
X132812060Y-87346518D01*
X132818406Y-87346581D01*
X132823862Y-87346651D01*
X132828506Y-87346730D01*
X132832419Y-87346818D01*
X132835680Y-87346916D01*
X132838366Y-87347026D01*
X132840559Y-87347149D01*
X132842336Y-87347286D01*
X132843777Y-87347437D01*
X132844961Y-87347604D01*
X132845967Y-87347788D01*
X132858287Y-87350971D01*
X132870443Y-87355608D01*
X132881741Y-87361567D01*
X132892203Y-87368859D01*
X132901848Y-87377494D01*
X132909560Y-87386084D01*
X132917053Y-87396581D01*
X132923164Y-87407839D01*
X132927903Y-87419877D01*
X132931279Y-87432714D01*
X132931282Y-87432728D01*
X132931468Y-87433718D01*
X132931637Y-87434825D01*
X132931789Y-87436124D01*
X132931926Y-87437694D01*
X132932048Y-87439611D01*
X132932156Y-87441952D01*
X132932251Y-87444794D01*
X132932334Y-87448215D01*
X132932406Y-87452291D01*
X132932467Y-87457099D01*
X132932518Y-87462717D01*
X132932560Y-87469222D01*
X132932594Y-87476690D01*
X132932621Y-87485199D01*
X132932642Y-87494826D01*
X132932657Y-87505647D01*
X132932667Y-87517740D01*
X132932673Y-87531182D01*
X132932676Y-87546051D01*
X132932677Y-87562422D01*
X132932677Y-87566346D01*
X132932676Y-87582345D01*
X132932672Y-87596860D01*
X132932666Y-87609967D01*
X132932655Y-87621744D01*
X132932640Y-87632268D01*
X132932618Y-87641616D01*
X132932591Y-87649867D01*
X132932555Y-87657097D01*
X132932512Y-87663383D01*
X132932459Y-87668803D01*
X132932397Y-87673434D01*
X132932323Y-87677354D01*
X132932238Y-87680640D01*
X132932140Y-87683369D01*
X132932029Y-87685618D01*
X132931904Y-87687466D01*
X132931764Y-87688988D01*
X132931607Y-87690263D01*
X132931434Y-87691368D01*
X132931243Y-87692380D01*
X132929985Y-87697900D01*
X132926103Y-87710134D01*
X132920919Y-87721656D01*
X132914522Y-87732378D01*
X132907004Y-87742211D01*
X132898454Y-87751069D01*
X132888964Y-87758863D01*
X132878623Y-87765506D01*
X132867523Y-87770910D01*
X132855753Y-87774987D01*
X132843405Y-87777649D01*
X132842822Y-87777728D01*
X132841342Y-87777874D01*
X132839366Y-87778006D01*
X132836820Y-87778126D01*
X132833633Y-87778233D01*
X132829733Y-87778329D01*
X132825046Y-87778413D01*
X132819502Y-87778488D01*
X132813027Y-87778553D01*
X132805550Y-87778609D01*
X132796998Y-87778657D01*
X132787300Y-87778698D01*
X132776382Y-87778731D01*
X132764173Y-87778759D01*
X132750601Y-87778781D01*
X132735593Y-87778798D01*
X132719078Y-87778811D01*
X132711645Y-87778816D01*
X132695819Y-87778826D01*
X132681458Y-87778833D01*
X132668479Y-87778834D01*
X132656804Y-87778825D01*
X132646351Y-87778805D01*
X132637040Y-87778770D01*
X132628790Y-87778718D01*
X132621520Y-87778645D01*
X132615151Y-87778551D01*
X132609601Y-87778430D01*
X132604790Y-87778282D01*
X132600637Y-87778102D01*
X132597062Y-87777889D01*
X132593984Y-87777639D01*
X132591323Y-87777351D01*
X132588998Y-87777020D01*
X132586928Y-87776645D01*
X132585033Y-87776222D01*
X132583232Y-87775749D01*
X132581444Y-87775224D01*
X132579590Y-87774642D01*
X132577589Y-87774003D01*
X132565678Y-87769451D01*
X132554517Y-87763568D01*
X132544147Y-87756340D01*
X132534473Y-87747710D01*
X132526396Y-87738754D01*
X132519156Y-87728596D01*
X132513238Y-87717658D01*
X132508550Y-87705791D01*
X132508130Y-87704517D01*
X132507128Y-87701372D01*
X132506295Y-87698487D01*
X132505615Y-87695678D01*
X132505070Y-87692762D01*
X132504641Y-87689553D01*
X132504312Y-87685868D01*
X132504064Y-87681524D01*
X132503879Y-87676336D01*
X132503740Y-87670119D01*
X132503629Y-87662691D01*
X132503528Y-87653867D01*
X132503168Y-87620093D01*
X132609953Y-87620093D01*
X132609953Y-87678555D01*
X132826419Y-87678555D01*
X132826419Y-87446288D01*
X132609953Y-87446288D01*
X132609953Y-87505540D01*
X132503170Y-87505540D01*
X132503517Y-87471372D01*
X132503580Y-87465328D01*
X132503677Y-87457505D01*
X132503795Y-87450952D01*
X132503952Y-87445484D01*
X132504166Y-87440914D01*
X132504457Y-87437056D01*
X132504843Y-87433726D01*
X132505343Y-87430736D01*
X132505976Y-87427903D01*
X132506761Y-87425039D01*
X132507716Y-87421959D01*
X132508860Y-87418477D01*
X132513247Y-87407555D01*
X132519078Y-87396810D01*
X132526092Y-87386747D01*
X132534090Y-87377689D01*
X132541800Y-87370627D01*
X132552152Y-87362996D01*
X132563204Y-87356780D01*
X132574939Y-87351987D01*
X132587343Y-87348625D01*
X132600399Y-87346700D01*
X132601961Y-87346603D01*
X132605448Y-87346483D01*
X132610497Y-87346380D01*
X132617097Y-87346292D01*
X132625239Y-87346220D01*
X132634911Y-87346164D01*
X132646104Y-87346125D01*
X132658806Y-87346101D01*
X132673008Y-87346093D01*
X132688699Y-87346102D01*
G37*
G36*
X130598715Y-87679773D02*
G01*
X130598525Y-87683674D01*
X130598299Y-87687033D01*
X130598034Y-87689929D01*
X130597728Y-87692441D01*
X130597378Y-87694647D01*
X130596981Y-87696627D01*
X130596536Y-87698458D01*
X130596038Y-87700220D01*
X130595486Y-87701991D01*
X130594877Y-87703851D01*
X130594208Y-87705878D01*
X130591812Y-87712435D01*
X130586423Y-87723769D01*
X130579778Y-87734309D01*
X130571991Y-87743962D01*
X130563173Y-87752635D01*
X130553436Y-87760235D01*
X130542891Y-87766669D01*
X130531650Y-87771843D01*
X130519826Y-87775666D01*
X130507530Y-87778043D01*
X130507470Y-87778050D01*
X130505973Y-87778125D01*
X130502996Y-87778198D01*
X130498632Y-87778270D01*
X130492971Y-87778340D01*
X130486106Y-87778406D01*
X130478127Y-87778470D01*
X130469128Y-87778529D01*
X130459199Y-87778583D01*
X130448433Y-87778633D01*
X130436921Y-87778676D01*
X130424755Y-87778714D01*
X130412027Y-87778744D01*
X130398828Y-87778768D01*
X130385251Y-87778783D01*
X130380522Y-87778787D01*
X130364614Y-87778796D01*
X130350190Y-87778800D01*
X130337174Y-87778798D01*
X130325489Y-87778789D01*
X130315061Y-87778772D01*
X130305814Y-87778746D01*
X130297673Y-87778712D01*
X130290561Y-87778668D01*
X130284404Y-87778614D01*
X130279125Y-87778549D01*
X130274649Y-87778473D01*
X130270901Y-87778384D01*
X130267805Y-87778283D01*
X130265285Y-87778169D01*
X130263266Y-87778040D01*
X130261672Y-87777897D01*
X130260427Y-87777739D01*
X130256753Y-87777114D01*
X130244362Y-87774008D01*
X130232465Y-87769474D01*
X130221219Y-87763592D01*
X130210781Y-87756440D01*
X130201308Y-87748098D01*
X130193578Y-87739599D01*
X130186112Y-87729307D01*
X130180071Y-87718348D01*
X130175438Y-87706689D01*
X130172201Y-87694298D01*
X130170345Y-87681145D01*
X130170260Y-87679914D01*
X130170203Y-87678555D01*
X130276228Y-87678555D01*
X130492694Y-87678555D01*
X130492694Y-87446288D01*
X130276228Y-87446288D01*
X130276228Y-87678555D01*
X130170203Y-87678555D01*
X130170134Y-87676912D01*
X130170024Y-87672670D01*
X130169930Y-87667160D01*
X130169852Y-87660348D01*
X130169789Y-87652205D01*
X130169742Y-87642700D01*
X130169710Y-87631800D01*
X130169694Y-87619476D01*
X130169693Y-87605696D01*
X130169707Y-87590430D01*
X130169736Y-87573645D01*
X130169779Y-87555311D01*
X130169807Y-87544615D01*
X130169846Y-87529467D01*
X130169882Y-87515764D01*
X130169920Y-87503424D01*
X130169962Y-87492365D01*
X130170012Y-87482507D01*
X130170072Y-87473766D01*
X130170146Y-87466062D01*
X130170238Y-87459312D01*
X130170350Y-87453435D01*
X130170485Y-87448350D01*
X130170647Y-87443973D01*
X130170839Y-87440225D01*
X130171064Y-87437022D01*
X130171326Y-87434283D01*
X130171627Y-87431927D01*
X130171971Y-87429872D01*
X130172361Y-87428035D01*
X130172800Y-87426336D01*
X130173292Y-87424693D01*
X130173839Y-87423023D01*
X130174445Y-87421245D01*
X130175113Y-87419277D01*
X130175463Y-87418248D01*
X130180067Y-87406897D01*
X130185773Y-87396488D01*
X130192738Y-87386770D01*
X130201115Y-87377496D01*
X130201169Y-87377443D01*
X130210979Y-87368689D01*
X130221462Y-87361363D01*
X130232654Y-87355445D01*
X130244588Y-87350917D01*
X130257298Y-87347762D01*
X130258208Y-87347600D01*
X130259370Y-87347425D01*
X130260702Y-87347267D01*
X130262282Y-87347126D01*
X130264189Y-87347000D01*
X130266500Y-87346888D01*
X130269295Y-87346789D01*
X130272651Y-87346704D01*
X130276648Y-87346630D01*
X130281363Y-87346567D01*
X130286874Y-87346514D01*
X130293260Y-87346471D01*
X130300600Y-87346435D01*
X130308971Y-87346408D01*
X130318453Y-87346387D01*
X130329122Y-87346371D01*
X130341058Y-87346361D01*
X130354340Y-87346355D01*
X130369045Y-87346351D01*
X130505729Y-87346351D01*
X130513778Y-87348133D01*
X130526314Y-87351551D01*
X130538108Y-87356171D01*
X130548995Y-87361999D01*
X130559104Y-87369103D01*
X130568566Y-87377554D01*
X130575097Y-87384666D01*
X130582543Y-87394732D01*
X130588729Y-87405678D01*
X130593695Y-87417573D01*
X130597477Y-87430488D01*
X130597485Y-87430523D01*
X130597673Y-87431390D01*
X130597844Y-87432381D01*
X130597998Y-87433574D01*
X130598138Y-87435044D01*
X130598264Y-87436869D01*
X130598376Y-87439125D01*
X130598477Y-87441889D01*
X130598567Y-87445237D01*
X130598646Y-87449246D01*
X130598717Y-87453992D01*
X130598779Y-87459552D01*
X130598835Y-87466003D01*
X130598884Y-87473421D01*
X130598929Y-87481884D01*
X130598969Y-87491466D01*
X130599007Y-87502246D01*
X130599042Y-87514299D01*
X130599076Y-87527702D01*
X130599110Y-87542533D01*
X130599145Y-87558867D01*
X130599152Y-87562023D01*
X130599187Y-87578570D01*
X130599219Y-87593630D01*
X130599243Y-87607282D01*
X130599258Y-87619605D01*
X130599260Y-87630676D01*
X130599248Y-87640576D01*
X130599218Y-87649382D01*
X130599168Y-87657174D01*
X130599096Y-87664031D01*
X130598998Y-87670030D01*
X130598872Y-87675251D01*
X130598757Y-87678555D01*
X130598715Y-87679773D01*
G37*
G36*
X136680542Y-87663149D02*
G01*
X136678700Y-87671840D01*
X136678600Y-87672308D01*
X136674646Y-87687084D01*
X136669291Y-87701281D01*
X136662596Y-87714776D01*
X136654622Y-87727441D01*
X136645433Y-87739153D01*
X136642987Y-87741879D01*
X136632539Y-87752082D01*
X136621071Y-87761189D01*
X136608735Y-87769120D01*
X136595682Y-87775795D01*
X136582065Y-87781134D01*
X136568035Y-87785056D01*
X136553743Y-87787482D01*
X136552390Y-87787563D01*
X136549472Y-87787647D01*
X136545152Y-87787726D01*
X136539522Y-87787799D01*
X136532675Y-87787868D01*
X136524706Y-87787931D01*
X136515706Y-87787989D01*
X136505769Y-87788042D01*
X136494989Y-87788089D01*
X136483458Y-87788131D01*
X136471269Y-87788168D01*
X136458516Y-87788200D01*
X136445292Y-87788226D01*
X136431689Y-87788247D01*
X136417802Y-87788262D01*
X136403723Y-87788273D01*
X136389545Y-87788278D01*
X136375361Y-87788277D01*
X136361266Y-87788271D01*
X136347351Y-87788260D01*
X136333710Y-87788243D01*
X136320436Y-87788221D01*
X136307622Y-87788193D01*
X136295361Y-87788160D01*
X136283747Y-87788122D01*
X136272873Y-87788078D01*
X136262831Y-87788028D01*
X136253715Y-87787973D01*
X136245618Y-87787913D01*
X136238634Y-87787847D01*
X136232855Y-87787775D01*
X136228374Y-87787698D01*
X136225285Y-87787615D01*
X136223680Y-87787527D01*
X136220180Y-87787100D01*
X136205585Y-87784364D01*
X136191504Y-87780193D01*
X136178027Y-87774657D01*
X136165244Y-87767830D01*
X136153243Y-87759783D01*
X136142116Y-87750588D01*
X136131950Y-87740317D01*
X136122835Y-87729044D01*
X136114861Y-87716839D01*
X136108118Y-87703776D01*
X136102694Y-87689925D01*
X136101235Y-87685333D01*
X136098549Y-87675077D01*
X136096698Y-87664725D01*
X136095546Y-87653586D01*
X136095508Y-87652947D01*
X136095465Y-87651694D01*
X136239315Y-87651694D01*
X136536363Y-87651694D01*
X136536363Y-87334895D01*
X136239315Y-87334895D01*
X136239315Y-87651694D01*
X136095465Y-87651694D01*
X136095415Y-87650223D01*
X136095327Y-87646053D01*
X136095246Y-87640536D01*
X136095171Y-87633769D01*
X136095102Y-87625850D01*
X136095039Y-87616876D01*
X136094982Y-87606944D01*
X136094931Y-87596153D01*
X136094886Y-87584600D01*
X136094848Y-87572383D01*
X136094815Y-87559598D01*
X136094789Y-87546344D01*
X136094769Y-87532719D01*
X136094755Y-87518819D01*
X136094747Y-87504743D01*
X136094745Y-87490588D01*
X136094749Y-87476452D01*
X136094759Y-87462432D01*
X136094776Y-87448626D01*
X136094798Y-87435131D01*
X136094827Y-87422045D01*
X136094862Y-87409466D01*
X136094903Y-87397490D01*
X136094950Y-87386217D01*
X136095003Y-87375743D01*
X136095062Y-87366166D01*
X136095127Y-87357583D01*
X136095199Y-87350093D01*
X136095276Y-87343792D01*
X136095360Y-87338778D01*
X136095450Y-87335149D01*
X136095546Y-87333003D01*
X136095927Y-87328458D01*
X136097358Y-87317603D01*
X136099554Y-87307278D01*
X136102646Y-87296808D01*
X136104674Y-87291116D01*
X136110641Y-87277571D01*
X136117885Y-87264855D01*
X136126321Y-87253037D01*
X136135861Y-87242185D01*
X136146419Y-87232368D01*
X136157907Y-87223654D01*
X136170241Y-87216113D01*
X136183331Y-87209813D01*
X136197092Y-87204822D01*
X136211437Y-87201209D01*
X136226279Y-87199042D01*
X136226365Y-87199035D01*
X136228338Y-87198936D01*
X136231788Y-87198843D01*
X136236620Y-87198757D01*
X136242738Y-87198677D01*
X136250046Y-87198603D01*
X136258450Y-87198535D01*
X136267853Y-87198474D01*
X136278160Y-87198418D01*
X136289276Y-87198369D01*
X136301105Y-87198326D01*
X136313551Y-87198289D01*
X136326519Y-87198259D01*
X136339913Y-87198234D01*
X136353638Y-87198216D01*
X136367598Y-87198204D01*
X136381698Y-87198198D01*
X136395842Y-87198198D01*
X136409934Y-87198205D01*
X136423880Y-87198217D01*
X136437583Y-87198236D01*
X136450948Y-87198261D01*
X136463880Y-87198292D01*
X136476282Y-87198330D01*
X136488060Y-87198373D01*
X136499118Y-87198423D01*
X136509360Y-87198479D01*
X136518690Y-87198541D01*
X136527014Y-87198609D01*
X136534236Y-87198684D01*
X136540260Y-87198764D01*
X136544990Y-87198851D01*
X136548331Y-87198944D01*
X136550188Y-87199043D01*
X136563823Y-87200976D01*
X136578268Y-87204491D01*
X136592130Y-87209405D01*
X136605324Y-87215655D01*
X136617766Y-87223177D01*
X136629371Y-87231906D01*
X136640055Y-87241779D01*
X136649732Y-87252730D01*
X136658319Y-87264695D01*
X136665730Y-87277611D01*
X136671882Y-87291413D01*
X136673331Y-87295463D01*
X136675533Y-87302727D01*
X136677505Y-87310529D01*
X136679091Y-87318234D01*
X136680137Y-87325205D01*
X136680233Y-87326488D01*
X136680336Y-87329012D01*
X136680429Y-87332671D01*
X136680512Y-87337498D01*
X136680585Y-87343524D01*
X136680649Y-87350782D01*
X136680703Y-87359301D01*
X136680747Y-87369115D01*
X136680782Y-87380256D01*
X136680808Y-87392754D01*
X136680825Y-87406642D01*
X136680832Y-87421951D01*
X136680831Y-87438713D01*
X136680821Y-87456960D01*
X136680803Y-87476723D01*
X136680776Y-87498035D01*
X136680558Y-87651694D01*
X136680542Y-87663149D01*
G37*
%TO.C,TP6*%
X152591400Y-152089764D02*
G75*
G03*
X152591400Y-152089764I-700000J0D01*
G01*
%TO.C,TP2*%
X156546800Y-145160800D02*
G75*
G03*
X156546800Y-145160800I-700000J0D01*
G01*
%TO.C,TP5*%
X155131400Y-152089764D02*
G75*
G03*
X155131400Y-152089764I-700000J0D01*
G01*
%TO.C,G\u002A\u002A\u002A*%
G36*
X138094046Y-81204844D02*
G01*
X138387916Y-81396382D01*
X138521364Y-81483360D01*
X138622827Y-81568847D01*
X138761487Y-81703508D01*
X138898272Y-81851584D01*
X139016558Y-81993946D01*
X139099720Y-82111466D01*
X139131135Y-82185012D01*
X139104973Y-82178470D01*
X139027176Y-82123096D01*
X138915800Y-82030083D01*
X138622905Y-81815305D01*
X138260407Y-81643588D01*
X137834253Y-81527162D01*
X137758596Y-81512532D01*
X137578238Y-81483522D01*
X137432596Y-81476290D01*
X137279947Y-81490837D01*
X137078567Y-81527162D01*
X136996514Y-81544326D01*
X136600003Y-81663456D01*
X136258828Y-81836844D01*
X135949000Y-82076147D01*
X135779211Y-82247152D01*
X135512418Y-82606758D01*
X135325546Y-82996664D01*
X135218778Y-83406053D01*
X135192300Y-83824113D01*
X135246294Y-84240027D01*
X135380946Y-84642983D01*
X135596439Y-85022164D01*
X135892957Y-85366756D01*
X135925942Y-85397979D01*
X136272392Y-85671627D01*
X136638937Y-85859781D01*
X137039912Y-85968148D01*
X137489653Y-86002435D01*
X137555761Y-86002841D01*
X137710714Y-86008826D01*
X137811049Y-86020491D01*
X137837567Y-86035986D01*
X137792023Y-86058706D01*
X137677633Y-86096647D01*
X137525203Y-86137460D01*
X137524108Y-86137724D01*
X137234453Y-86185521D01*
X136902173Y-86206025D01*
X136570850Y-86198384D01*
X136284066Y-86161743D01*
X136248257Y-86153477D01*
X136073245Y-86099542D01*
X135863630Y-86020211D01*
X135657229Y-85929495D01*
X135425088Y-85803879D01*
X135044946Y-85518166D01*
X134724703Y-85161362D01*
X134464536Y-84733684D01*
X134264624Y-84235348D01*
X134252506Y-84197734D01*
X134200946Y-84054253D01*
X134169319Y-84000756D01*
X134157262Y-84036575D01*
X134141382Y-84134959D01*
X134099071Y-84291206D01*
X134040201Y-84464398D01*
X133985587Y-84598639D01*
X133752736Y-85023016D01*
X133455437Y-85391775D01*
X133103731Y-85699595D01*
X132707659Y-85941157D01*
X132277261Y-86111141D01*
X131822579Y-86204227D01*
X131353653Y-86215096D01*
X130880524Y-86138427D01*
X130761742Y-86106877D01*
X130616662Y-86062715D01*
X130560386Y-86032345D01*
X130593964Y-86013032D01*
X130718443Y-86002042D01*
X130934870Y-85996644D01*
X131182096Y-85986843D01*
X131434819Y-85954742D01*
X131646330Y-85897002D01*
X131894088Y-85792311D01*
X132272059Y-85560546D01*
X132589441Y-85271152D01*
X132842638Y-84934575D01*
X133028056Y-84561259D01*
X133142098Y-84161650D01*
X133181169Y-83746193D01*
X133141673Y-83325331D01*
X133020014Y-82909510D01*
X132812597Y-82509175D01*
X132566642Y-82192559D01*
X132266557Y-81932714D01*
X131897253Y-81719188D01*
X131648734Y-81616087D01*
X131210389Y-81507863D01*
X130772790Y-81491616D01*
X130340601Y-81566820D01*
X129918487Y-81732945D01*
X129511109Y-81989464D01*
X129218372Y-82210999D01*
X129359077Y-82006490D01*
X129521900Y-81801690D01*
X129825560Y-81516715D01*
X129977799Y-81410917D01*
X133167490Y-81410917D01*
X133211074Y-81470216D01*
X133302707Y-81573844D01*
X133432280Y-81709832D01*
X133512271Y-81794103D01*
X133747145Y-82080932D01*
X133911672Y-82351282D01*
X133985842Y-82517206D01*
X134066647Y-82727553D01*
X134122316Y-82906415D01*
X134185761Y-83159166D01*
X134290056Y-82813374D01*
X134299955Y-82781076D01*
X134461613Y-82367996D01*
X134677610Y-82009833D01*
X134965084Y-81677758D01*
X135246703Y-81396382D01*
X134990842Y-81484267D01*
X134935540Y-81501982D01*
X134612634Y-81569118D01*
X134251777Y-81595993D01*
X133891910Y-81581500D01*
X133571978Y-81524536D01*
X133563576Y-81522232D01*
X133392822Y-81473702D01*
X133252840Y-81430979D01*
X133173212Y-81403073D01*
X133167490Y-81410917D01*
X129977799Y-81410917D01*
X130181031Y-81269681D01*
X130481000Y-81118498D01*
X132618315Y-81118498D01*
X132641575Y-81141758D01*
X132664835Y-81118498D01*
X132641575Y-81095238D01*
X132618315Y-81118498D01*
X130481000Y-81118498D01*
X130564049Y-81076642D01*
X130950356Y-80953649D01*
X131143560Y-80927046D01*
X131399551Y-80916068D01*
X131680496Y-80921246D01*
X131957051Y-80941215D01*
X132199871Y-80974612D01*
X132379612Y-81020073D01*
X132582851Y-81095012D01*
X132286572Y-80780366D01*
X132209424Y-80695849D01*
X131914693Y-80304715D01*
X131707678Y-79893794D01*
X131584276Y-79453143D01*
X131540383Y-78972824D01*
X131550537Y-78671384D01*
X131620169Y-78254956D01*
X131761179Y-77851781D01*
X131814913Y-77739511D01*
X131899972Y-77583786D01*
X131991689Y-77432573D01*
X132077528Y-77305305D01*
X132144951Y-77221419D01*
X132181422Y-77200348D01*
X132182527Y-77219232D01*
X132158643Y-77303156D01*
X132109158Y-77426774D01*
X132104210Y-77438059D01*
X131978974Y-77838720D01*
X131935993Y-78259635D01*
X131972361Y-78684264D01*
X132085174Y-79096064D01*
X132271527Y-79478493D01*
X132528515Y-79815010D01*
X132594896Y-79883049D01*
X132948354Y-80177623D01*
X133329537Y-80384655D01*
X133744676Y-80506874D01*
X134200000Y-80547007D01*
X134462872Y-80532475D01*
X134898372Y-80440516D01*
X135297276Y-80270197D01*
X135651459Y-80028881D01*
X135952794Y-79723929D01*
X136193153Y-79362706D01*
X136364411Y-78952573D01*
X136458440Y-78500893D01*
X136466907Y-78343937D01*
X136445695Y-78029027D01*
X136384095Y-77707461D01*
X136289237Y-77424587D01*
X136260385Y-77355427D01*
X136223939Y-77250531D01*
X136217795Y-77201130D01*
X136220609Y-77200740D01*
X136260971Y-77240844D01*
X136334872Y-77338425D01*
X136428742Y-77475810D01*
X136460192Y-77524931D01*
X136676956Y-77958525D01*
X136807679Y-78425934D01*
X136851096Y-78922823D01*
X136847156Y-79085469D01*
X136784302Y-79568443D01*
X136642398Y-80006696D01*
X136418229Y-80408276D01*
X136108582Y-80781227D01*
X136030294Y-80861296D01*
X135912953Y-80981487D01*
X135832555Y-81064082D01*
X135803173Y-81094638D01*
X136218996Y-80976437D01*
X136722907Y-80902161D01*
X137199959Y-80914980D01*
X137655291Y-81015630D01*
X137893824Y-81118498D01*
X138094046Y-81204844D01*
G37*
%TO.C,TP8*%
X156553800Y-142640964D02*
G75*
G03*
X156553800Y-142640964I-700000J0D01*
G01*
%TD*%
M02*
