%TF.GenerationSoftware,KiCad,Pcbnew,7.0.9*%
%TF.CreationDate,2024-03-31T00:52:56+01:00*%
%TF.ProjectId,Controller,436f6e74-726f-46c6-9c65-722e6b696361,rev?*%
%TF.SameCoordinates,Original*%
%TF.FileFunction,Soldermask,Bot*%
%TF.FilePolarity,Negative*%
%FSLAX46Y46*%
G04 Gerber Fmt 4.6, Leading zero omitted, Abs format (unit mm)*
G04 Created by KiCad (PCBNEW 7.0.9) date 2024-03-31 00:52:56*
%MOMM*%
%LPD*%
G01*
G04 APERTURE LIST*
G04 Aperture macros list*
%AMRoundRect*
0 Rectangle with rounded corners*
0 $1 Rounding radius*
0 $2 $3 $4 $5 $6 $7 $8 $9 X,Y pos of 4 corners*
0 Add a 4 corners polygon primitive as box body*
4,1,4,$2,$3,$4,$5,$6,$7,$8,$9,$2,$3,0*
0 Add four circle primitives for the rounded corners*
1,1,$1+$1,$2,$3*
1,1,$1+$1,$4,$5*
1,1,$1+$1,$6,$7*
1,1,$1+$1,$8,$9*
0 Add four rect primitives between the rounded corners*
20,1,$1+$1,$2,$3,$4,$5,0*
20,1,$1+$1,$4,$5,$6,$7,0*
20,1,$1+$1,$6,$7,$8,$9,0*
20,1,$1+$1,$8,$9,$2,$3,0*%
%AMFreePoly0*
4,1,21,-0.850000,0.000000,-0.842219,0.114750,-0.797860,0.293119,-0.716195,0.457783,-0.601041,0.601041,-0.457783,0.716195,-0.293119,0.797860,-0.114750,0.842219,0.000000,0.850000,0.850000,0.850000,0.850000,-0.850000,0.000000,-0.850000,-0.114750,-0.842219,-0.293119,-0.797860,-0.457783,-0.716195,-0.601041,-0.601041,-0.716195,-0.457783,-0.797860,-0.293119,-0.842219,-0.114750,-0.850000,0.000000,
-0.850000,0.000000,-0.850000,0.000000,$1*%
%AMFreePoly1*
4,1,20,-0.850000,0.850000,0.000000,0.850000,0.114750,0.842219,0.293119,0.797860,0.457783,0.716195,0.601041,0.601041,0.716195,0.457783,0.797860,0.293119,0.842219,0.114750,0.850000,0.000000,0.842219,-0.114750,0.797860,-0.293119,0.716195,-0.457783,0.601041,-0.601041,0.457783,-0.716195,0.293119,-0.797860,0.114750,-0.842219,0.000000,-0.850000,-0.850000,-0.850000,-0.850000,0.850000,
-0.850000,0.850000,$1*%
G04 Aperture macros list end*
%ADD10R,2.400000X2.400000*%
%ADD11C,2.400000*%
%ADD12RoundRect,0.250000X0.620000X0.845000X-0.620000X0.845000X-0.620000X-0.845000X0.620000X-0.845000X0*%
%ADD13O,1.740000X2.190000*%
%ADD14O,1.000000X1.600000*%
%ADD15R,1.700000X1.700000*%
%ADD16FreePoly0,180.000000*%
%ADD17FreePoly1,180.000000*%
%ADD18O,8.000000X4.000000*%
%ADD19C,1.650000*%
%ADD20C,4.710000*%
%ADD21RoundRect,0.250000X-0.725000X0.600000X-0.725000X-0.600000X0.725000X-0.600000X0.725000X0.600000X0*%
%ADD22O,1.950000X1.700000*%
%ADD23O,4.000000X8.000000*%
%ADD24FreePoly0,270.000000*%
%ADD25FreePoly1,270.000000*%
%ADD26C,4.700000*%
%ADD27RoundRect,0.250000X0.725000X-0.600000X0.725000X0.600000X-0.725000X0.600000X-0.725000X-0.600000X0*%
%ADD28R,2.200000X1.200000*%
%ADD29R,6.400000X5.800000*%
%ADD30C,1.000000*%
G04 APERTURE END LIST*
D10*
%TO.C,C30*%
X182140000Y-70444725D03*
D11*
X182140000Y-62944725D03*
%TD*%
D12*
%TO.C,J5*%
X140740000Y-59900000D03*
D13*
X138200000Y-59900000D03*
%TD*%
D14*
%TO.C,J3*%
X148790600Y-149970464D03*
X148790600Y-153770464D03*
X157430600Y-149970464D03*
X157430600Y-153770464D03*
%TD*%
D15*
%TO.C,J4*%
X144246000Y-154299564D03*
X142596000Y-154299564D03*
D16*
X144246000Y-151759564D03*
D17*
X142596000Y-151759564D03*
D16*
X144246000Y-149219564D03*
D17*
X142596000Y-149219564D03*
D16*
X144246000Y-146679564D03*
D17*
X142596000Y-146679564D03*
D16*
X144246000Y-144139564D03*
D17*
X142596000Y-144139564D03*
D16*
X144246000Y-141599564D03*
D17*
X142596000Y-141599564D03*
D16*
X144246000Y-139059564D03*
D17*
X142596000Y-139059564D03*
D16*
X144246000Y-136519564D03*
D17*
X142596000Y-136519564D03*
D16*
X144246000Y-133979564D03*
D17*
X142596000Y-133979564D03*
D16*
X144246000Y-131439564D03*
D17*
X142596000Y-131439564D03*
D16*
X144246000Y-128899564D03*
D17*
X142596000Y-128899564D03*
D16*
X144246000Y-126359564D03*
D17*
X142596000Y-126359564D03*
D16*
X144246000Y-123819564D03*
D17*
X142596000Y-123819564D03*
D16*
X144246000Y-121279564D03*
D17*
X142596000Y-121279564D03*
D16*
X144246000Y-118739564D03*
D17*
X142596000Y-118739564D03*
D16*
X144246000Y-116199564D03*
D17*
X142596000Y-116199564D03*
D16*
X144246000Y-113659564D03*
D17*
X142596000Y-113659564D03*
D16*
X144246000Y-111119564D03*
D17*
X142596000Y-111119564D03*
D16*
X144246000Y-108579564D03*
D17*
X142596000Y-108579564D03*
D16*
X144246000Y-106039564D03*
D17*
X142596000Y-106039564D03*
%TD*%
D18*
%TO.C,J8*%
X221280000Y-112400000D03*
X221280000Y-102400000D03*
%TD*%
D19*
%TO.C,S1*%
X132800000Y-110100000D03*
X132800000Y-112640000D03*
X132800000Y-115180000D03*
X135300000Y-115180000D03*
X135300000Y-110100000D03*
D20*
X134050000Y-118490000D03*
X134050000Y-106790000D03*
%TD*%
D21*
%TO.C,J7*%
X135200000Y-140300000D03*
D22*
X135200000Y-142800000D03*
X135200000Y-145300000D03*
%TD*%
D23*
%TO.C,J9*%
X167200000Y-61320000D03*
X157200000Y-61320000D03*
%TD*%
D15*
%TO.C,J1*%
X155660600Y-104634564D03*
X155660600Y-106284564D03*
D24*
X153120600Y-104634564D03*
D25*
X153120600Y-106284564D03*
D24*
X150580600Y-104634564D03*
D25*
X150580600Y-106284564D03*
%TD*%
D26*
%TO.C,H1*%
X131400000Y-152300000D03*
%TD*%
D27*
%TO.C,J6*%
X217850000Y-145300000D03*
D22*
X217850000Y-142800000D03*
X217850000Y-140300000D03*
%TD*%
D26*
%TO.C,H2*%
X221300000Y-61400000D03*
%TD*%
D10*
%TO.C,C29*%
X182140000Y-88996945D03*
D11*
X182140000Y-81496945D03*
%TD*%
D26*
%TO.C,H3*%
X221200000Y-152200000D03*
%TD*%
D15*
%TO.C,J2*%
X163676000Y-154299564D03*
X162026000Y-154299564D03*
D16*
X163676000Y-151759564D03*
D17*
X162026000Y-151759564D03*
D16*
X163676000Y-149219564D03*
D17*
X162026000Y-149219564D03*
D16*
X163676000Y-146679564D03*
D17*
X162026000Y-146679564D03*
D16*
X163676000Y-144139564D03*
D17*
X162026000Y-144139564D03*
D16*
X163676000Y-141599564D03*
D17*
X162026000Y-141599564D03*
D16*
X163676000Y-139059564D03*
D17*
X162026000Y-139059564D03*
D16*
X163676000Y-136519564D03*
D17*
X162026000Y-136519564D03*
D16*
X163676000Y-133979564D03*
D17*
X162026000Y-133979564D03*
D16*
X163676000Y-131439564D03*
D17*
X162026000Y-131439564D03*
D16*
X163676000Y-128899564D03*
D17*
X162026000Y-128899564D03*
D16*
X163676000Y-126359564D03*
D17*
X162026000Y-126359564D03*
D16*
X163676000Y-123819564D03*
D17*
X162026000Y-123819564D03*
D16*
X163676000Y-121279564D03*
D17*
X162026000Y-121279564D03*
D16*
X163676000Y-118739564D03*
D17*
X162026000Y-118739564D03*
D16*
X163676000Y-116199564D03*
D17*
X162026000Y-116199564D03*
D16*
X163676000Y-113659564D03*
D17*
X162026000Y-113659564D03*
D16*
X163676000Y-111119564D03*
D17*
X162026000Y-111119564D03*
D16*
X163676000Y-108579564D03*
D17*
X162026000Y-108579564D03*
D16*
X163676000Y-106039564D03*
D17*
X162026000Y-106039564D03*
%TD*%
D26*
%TO.C,H4*%
X131750000Y-61500000D03*
%TD*%
D28*
%TO.C,Q1*%
X162125000Y-79925000D03*
D29*
X155825000Y-82205000D03*
D28*
X162125000Y-84485000D03*
%TD*%
%TO.C,Q2*%
X162130000Y-87840000D03*
D29*
X155830000Y-90120000D03*
D28*
X162130000Y-92400000D03*
%TD*%
D30*
%TO.C,TP6*%
X151891400Y-152089764D03*
%TD*%
%TO.C,TP2*%
X155846800Y-145160800D03*
%TD*%
%TO.C,TP5*%
X154431400Y-152089764D03*
%TD*%
%TO.C,TP8*%
X155853800Y-142640964D03*
%TD*%
M02*
